SplineFontDB: 3.0
FontName: StickNoBills-Light
FullName: Stick No Bills
FamilyName: Stick No Bills
Weight: Light
Copyright: Copyright (c) 2013 STICK NO BILLS, Copyright (c) 2015 mooniak\n
UComments: "2015-2-15: Created with FontForge (http://fontforge.org) The  Free Font Editor"
Version: 1.0
ItalicAngle: 0
UnderlinePosition: -99.6094
UnderlineWidth: 49.8047
Ascent: 800
Descent: 200
InvalidEm: 0
UFOAscent: 799.805
UFODescent: -200.195
LayerCount: 3
Layer: 0 0 "Back" 1
Layer: 1 0 "Fore" 1
Layer: 2 0 "Back 2" 1
PreferredKerning: 4
FSType: 0
OS2Version: 0
OS2_WeightWidthSlopeOnly: 0
OS2_UseTypoMetrics: 0
CreationTime: 1429518268
ModificationTime: 1445822655
PfmFamily: 16
TTFWeight: 400
TTFWidth: 5
LineGap: 92
VLineGap: 0
OS2TypoAscent: 800
OS2TypoAOffset: 0
OS2TypoDescent: -200
OS2TypoDOffset: 0
OS2TypoLinegap: 92
OS2WinAscent: 896
OS2WinAOffset: 0
OS2WinDescent: 200
OS2WinDOffset: 0
HheadAscent: 896
HheadAOffset: 0
HheadDescent: -200
HheadDOffset: 0
OS2Vendor: 'PfEd'
OS2UnicodeRanges: 00000002.00000000.00000000.00000000
Lookup: 258 0 0 "'kern' Horizontal Kerning lookup 0" { "'kern' Horizontal Kerning lookup 0-1" [153,15,0] } ['kern' ('DFLT' <'dflt' > 'hani' <'dflt' > 'latn' <'dflt' > ) ]
MarkAttachClasses: 1
DEI: 91125
KernClass2: 7 7 "'kern' Horizontal Kerning lookup 0-1"
 7 uni0041
 31 uni0054 uni0059 uni0050 uni0046
 39 uni0066 uni0072 uni0076 uni0077 uni0079
 7 uni004C
 15 uni0057 uni0056
 0 
 31 uni0057 uni0056 uni0054 uni0059
 15 uni002E uni002C
 71 uni0061 uni0065 uni0073 uni006F uni0071 uni0064 uni0063 uni0067 uni0075
 7 uni0041
 23 uni0077 uni0076 uni0074
 15 uni003B uni003A
 0 {} 0 {} 0 {} 0 {} 0 {} 0 {} 0 {} 0 {} -68 {} 60 {} -22 {} 0 {} -66 {} 44 {} 0 {} 16 {} -78 {} -29 {} -98 {} -22 {} -62 {} 0 {} 0 {} -40 {} 0 {} 0 {} 0 {} 0 {} 0 {} -80 {} 0 {} 82 {} 0 {} -75 {} 61 {} 0 {} 0 {} -106 {} -54 {} -127 {} 0 {} -73 {} 0 {} 0 {} 0 {} 0 {} 0 {} 0 {} 0 {}

StartChar: tml_Oo
Encoding: 13 2963 0
Width: 819
VWidth: 0
Flags: HW
HStem: -132 123<592 715> 29 122<137 173 228 268> 266 123<145 173 228 272> 573 122<273 389 442 556>
VStem: 2 171<144 152 266 389> 2 124<161 259> 179 123<-169 -109> 280 123<162 257> 446 123<14 166 171 350> 696 123<163 455>
LayerCount: 3
Back
SplineSet
228 29 m 1xf1c0
 228 152 l 0
 262 152 281 174 280 210 c 0
 279 244 268 266 228 266 c 1
 228 389 l 0
 327 389 402 309 402 248 c 0
 402 177 l 0
 402 115 327 29 228 29 c 1xf1c0
2 177 m 0
 2 250 l 0xf4c0
 1 354 123 389 173 389 c 1xf8c0
 173 266 l 0xf8c0
 144 266 126 246 126 210 c 0xf4c0
 126 173 143 152 173 152 c 1
 173 29 l 0xf8c0
 71 29 2 124 2 177 c 0
2 256 m 1xf4c0
 2 310 l 1
 2 452 84 695 389 695 c 0
 389 573 l 1
 206 573 142 456 142 357 c 0
 142 300 8 286 2 256 c 1xf4c0
446 25 m 0
 446 276 l 1
 567 171 l 0
 567 52 l 0
 567 3 641 -9 715 -9 c 0
 715 -132 l 1
 552 -132 446 -66 446 25 c 0
442 573 m 1
 442 695 l 1
 708 695 820 494 820 398 c 0
 820 165 l 2
 820 -17 446 -16 446 166 c 2
 446 350 l 0
 569 350 l 1
 569 196 l 1
 569 137 695 136 696 196 c 0
 696 398 l 0
 696 458 604 573 442 573 c 1
179 -141 m 0
 179 -64 219 19 349 19 c 1
 349 -104 l 1
 324 -104 302 -115 302 -141 c 0xf2c0
 302 -176 367 -203 414 -138 c 0
 422 -127 425 -121 437 -98 c 1
 549 -163 l 1
 526 -206 451 -302 345 -301 c 0
 242 -300 179 -226 179 -141 c 0
EndSplineSet
Fore
SplineSet
247.008789062 30 m 1
 247.008789062 70 l 1
 291.458007812 70 341.008789062 118 341.008789062 212.6171875 c 0
 341.008789062 312 289.272460938 349 247.008789062 349 c 1
 247.008789062 389 l 0
 320.192382812 389 383.008789062 322 383.008789062 226 c 0
 383.008789062 203 l 0
 383.813476562 105 319.215820312 30 247.008789062 30 c 1
40.0087890625 202 m 0
 40.0087890625 226 l 0
 40.0087890625 330 116.008789062 389 192.008789062 389 c 1
 192.008789062 349 l 0
 154.625 349 79.0087890625 325 79.0087890625 211 c 0
 79.0087890625 121 141.880859375 70 192.008789062 70 c 1
 192.008789062 30 l 0
 103.63671875 30 40.0087890625 118 40.0087890625 202 c 0
40 228 m 1
 40 310 l 1
 40 467 116.653320312 695 389 695 c 0
 389 695 l 1
 389 655 l 1
 178.104492188 655 90.0087890625 502 82 332 c 1
 55 283 51 256 40 228 c 1
446 25 m 0
 446 276 l 1
 486 175 l 0
 486 27 l 0
 486 -61 619 -94 715 -92 c 0
 715 -132 l 1
 552 -132 446 -66 446 25 c 0
442 655 m 1
 442 695 l 1
 679.1484375 695 779 494 779 398 c 0
 779 165 l 2
 779 -17 446 -16 446 166 c 2
 446 350 l 0
 486 350 l 1
 486 162 l 1
 486 47 732.9765625 30 739 163.5 c 0
 739 397.5 l 0
 739 488 643.221679688 655 442 655 c 1
182 -141 m 0
 182 -64 221.293945312 19 349 19 c 1
 349 -21 l 1
 246.422851562 -21 222 -90 222 -143.06640625 c 0xf2c0
 222 -276 404.665039062 -304.885742188 491 -183 c 0
 498.59375 -172.3984375 502 -166 514 -143 c 1
 549 -163 l 1
 517 -231 448 -302 345 -301 c 0
 243.861328125 -300 182 -226 182 -141 c 0
EndSplineSet
EndChar

StartChar: tml_Ya
Encoding: 27 2991 1
Width: 645
VWidth: 0
Flags: HW
HStem: 0 119<123 155 209 269 402 436 489 523>
VStem: -1 122<121 595> 279 122<123 595> 489 156<0 119> 523 122<120 595>
LayerCount: 3
Back
SplineSet
489 0 m 257
 489 119 l 257xf0
 495 119 l 258
 516 119 523 132 523 145 c 257xe8
 523 595 l 257
 646 595 l 257xe8
 646 0 l 1
 489 0 l 257
-1 140 m 258
 -1 595 l 257
 121 595 l 257
 121 145 l 257
 121 134 126 119 149 119 c 258
 155 119 l 257
 155 0 l 257
 149 0 l 258
 52 0 -1 96 -1 140 c 258
209 0 m 257
 209 119 l 257
 215 119 l 258
 237 119 279 121 279 145 c 257
 279 595 l 257
 401 595 l 257
 401 145 l 258
 401 134 408 119 430 119 c 258
 436 119 l 257
 436 0 l 257
 279 0 l 1
 274 33 l 257
 269 12 248 0 215 0 c 258
 209 0 l 257
EndSplineSet
Fore
SplineSet
488 0 m 261
 488 40 l 261xf0
 518 40 l 262
 545 40 565 44 565 77 c 261xe8
 565 595 l 261
 605 595 l 261xe8
 605 0 l 5
 488 0 l 261
40 140 m 262
 40 595 l 261
 80 595 l 261
 80 145 l 261
 80 87 125.243164062 40 161 40 c 262
 166 40 l 261
 166 0 l 261
 160 0 l 262
 111.200195312 0 40 57 40 140 c 262
220 0 m 261
 220 40 l 261
 226 40 l 262
 270.66015625 40 318 62 318 127 c 261
 318 595 l 261
 358 595 l 261
 358 82 l 262
 358 45 373 40 392 40 c 262
 436 40 l 261
 435 0 l 261
 322 0 l 5
 322 36 l 261
 304.953125 15 267.271484375 0 226 0 c 262
 220 0 l 261
EndSplineSet
EndChar

StartChar: tml_O
Encoding: 12 2962 2
Width: 819
VWidth: 0
Flags: HMW
LayerCount: 3
Back
SplineSet
228 29 m 1
 228 152 l 0
 262 152 281 174 280 210 c 0
 279 244 268 266 228 266 c 1
 228 389 l 0
 327 389 402 309 402 248 c 0
 402 177 l 0
 402 115 327 29 228 29 c 1
2 177 m 0
 2 250 l 0
 1 354 123 389 173 389 c 1
 173 266 l 0
 144 266 126 246 126 210 c 0
 126 173 143 152 173 152 c 1
 173 29 l 0
 71 29 2 124 2 177 c 0
2 256 m 1
 2 310 l 1
 2 452 84 695 389 695 c 0
 389 695 l 1
 389 573 l 1
 206 573 142 456 142 357 c 0
 142 300 8 286 2 256 c 1
152 -124 m 1
 271 -94 l 1
 299 -151 393 -156 425 -94 c 0
 530 -155 l 1
 464 -297 207 -298 152 -124 c 1
446 25 m 0
 446 276 l 1
 567 171 l 0
 567 52 l 0
 567 3 641 -9 715 -9 c 0
 715 -132 l 1
 552 -132 446 -66 446 25 c 0
442 573 m 1
 442 695 l 1
 708 695 820 494 820 398 c 0
 820 165 l 2
 820 -17 446 -16 446 166 c 2
 446 350 l 0
 569 350 l 1
 569 196 l 1
 569 137 695 136 696 196 c 0
 696 398 l 0
 696 458 604 573 442 573 c 1
EndSplineSet
Fore
SplineSet
247.008789062 30 m 1
 247.008789062 70 l 1
 291.458007812 70 341.008789062 118 341.008789062 212.6171875 c 0
 341.008789062 312 289.272460938 349 247.008789062 349 c 1
 247.008789062 389 l 0
 320.192382812 389 383.008789062 322 383.008789062 226 c 0
 383.008789062 203 l 0
 383.813476562 105 319.215820312 30 247.008789062 30 c 1
40.0087890625 202 m 0
 40.0087890625 226 l 0
 40.0087890625 330 116.008789062 389 192.008789062 389 c 1
 192.008789062 349 l 0
 154.625 349 79.0087890625 325 79.0087890625 211 c 0
 79.0087890625 121 141.880859375 70 192.008789062 70 c 1
 192.008789062 30 l 0
 103.63671875 30 40.0087890625 118 40.0087890625 202 c 0
40 228 m 1
 40 310 l 1
 40 467 116.653320312 695 389 695 c 0
 389 695 l 1
 389 655 l 1
 178.104492188 655 90.0087890625 502 82 332 c 1
 55 283 51 256 40 228 c 1
442 655 m 1
 442 695 l 1
 679.1484375 695 779 494 779 398 c 0
 779 165 l 2
 779 -17 446 -16 446 166 c 2
 446 350 l 0
 486 350 l 1
 486 162 l 1
 486 47 732.9765625 30 739 163.5 c 0
 739 397.5 l 0
 739 488 643.221679688 655 442 655 c 1
185 -124 m 1
 226 -114 l 1
 281.1796875 -243 428.919921875 -252 493 -134 c 0
 530 -155 l 1
 450.595703125 -298 253.452148438 -296 185 -124 c 1
446 25 m 0
 446 276 l 1
 486 175 l 0
 486 27 l 0
 486 -61 619 -94 715 -92 c 0
 715 -132 l 1
 552 -132 446 -66 446 25 c 0
EndSplineSet
EndChar

StartChar: tml_Va
Encoding: 33 2997 3
Width: 793
VWidth: 0
Flags: HMW
LayerCount: 3
Back
SplineSet
229 0 m 1
 229 122 l 1
 261 123 276 142 276 180 c 0
 276 218 260 237 229 237 c 1
 229 359 l 0
 325 359 398 276 398 224 c 0
 398 152 l 0
 399 89 338 0 229 0 c 1
2 151 m 0
 2 220 l 0
 1 324 124 359 174 359 c 1
 174 237 l 0
 145 237 127 218 127 181 c 0
 127 147 141 122 174 122 c 1
 174 0 l 0
 72 0 2 91 2 151 c 0
2 226 m 1
 2 305 l 1
 2 433 53 605 263 605 c 1
 263 483 l 1
 199 483 140 439 138 354 c 0
 2 226 l 1
314 483 m 1
 391 483 449 423 450 354 c 1
 450 146 l 0
 450 127 424 124 417 123 c 1
 417 0 l 1
 618 0 l 1
 618 123 l 1
 571 123 l 1
 571 355 l 1
 570 466 483 605 314 605 c 1
 314 483 l 1
673 0 m 1
 673 595 l 1
 796 595 l 1
 796 0 l 1
 673 0 l 1
EndSplineSet
Fore
SplineSet
247 0 m 5
 247 40 l 5
 291.44921875 40 341 88 341 182.6171875 c 4
 341 282 289.263671875 319 247 319 c 5
 247 359 l 4
 320.18359375 359 383 292 383 196 c 4
 383 173 l 4
 383.8046875 75 319.20703125 0 247 0 c 5
40 172 m 4
 40 196 l 4
 40 300 116 359 192 359 c 5
 192 319 l 4
 154.616210938 319 79 295 79 181 c 4
 79 91 141.872070312 40 192 40 c 5
 192 0 l 4
 103.627929688 0 40 88 40 172 c 4
40 204 m 5
 40 302 l 5
 40 468.760742188 125.239257812 605 263 605 c 5
 263 565 l 5
 148.520507812 565 81.6708984375 443.390625 80 306 c 4
 40 204 l 5
314 565 m 5
 431 565 489 473 490 354 c 5
 490 76 l 4
 490 40 484 40 417 40 c 5
 417 0 l 5
 657 0 l 5
 657 40 l 5
 531 40 l 5
 531 355 l 5
 530 466 476 605 314 605 c 5
 314 565 l 5
712 0 m 1
 712 595 l 1
 753 595 l 1
 753 0 l 1
 712 0 l 1
EndSplineSet
EndChar

StartChar: tml_E
Encoding: 9 2958 4
Width: 666
VWidth: 0
Flags: HW
HStem: 1 122<142.991 172.991 227.991 260.991> 238 123<143.991 172.991 227.991 266.991> 472 123<197.991 266.991 321.991 446.991 568.991 669.991> 472 105<446.991 568.991>
VStem: 1.99121 171<116 123 238 360> 1.99121 131<310 405> 1.99121 124<145 217> 279.991 123<146 215> 446.991 123<0 577>
LayerCount: 3
Back
SplineSet
227.991210938 1 m 5xc180
 227.991210938 123 l 4
 261.991210938 123 280.991210938 146 279.991210938 182 c 4
 278.991210938 216 267.991210938 238 227.991210938 238 c 5
 227.991210938 360 l 4
 326.991210938 360 401.991210938 281 401.991210938 220 c 4
 401.991210938 148 l 4
 401.991210938 86 326.991210938 1 227.991210938 1 c 5xc180
1.9912109375 149 m 4
 1.9912109375 221 l 4xc380
 0.9912109375 325 122.991210938 360 172.991210938 360 c 5xc980
 172.991210938 238 l 4xc980
 143.991210938 238 125.991210938 218 125.991210938 182 c 4xc380
 125.991210938 145 142.991210938 123 172.991210938 123 c 5
 172.991210938 1 l 4xc980
 70.9912109375 1 1.9912109375 96 1.9912109375 149 c 4
321.991210938 472 m 1
 321.991210938 595 l 1
 669.991210938 595 l 1xe180
 669.991210938 472 l 1
 321.991210938 472 l 1
446.991210938 0 m 1
 446.991210938 577 l 1xd180
 568.991210938 577 l 1
 568.991210938 0 l 1
 446.991210938 0 l 1
227.991210938 1 m 1
 227.991210938 123 l 0
 261.991210938 123 280.991210938 146 279.991210938 182 c 0
 278.991210938 216 267.991210938 238 227.991210938 238 c 1
 227.991210938 360 l 0
 326.991210938 360 401.991210938 281 401.991210938 220 c 0
 401.991210938 148 l 0
 401.991210938 86 326.991210938 1 227.991210938 1 c 1
1.9912109375 228 m 5xe380
 1.9912109375 281 l 6
 1.9912109375 396 63.9912109375 595 266.991210938 595 c 5xe980
 266.991210938 472 l 5
 179.991210938 472 139.991210938 406 132.991210938 329 c 4xe580
 127.991210938 272 7.9912109375 258 1.9912109375 228 c 5xe380
1.9912109375 149 m 0
 1.9912109375 221 l 0xc380
 0.9912109375 325 122.991210938 360 172.991210938 360 c 1xc980
 172.991210938 238 l 0xc980
 143.991210938 238 125.991210938 218 125.991210938 182 c 0xc380
 125.991210938 145 142.991210938 123 172.991210938 123 c 1
 172.991210938 1 l 0xc980
 70.9912109375 1 1.9912109375 96 1.9912109375 149 c 0
EndSplineSet
Fore
SplineSet
247 0 m 1
 247 40 l 1
 291.44921875 40 341 88 341 182.6171875 c 0
 341 282 289.263671875 319 247 319 c 1
 247 359 l 0
 320.18359375 359 383 292 383 196 c 0
 383 173 l 0
 383.8046875 75 319.20703125 0 247 0 c 1
40 172 m 0
 40 196 l 0
 40 300 116 359 192 359 c 1
 192 319 l 0
 154.616210938 319 79 295 79 181 c 0
 79 91 141.872070312 40 192 40 c 1
 192 0 l 0
 103.627929688 0 40 88 40 172 c 0
40 204 m 1
 40 302 l 1
 40 464.357421875 126.768554688 597 267 597 c 1
 267 557 l 1
 150.018554688 557 81.7080078125 439.146484375 80 306 c 0
 40 204 l 1
321.991210938 555 m 1
 321.991210938 595 l 1
 626.991210938 595 l 1xe180
 626.991210938 555 l 1
 321.991210938 555 l 1
485.991210938 0 m 1
 485.991210938 577 l 1xd180
 525.991210938 577 l 1
 525.991210938 0 l 1
 485.991210938 0 l 1
EndSplineSet
EndChar

StartChar: tml_A
Encoding: 3 2949 5
Width: 1013
VWidth: 0
Flags: HW
HStem: -127 122<202 390 445 657> 110 125<363 390 444 471> 205 119<201 253 498 681 762 855> 373 122<371 466> 562 122<430 609>
VStem: 39 122<39 165> 225 116<205 323 326 466> 498 110<217 324> 681 122<16 205 378 486> 762 41<205 324> 853 122<-107 205 324 578> 853 3<205 324>
LayerCount: 3
Back
SplineSet
261 486 m 0
 261 606 363 695 518 695 c 0
 698 695 803 585 803 393 c 9x9f80
 803 262 l 1
 681 262 l 1
 681 396 l 0
 681 502 640 573 518 573 c 0
 428 573 383 532 383 486 c 0
 383 440 412 411 452 411 c 0
 497 411 537 433 537 498 c 0
 621 409 l 0
 616 346 542 289 452 289 c 0
 362 289 261 352 261 486 c 0
443 150 m 1
 443 270 l 1xbf80
 525 270 721 270 803 270 c 1xbf40
 804 67 l 1
 804 -35 733 -127 607 -127 c 0
 445 -127 l 0
 445 -5 l 17
 596 -5 l 0
 662 -4 681 33 681 67 c 1
 681 150 l 1
 640 150 484 150 443 150 c 1
39 72 m 0
 39 188 123 271 253 271 c 2
 389 271 l 1
 389 149 l 1
 235 149 l 0
 211 149 161 129 161 72 c 0
 161 19 207 -5 253 -5 c 0
 390 -5 l 1
 390 -127 l 1
 242 -127 l 0
 130 -127 39 -47 39 72 c 0
762 150 m 1
 762 270 l 1
 855 270 l 1
 855 150 l 1xbf50
 762 150 l 1
853 -107 m 1
 853 578 l 1x9f20
 975 578 l 1
 975 -107 l 1
 853 -107 l 1
EndSplineSet
Fore
SplineSet
301 486 m 0
 301 606 403 695 558 695 c 4
 712.736842105 695 803 585 803 393 c 13x9f80
 803 224 l 5
 763 224 l 5
 763 396 l 4
 763 583 671.795918367 655 558 655 c 4
 425 655 341 581 341 486 c 0
 341 391 406 329 492 329 c 4
 563 329 629 375 629 443 c 4
 661 409 l 4
 656 346 581 289 492 289 c 4
 402 289 301 352 301 486 c 0
483 192 m 5
 483 232 l 5xbf80
 555.888888889 232 730.111111111 232 803 232 c 5xbf40
 804 67 l 5
 804 -35 746.61928934 -127 647 -127 c 4
 485 -127 l 4
 485 -87 l 21
 648 -87 l 4
 711.806451613 -86 763 -29 763 69 c 5
 763 192 l 5
 727.125 192 518.875 192 483 192 c 5
79 72 m 0
 79 188 163 233 293 233 c 2
 429 233 l 5
 429 191 l 5
 275 191 l 0
 251 191 119 195.5 119 72 c 0
 119 -48.015625 220 -87 280 -87 c 0
 430 -87 l 5
 430 -127 l 5
 282 -127 l 0
 170 -127 79 -47 79 72 c 0
762 192 m 5
 762 232 l 5
 896 232 l 5
 896 192 l 5xbf50
 762 192 l 5
894 -107 m 5
 894 578 l 5x9f20
 934 578 l 5
 934 -107 l 5
 894 -107 l 5
EndSplineSet
EndChar

StartChar: tml_Pa
Encoding: 25 2986 6
Width: 539
VWidth: 0
Flags: HW
HStem: 1 122<162 242> 107 17<40 162>
VStem: 40 202<1 123> 40 122<123 595>
LayerCount: 3
Back
SplineSet
40 107 m 1x60
 40 595 l 1
 162 595 l 1
 162 107 l 1x50
 40 107 l 1x60
377 104 m 1
 499 104 l 17
 499 595 l 1
 377 595 l 1
 377 104 l 1
298 1 m 1
 499 1 l 1x80
 499 123 l 1
 298 123 l 1
 298 1 l 1
40 1 m 1xa0
 40 123 l 1x60
 242 123 l 1
 242 1 l 1
 40 1 l 1xa0
EndSplineSet
Fore
SplineSet
70 24 m 5x60
 70 595 l 5
 110 595 l 5
 110 24 l 5x50
 70 24 l 5x60
428 21 m 5
 469 21 l 21
 469 595 l 5
 428 595 l 5
 428 21 l 5
298 0 m 5
 469 0 l 5x80
 469 40 l 5
 298 40 l 5
 298 0 l 5
70 0 m 5xa0
 70 40 l 5x60
 242 40 l 5
 242 0 l 5
 70 0 l 5xa0
EndSplineSet
EndChar

StartChar: tml_Tta
Encoding: 20 2975 7
Width: 642
VWidth: 0
Flags: HW
HStem: 0 122<42 602>
VStem: 42 122<176 596>
LayerCount: 3
Back
SplineSet
52 0 m 1
 52 122 l 1
 612 122 l 1
 612 0 l 1
 52 0 l 1
52 176 m 1
 52 596 l 1
 174 596 l 1
 174 176 l 1
 52 176 l 1
EndSplineSet
Fore
SplineSet
93 0 m 1
 93 40 l 1
 571 40 l 5
 571 0 l 5
 93 0 l 1
93 95 m 1
 93 596 l 1
 134 596 l 1
 134 95 l 1
 93 95 l 1
EndSplineSet
EndChar

StartChar: tml_Ra
Encoding: 28 2992 8
Width: 518
VWidth: 0
Flags: HW
HStem: 0 21G<0 122> 473 122<2 178>
VStem: 0 178<473 595> 0 122<0 473>
LayerCount: 3
Back
SplineSet
112 -177 m 1
 255 -177 l 1
 404 0 l 2
 406 591 l 1xc0
 281 591 l 1
 281 33 l 1
 112 -177 l 1
0 0 m 21xd0
 0 595 l 1xe0
 122 595 l 1
 122 0 l 5
 0 0 l 21xd0
232 473 m 1
 518 473 l 1
 518 595 l 1
 232 595 l 1
 232 473 l 1
2 473 m 1
 2 595 l 1
 178 595 l 1
 178 473 l 1
 2 473 l 1
EndSplineSet
Fore
SplineSet
154 -177 m 1
 209 -177 l 1
 364 0 l 2
 366 591 l 1xc0
 324 591 l 1
 324 19 l 1
 154 -177 l 1
40 0 m 17xd0
 40 595 l 1xe0
 80 595 l 1
 80 0 l 1
 40 0 l 17xd0
229 555 m 1
 478 555 l 1
 478 595 l 1
 229 595 l 1
 229 555 l 1
42 555 m 1
 42 595 l 1
 175 595 l 1
 175 555 l 1
 42 555 l 1
EndSplineSet
EndChar

StartChar: tml_MatraAa
Encoding: 38 3006 9
Width: 570
VWidth: 0
Flags: HW
HStem: 0 21G<40 162> 473 122<40 219>
VStem: 40 179<473 595> 40 122<0 473>
LayerCount: 3
Back
SplineSet
324 0 m 1xc0
 446 0 l 1
 446 593 l 1
 324 593 l 1
 324 0 l 1xc0
40 0 m 17xd0
 40 592 l 1xe0
 162 593 l 1
 162 0 l 1
 40 0 l 17xd0
272 473 m 1
 530 473 l 1
 530 595 l 1
 272 595 l 1
 272 473 l 1
40 473 m 1
 40 595 l 1
 219 595 l 1
 219 473 l 1
 40 473 l 1
EndSplineSet
Fore
SplineSet
366 0 m 5xc0
 406 0 l 5
 406 593 l 5
 366 593 l 5
 366 0 l 5xc0
83 0 m 21xd0
 83 592 l 5xe0
 123 593 l 5
 123 0 l 5
 83 0 l 21xd0
271 555 m 5
 490 555 l 5
 490 595 l 5
 271 595 l 5
 271 555 l 5
83 555 m 5
 83 595 l 5
 218 595 l 5
 218 555 l 5
 83 555 l 5
EndSplineSet
EndChar

StartChar: tml_Na
Encoding: 23 2984 10
Width: 681
VWidth: 0
Flags: HW
HStem: -157 122<182 508>
VStem: 39 128<-257 -170> 520 123<-27 250>
LayerCount: 3
Back
SplineSet
39 -257 m 1
 39 -107 110 -35 247 -35 c 2
 468 -35 l 0
 517 -35 520 -5 520 25 c 0
 521 206 l 2
 521 252 516 253 489 253 c 0
 489 375 l 1
 565 375 643 353 643 206 c 0
 643 25 l 0
 643 -41 622 -157 469 -157 c 0
 226 -157 l 2
 184 -157 167 -182 167 -257 c 1
 39 -257 l 1
312 0 m 1
 437 0 l 1
 436 588 l 1
 313 588 l 1
 312 0 l 1
71 0 m 9
 193 0 l 1
 193 590 l 1
 71 590 l 1
 71 0 l 9
71 595 m 1
 72 474 l 1
 580 474 l 1
 580 595 l 1
 71 595 l 1
EndSplineSet
Fore
SplineSet
77 -257 m 5
 77 -121 126 -117 175 -117 c 6
 429 -117 l 0
 507 -117 563 -83 563 25 c 0
 564 206 l 2
 564.67401192 327.996157479 507 335 450 335 c 0
 450 375 l 1
 526 375 604 353 604 206 c 0
 604 25 l 0
 604 -41 583 -157 430 -157 c 0
 158 -157 l 6
 130 -157 117 -182 117 -257 c 5
 77 -257 l 5
355 0 m 1
 396 0 l 1
 395 588 l 1
 356 588 l 1
 355 0 l 1
112 0 m 9
 152 0 l 1
 152 590 l 1
 112 590 l 1
 112 0 l 9
112 595 m 1
 113 555 l 1
 539 555 l 1
 539 595 l 1
 112 595 l 1
EndSplineSet
EndChar

StartChar: tml_Three
Encoding: 55 3049 11
Width: 734
VWidth: 0
Flags: HW
HStem: 0 122<255 471 626 681>
VStem: 503 123<123 231>
LayerCount: 3
Back
SplineSet
333 0 m 1
 333 122 l 1
 681 122 l 1
 681 0 l 1
 333 0 l 1
255 0 m 1
 255 122 l 1
 288 122 381 122 448 122 c 0
 506 122 503 126 503 145 c 0
 503 211 l 2
 503 232 507 231 457 231 c 0
 457 354 l 1
 543 354 626 322 626 229 c 0
 626 111 l 0
 626 43 565 0 471 0 c 0
 394 0 337 0 255 0 c 1
281 177 m 1
 403 177 l 1
 403 589 l 1
 281 589 l 1
 281 177 l 1
39 0 m 9
 161 0 l 1
 161 591 l 1
 39 591 l 1
 39 0 l 9
39 595 m 1
 40 473 l 1
 512 473 l 1
 512 595 l 1
 39 595 l 1
EndSplineSet
Fore
SplineSet
298 0 m 1
 298 40 l 1
 640 40 l 1
 640 0 l 1
 298 0 l 1
255 0 m 1
 255 40 l 1
 418 40 l 0
 480 40 545 45 545 120 c 0
 545 230 l 2
 545 309 451 313 416 314 c 0
 416 354 l 1
 486 354 585 331 585 230 c 0
 585 112 l 0
 585 31 511 0 417 0 c 0
 255 0 l 1
321 177 m 1
 361 177 l 1
 361 589 l 1
 321 589 l 1
 321 177 l 1
82 0 m 9
 122 0 l 1
 122 591 l 1
 82 591 l 1
 82 0 l 9
82 595 m 1
 83 555 l 1
 470 555 l 1
 470 595 l 1
 82 595 l 1
EndSplineSet
EndChar

StartChar: tml_Nga
Encoding: 16 2969 12
Width: 895
VWidth: 0
Flags: HW
HStem: 0 122<275 471 626 681>
VStem: 503 123<123 231> 734 122<0 595>
LayerCount: 3
Back
SplineSet
734 0 m 1
 734 595 l 1
 856 595 l 1
 856 0 l 1
 734 0 l 1
333 0 m 1
 333 122 l 1
 681 122 l 1
 681 0 l 1
 333 0 l 1
275 0 m 1
 275 122 l 1
 308 122 381 122 448 122 c 0
 506 122 503 126 503 145 c 0
 503 211 l 2
 503 232 507 231 457 231 c 0
 457 354 l 1
 543 354 626 322 626 229 c 0
 626 111 l 0
 626 43 565 0 471 0 c 0
 275 0 l 1
281 162 m 1
 403 162 l 1
 403 589 l 1
 281 589 l 1
 281 162 l 1
39 0 m 9
 161 0 l 1
 161 591 l 1
 39 591 l 1
 39 0 l 9
39 595 m 1
 40 473 l 1
 512 473 l 1
 512 595 l 1
 39 595 l 1
EndSplineSet
Fore
SplineSet
775 0 m 1
 775 595 l 1
 815 595 l 1
 815 0 l 1
 775 0 l 1
333 0 m 1
 333 40 l 1
 722 40 l 1
 722 0 l 1
 333 0 l 1
275 0 m 1
 275 40 l 1
 301.526315789 40 389.14354067 40 443 40 c 0
 507 40 545 70 545 123 c 0
 545 224 l 2
 545 304 466 314 416 314 c 0
 416 354 l 1
 502 354 585 322 585 229 c 0
 585 118 l 0
 585 33 507 0 443 0 c 0
 275 0 l 1
322 80 m 1
 362 80 l 1
 362 589 l 1
 322 589 l 1
 322 80 l 1
81 0 m 9
 121 0 l 1
 121 591 l 1
 81 591 l 1
 81 0 l 9
81 595 m 1
 82 555 l 1
 471 555 l 1
 471 595 l 1
 81 595 l 1
EndSplineSet
EndChar

StartChar: tml_Ii
Encoding: 6 2952 13
Width: 632
VWidth: 0
Flags: HW
HStem: 267 3.57534e-007G<-374597 -110165> 267 2.12818e-006<-40806 162937 585594 785001> 267 2.09413e-006<-374597 11213.4>
VStem: -374597 385810<267 267> -374597 264432<267 267> -73318.1 270934<267 267> 550914 270934<267 267>
LayerCount: 3
Back
SplineSet
467 248 m 0xe2
 467 282 495 311 529 311 c 0
 563 311 592 282 592 248 c 0
 592 214 563 186 529 186 c 0
 495 186 467 214 467 248 c 0xe2
179 249 m 0xe6
 179 283 207 312 241 312 c 0
 275 312 304 283 304 249 c 0
 304 215 275 187 241 187 c 0
 207 187 179 215 179 249 c 0xe6
324 0 m 1
 446 0 l 1
 446 594 l 1
 324 594 l 1
 324 0 l 1
40 1 m 17xea
 40 593 l 1xf2
 162 594 l 1
 162 1 l 1
 40 1 l 17xea
272 473 m 1
 588 473 l 1
 588 596 l 1
 272 596 l 1
 272 473 l 1
40 473 m 1
 40 596 l 1
 218 596 l 1
 218 473 l 1
 40 473 l 1
EndSplineSet
Fore
SplineSet
442.860351562 253.116210938 m 0xe6
 442.860351562 278.41796875 463.698242188 300 489 300 c 0
 514.302734375 300 535.883789062 278.41796875 535.883789062 253.116210938 c 0
 535.883789062 227.813476562 514.302734375 206.9765625 489 206.9765625 c 0
 463.698242188 206.9765625 442.860351562 227.813476562 442.860351562 253.116210938 c 0xe6
198.474609375 253.568359375 m 0xe6
 198.474609375 278.870117188 219.3125 300.452148438 244.614257812 300.452148438 c 0
 269.916992188 300.452148438 291.498046875 278.870117188 291.498046875 253.568359375 c 0
 291.498046875 228.265625 269.916992188 207.428710938 244.614257812 207.428710938 c 0
 219.3125 207.428710938 198.474609375 228.265625 198.474609375 253.568359375 c 0xe6
364 0 m 1
 404 0 l 1
 404 594 l 1
 364 594 l 1
 364 0 l 1
81 1 m 1xea
 81 593 l 1xf2
 121 594 l 1
 121 1 l 1
 81 1 l 1xea
269 555 m 1
 546 555 l 1
 546 596 l 1
 269 596 l 1
 269 555 l 1
81 555 m 1
 81 596 l 1
 215 596 l 1
 215 555 l 1
 81 555 l 1
EndSplineSet
EndChar

StartChar: tml_Lla
Encoding: 31 2995 14
Width: 898
VWidth: 0
Flags: HW
HStem: 0 122<136.982 173.982 228.982 266.982> 237 123<136.982 173.982 228.982 267.982> 482 123<191.982 260.982 314.982 377.982 583.982 621.982>
VStem: 2.98241 171<115 122 237 359> 2.98241 131<306 418> 2.98241 124<130 225 226 228> 274.982 123<127 231>
LayerCount: 3
Back
SplineSet
2.982421875 226 m 1xe6
 2.982421875 326 l 2
 2.982421875 427 81.982421875 605 260.982421875 605 c 1xf2
 260.982421875 484 l 1
 195.982421875 484 133.982421875 427 133.982421875 327 c 0xea
 133.982421875 270 8.982421875 256 2.982421875 226 c 1xe6
228.982421875 0 m 1
 228.982421875 122 l 0
 269.982421875 122 275.982421875 150 274.982421875 181 c 0
 273.982421875 208 270.982421875 237 228.982421875 237 c 1
 228.982421875 359 l 0
 324.982421875 359 397.982421875 276 397.982421875 224 c 0
 397.982421875 152 l 0
 398.982421875 89 337.982421875 0 228.982421875 0 c 1
314.982421875 484 m 1
 383.982421875 484 434.982421875 417 435.982421875 354 c 1
 436.982421875 0 l 1
 562.982421875 0 l 1
 558.982421875 355 l 1
 558.982421875 454 476.982421875 605 314.982421875 605 c 1
 314.982421875 484 l 1
2.982421875 151 m 0
 2.982421875 193 3.982421875 140 2.982421875 220 c 0xe6
 1.982421875 324 123.982421875 359 173.982421875 359 c 1xf2
 173.982421875 237 l 0xf2
 144.982421875 237 126.982421875 210 126.982421875 181 c 0xe6
 126.982421875 149 140.982421875 122 173.982421875 122 c 1
 173.982421875 0 l 0xf2
 71.982421875 0 2.982421875 91 2.982421875 151 c 0
703.982421875 0 m 1
 825.982421875 0 l 1
 825.982421875 574 l 1
 703.982421875 574 l 1
 703.982421875 0 l 1
675.982421875 482 m 1
 899.982421875 482 l 1
 899.982421875 605 l 1
 675.982421875 605 l 1
 675.982421875 482 l 1
435.982421875 325 m 1
 558.982421875 326 l 1
 558.982421875 454 580.982421875 482 621.982421875 482 c 1
 621.982421875 605 l 1
 448.982421875 605 435.982421875 440 435.982421875 325 c 1
EndSplineSet
Fore
SplineSet
247 0 m 5
 319.20703125 0 383.8046875 75 383 173 c 4
 383 196 l 4
 383 292 320.18359375 359 247 359 c 4
 247 319 l 5
 289.263671875 319 341 282 341 182.6171875 c 4
 341 88 291.44921875 40 247 40 c 5
 247 0 l 5
40 172 m 4
 40 88 103.627929688 0 192 0 c 4
 192 40 l 5
 141.872070312 40 79 91 79 181 c 4
 79 295 154.616210938 319 192 319 c 4
 192 359 l 5
 116 359 40 300 40 196 c 4
 40 172 l 4
40 204 m 5
 80 306 l 4
 81.6530128762 443.390625 147.771345727 565 261 565 c 5
 261 605 l 5
 124.474420831 605 40 468.760742188 40 302 c 5
 40 204 l 5
314.982421875 565 m 5
 314.982421875 605 l 5
 476.982421875 605 517.982421875 454 517.982421875 355 c 5
 517.982421875 0 l 5
 477.982421875 0 l 5
 477.982421875 354 l 5
 477.982421875 472 427.982421875 565 314.982421875 565 c 5
744.982421875 0 m 5
 744.982421875 574 l 5
 784.982421875 574 l 5
 784.982421875 0 l 5
 744.982421875 0 l 5
675.982421875 565 m 5
 675.982421875 605 l 5
 858.982421875 605 l 5
 858.982421875 565 l 5
 675.982421875 565 l 5
477.982421875 325 m 5
 477.982421875 440 487.982421875 605 621.982421875 605 c 5
 621.982421875 565 l 5
 534.982421875 565 517.982421875 454 517.982421875 326 c 5
 477.982421875 325 l 5
EndSplineSet
EndChar

StartChar: tml_La
Encoding: 30 2994 15
Width: 835
VWidth: 0
Flags: HW
HStem: 0 122<134.991 171.991 226.991 264.991 560.991 596.991 649.991 688.991> 237 123<134.991 171.991 226.991 265.991> 485 121<196.991 258.991 312.991 377.991>
VStem: 0.991211 171<115 122 237 359> 0.991211 131<306 416> 0.991211 124<130 225 226 228> 272.991 123<127 231> 433.991 122<127 165 353 425> 692.991 122<130 166 422 465>
LayerCount: 3
Back
SplineSet
226.991210938 0 m 1xe380
 226.991210938 122 l 0
 267.991210938 122 273.991210938 150 272.991210938 181 c 0
 271.991210938 208 268.991210938 237 226.991210938 237 c 1
 226.991210938 359 l 0
 322.991210938 359 395.991210938 276 395.991210938 224 c 0
 395.991210938 152 l 0
 396.991210938 89 335.991210938 0 226.991210938 0 c 1xe380
0.9912109375 151 m 0
 0.9912109375 193 1.9912109375 140 0.9912109375 220 c 0xe780
 -0.0087890625 324 121.991210938 359 171.991210938 359 c 1xf380
 171.991210938 237 l 0xf380
 142.991210938 237 124.991210938 210 124.991210938 181 c 0xe780
 124.991210938 149 138.991210938 122 171.991210938 122 c 1
 171.991210938 0 l 0xf380
 69.9912109375 0 0.9912109375 91 0.9912109375 151 c 0
0.9912109375 226 m 1xe780
 0.9912109375 323 l 2
 0.9912109375 424 79.9912109375 606 258.991210938 606 c 1
 258.991210938 485 l 1
 193.991210938 485 131.991210938 427 131.991210938 327 c 0xeb80
 131.991210938 270 6.9912109375 256 0.9912109375 226 c 1xe780
312.991210938 484 m 1
 390.991210938 484 431.991210938 418 432.991210938 354 c 10
 433.991210938 165 l 18
 433.991210938 84 481.991210938 0 596.991210938 0 c 1
 596.991210938 123 l 1
 571.991210938 123 555.991210938 138 555.991210938 165 c 2
 555.991210938 353 l 2
 554.991210938 456 480.991210938 606 312.991210938 606 c 1
 312.991210938 484 l 1
641.991210938 594 m 1
 642.991210938 471 l 1
 680.991210938 471 692.991210938 458 692.991210938 422 c 1
 692.991210938 166 l 17
 692.991210938 139 676.991210938 123 649.991210938 123 c 1
 649.991210938 0 l 1
 759.991210938 0 815.991210938 81 815.991210938 166 c 2
 815.991210938 424 l 2
 815.991210938 541 761.991210938 595 641.991210938 594 c 1
EndSplineSet
Fore
SplineSet
247 0 m 5
 247 40 l 5
 291.44921875 40 341 88 341 182.6171875 c 4
 341 282 289.263671875 319 247 319 c 5
 247 359 l 4
 320.18359375 359 383 292 383 196 c 4
 383 173 l 4
 383.8046875 75 319.20703125 0 247 0 c 5
40 172 m 4
 40 196 l 4
 40 300 116 359 192 359 c 5
 192 319 l 4
 154.616210938 319 79 295 79 181 c 4
 79 91 141.872070312 40 192 40 c 5
 192 0 l 4
 103.627929688 0 40 88 40 172 c 4
40 204 m 5
 40 302 l 5
 40 468.760742188 117.211914062 605 242 605 c 5
 242 565 l 5
 140.657226562 565 81.4794921875 443.390625 80 306 c 4
 40 204 l 5
295.991210938 566 m 5
 444.177734375 566 453.991210938 447.264648438 453.991210938 401 c 6
 453.991210938 140 l 6
 453.991210938 64.1142578125 524.235351562 0 597.991210938 0 c 5
 597.991210938 41 l 5
 545.235351562 41 494.991210938 87.8408203125 494.991210938 142 c 6
 494.991210938 393 l 6
 494.991210938 480.801757812 461.49609375 606 295.991210938 606 c 5
 295.991210938 566 l 5
621.991210938 594 m 5
 621.991210938 554 l 5
 746.991210938 554 755.991210938 488 755.991210938 422 c 5
 755.991210938 146 l 5
 755.991210938 103.5 731.82421875 41 650.991210938 41 c 5
 650.991210938 0 l 5
 747.075195312 0 795.991210938 71.2412109375 795.991210938 146 c 6
 795.991210938 424 l 6
 795.991210938 541 741.991210938 595 621.991210938 594 c 5
EndSplineSet
EndChar

StartChar: tml_Nya
Encoding: 19 2974 16
Width: 869
VWidth: 0
Flags: HW
HStem: -165 122<46 701> 1 122<180 210 265 298> 238 123<181 210 265 304> 472 105<484 606> 472 123<235 304 359 484 606 707>
VStem: 39 124<145 217> 39 131<310 405> 39 171<116 123 238 360> 317 123<146 215> 484 123<0 577> 706 123<-36 197>
LayerCount: 3
Back
SplineSet
46 -43 m 5
 643 -43 l 6xe0e0
 705 -43 706 -23 706 26 c 4
 707 154 l 2
 707 200 702 201 660 201 c 0
 660 323 l 1
 745 323 829 296 829 154 c 0
 829 26 l 4
 829 -82 790 -165 616 -165 c 4
 46 -165 l 5
 46 -43 l 5
EndSplineSet
Refer: 4 2958 N 1 0 0 1 0 0 2
Fore
SplineSet
80 -125 m 5
 557 -125 l 2xe0e0
 636 -125 710 -89 710 26 c 0
 710 154 l 2
 710 259 662 283 581 283 c 0
 581 323 l 1
 666 323 750 296 750 154 c 0
 750 26 l 0
 750 -82 692 -165 557 -165 c 0
 80 -165 l 5
 80 -125 l 5
EndSplineSet
Refer: 4 2958 N 1 0 0 1 0 0 2
EndChar

StartChar: tml_Nnna
Encoding: 24 2985 17
Width: 914
VWidth: 0
Flags: HW
LayerCount: 3
Back
SplineSet
302 154 m 5
 302 288 l 6
 302 591 568 606 627 606 c 5
 627 484 l 5x0f80
 546 484 424 477 424 290 c 6
 424 155 l 4
 424 143 422 109 447 109 c 5
 447 -13 l 4
 352 -13 302 69 302 154 c 5
268 483 m 5
 268 605 l 5x1f80
 410 605 647 586 647 301 c 6
 647 154 l 4
 647 62 598 -13 501 -13 c 5
 501 109 l 4
 529 109 525 143 525 154 c 4
 525 290 l 6
 525 476 401 482 268 483 c 5
-81 153 m 5
 -81 68 -30 -14 65 -14 c 4
 65 108 l 5x9f80
 40 108 41 142 41 154 c 4
 41 290 l 6
 41 476 134 483 214 483 c 5
 214 605 l 5
 145 605 -81 596 -81 290 c 6
 -81 153 l 5
89 342 m 5
 86 376 117 432 174 437 c 5
 241 437 264 378 264 290 c 6
 264 154 l 4
 264 62 215 -14 118 -14 c 5
 118 109 l 4
 146 109 142 143 142 154 c 4
 142 290 l 6
 142 342 110 342 89 342 c 5
680 483 m 1x2f80
 680 605 l 1
 916 605 l 1x1f80
 916 482 l 1
 680 483 l 1x2f80
698 0 m 1x6f80
 698 573 l 1
 820 573 l 1
 820 0 l 1
 698 0 l 1x6f80
EndSplineSet
Fore
SplineSet
384 155 m 1
 384 298 l 2
 384 594 623.594726562 605.95703125 667 605 c 1
 667 565 l 1
 534.454101562 565 424 487 424 300 c 2
 424 156 l 0
 424 75 451.594726562 27 489 27 c 1
 489 -13 l 0x8fe0
 419.958984375 -13 384 70 384 155 c 1
350 565 m 1
 350 605 l 1xafe0
 409.713867188 605 647 604 647 311 c 2
 647 155 l 0
 647 63 614.724609375 -13 543 -13 c 1
 543 27 l 0
 584.447265625 27 607 73 607 155 c 0
 607 316 l 2
 607 450 546.931640625 564 350 565 c 1
40 154 m 1
 40 69 75.9111328125 -14 147 -14 c 0
 147 26 l 1
 116.828125 26 80.37109375 60 81 155 c 0
 80 300 l 2
 79.220703125 412.993164062 114.729492188 564 296 565 c 1
 296 605 l 1
 220.501953125 604.95703125 40 579.7265625 40 300 c 2
 40 154 l 1
177 408 m 1
 174 421 197 437 216 437 c 1
 285 437 307 378 307 300 c 2
 307 154 l 0
 307 58 269.623046875 -14 200 -14 c 1
 200 26 l 0
 234.131835938 26 267 60 267 154 c 0
 267 300 l 2
 267 356 264 408 177 408 c 1
720 566 m 1x2f80
 720 605 l 1
 874 605 l 1x1f80
 874 565 l 1
 720 566 l 1x2f80
738 0 m 1x6f80
 738 573 l 1
 778 573 l 1
 778 0 l 1
 738 0 l 1x6f80
EndSplineSet
EndChar

StartChar: tml_Nna
Encoding: 21 2979 18
Width: 1260
VWidth: 0
Flags: HW
LayerCount: 3
Back
SplineSet
1026 484 m 1
 1026 606 l 1x2fe0
 1262 606 l 1
 1262 483 l 1
 1026 484 l 1
647 156 m 1
 647 299 l 2
 647 602 914 606 986 606 c 1
 986 484 l 1
 891 484 769 487 769 301 c 2
 769 157 l 0
 769 145 767 111 799 111 c 1
 798 -11 l 0
 696 -11 647 71 647 156 c 1
641 483 m 1
 641 605 l 1
 777 605 992 597 992 312 c 2
 992 156 l 0
 992 64 942 -11 838 -11 c 1
 838 111 l 0
 874 111 869 145 869 156 c 0
 869 301 l 2
 869 487 768 482 641 483 c 1
1043 1 m 1x5fe0
 1043 574 l 1
 1165 574 l 1
 1165 1 l 1
 1043 1 l 1x5fe0
262 155 m 1
 262 298 l 2
 262 601 530 605 602 605 c 1
 602 483 l 1
 507 483 384 486 384 300 c 2
 384 156 l 0
 384 144 382 110 414 110 c 1
 413 -12 l 0x8fe0
 311 -12 262 70 262 155 c 1
228 484 m 1
 228 606 l 1xafe0
 370 606 607 596 607 311 c 2
 607 155 l 0
 607 63 557 -12 453 -12 c 1
 453 110 l 0
 489 110 485 144 485 155 c 0
 485 300 l 2
 485 486 361 483 228 484 c 1
-121 154 m 1
 -121 69 -72 -13 30 -13 c 0
 31 109 l 1
 -1 109 1 143 1 155 c 0
 1 300 l 2
 1 493 98 484 189 484 c 1
 189 606 l 1
 108 606 -121 613 -121 300 c 2
 -121 154 l 1
49 352 m 1
 46 386 77 441 134 446 c 1
 201 446 224 388 224 300 c 2
 224 154 l 0
 224 62 174 -13 70 -13 c 1
 70 110 l 0
 106 110 102 143 102 154 c 0
 102 300 l 2
 102 352 70 352 49 352 c 1
EndSplineSet
Fore
SplineSet
384 157 m 1
 384 288 l 2
 384 584 618.198242188 605.95703125 675 605 c 1
 675 565 l 1
 524.228515625 565 424 477 424 290 c 2
 424 158 l 0
 424 77 451.23828125 29 489 29 c 1
 489 -11 l 0x8fe0
 419.482421875 -11 384 72 384 157 c 1
347 566 m 1
 347 606 l 1xafe0
 407.158203125 606 647 594 647 301 c 2
 647 157 l 0
 647 65 613.428710938 -11 542 -11 c 1
 542 29 l 0
 583.30859375 29 607 75 607 157 c 0
 607 306 l 2
 607 440 546.41015625 566 347 566 c 1
40 156 m 1
 40 71 74.0966796875 -12 143 -12 c 0
 143 28 l 1
 114.384765625 28 80.404296875 62 81 157 c 0
 80 290 l 2
 79.3486328125 402.994140625 114.247070312 565 293 566 c 1
 293 606 l 1
 218.38671875 605.95703125 40 569.7265625 40 290 c 2
 40 156 l 1
173 400 m 1
 170 413 193 429 212 429 c 1
 281 429 302 370 302 292 c 2
 302 156 l 0
 302 60 266.020507812 -12 199 -12 c 1
 199 28 l 0
 231.094726562 28 262 62 262 156 c 0
 262 292 l 2
 262 348 260 400 173 400 c 1
728 157 m 1
 728 287 l 2
 728 587 965.533203125 606.95703125 1019 606 c 1
 1019 566 l 1
 874.588867188 566 768 479 768 289 c 2
 768 158 l 0
 768 72 799.0859375 30 832 30 c 1
 832 -10 l 0x8fe0
 763.862304688 -10 728 72 728 157 c 1
729 565 m 1
 729 605 l 1xafe0
 787.052734375 605 991 593 991 300 c 2
 991 157 l 0
 991 65 952.1640625 -10 886 -10 c 1
 886 30 l 0
 922.791992188 30 951 78 951 157 c 0
 951 305 l 2
 951 415 920.959960938 564 729 565 c 1
1074 566 m 1
 1074 606 l 1x2fe0
 1220 606 l 1
 1220 566 l 1
 1074 566 l 1
1083 1 m 1x5fe0
 1083 575 l 1
 1123 575 l 1
 1123 1 l 1
 1083 1 l 1x5fe0
EndSplineSet
EndChar

StartChar: tml_Ma
Encoding: 26 2990 19
Width: 601
VWidth: 0
Flags: HW
HStem: 0 123<123 205 327 367 421 459> 107 17<1 123> 122 1<205 327> 483 122<333 367 421 457>
VStem: 1 122<123 595> 205 122<122 480> 465 123<130 478>
LayerCount: 3
Back
SplineSet
421 0 m 0
 421 123 l 1x9e
 461 123 464 157 464 179 c 2
 464 434 l 0
 464 457 462 483 421 483 c 1
 421 605 l 1
 509 605 586 564 586 434 c 0
 586 197 l 0
 586 51 502 0 421 0 c 0
205 122 m 0x3e
 205 434 l 0
 204 571 286 605 367 605 c 1
 367 483 l 17
 333 483 327 459 327 434 c 2
 327 122 l 1
 205 122 l 0x3e
1 107 m 1x5e
 1 595 l 1
 123 595 l 1
 123 107 l 1
 1 107 l 1x5e
1 0 m 1x9e
 1 123 l 1x5e
 367 123 l 1
 367 0 l 1x9e
 1 0 l 1x9e
EndSplineSet
Fore
SplineSet
418 0 m 0
 418 40 l 1x9e
 500.32 40 502 165 502 196 c 2
 502 434 l 0
 502 442 507.88 565 418 565 c 1
 418 605 l 1
 476.457142857 605 542 569 542 434 c 0
 542 197 l 0
 542 48 481.771428571 0 418 0 c 0
246 39 m 0x3e
 246 434 l 0
 245.138686131 567 308.01459854 605 364 605 c 1
 364 565 l 17
 280.371134021 565 286 443 286 434 c 2
 286 39 l 1
 246 39 l 0x3e
40 24 m 1x5e
 40 595 l 1
 80 595 l 1
 80 24 l 1
 40 24 l 1x5e
40 0 m 1x9e
 40 40 l 1x5e
 364 40 l 1
 364 0 l 1x9e
 40 0 l 1x9e
EndSplineSet
EndChar

StartChar: tml_Llla
Encoding: 32 2996 20
Width: 601
VWidth: 0
Flags: HW
HStem: -145 123<330 521> 0 123<123 205 327 367 421 459> 107 17<1 123> 122 1<205 327> 483 122<333 367 421 457>
VStem: 1 122<123 595> 205 122<122 480> 465 123<130 478>
LayerCount: 3
Back
SplineSet
53 -67 m 1
 53 -191 183 -260 327 -165 c 1
 281 -160 235 -119 231 -87 c 1
 213 -103 176 -91 175 -67 c 1x8f
 53 -67 l 1
243 1 m 1
 365 1 l 1
 365 -29 401 -22 559 -22 c 1
 559 -146 l 0
 429 -145 l 1
 265 -146 243 -60 243 1 c 1
EndSplineSet
Refer: 19 2990 N 1 0 0 1 0 0 2
Fore
SplineSet
87.0859375 -67 m 1
 87.0859375 -191 202.852539062 -260 331.0859375 -165 c 1
 312.0859375 -163 289.171875 -153 283.0859375 -148 c 1
 245.34375 -189 127.0859375 -185 127.0859375 -67 c 1x8f
 87.0859375 -67 l 1
247.0859375 1 m 1
 287.0859375 1 l 1
 287.0859375 -112 378.0859375 -106 485.0859375 -106 c 1
 485.0859375 -146 l 0
 433.0859375 -145 l 1
 269.0859375 -146 247.0859375 -60 247.0859375 1 c 1
EndSplineSet
Refer: 19 2990 N 1 0 0 1 1.08594 1.45313 2
EndChar

StartChar: tml_Aa
Encoding: 4 2950 21
Width: 1221
VWidth: 0
Flags: HW
HStem: -293 122<578 1065> -127 122<207 390 445 662> 205 119<211 253 341 341 498 681 762 855> 373 122<377 455> 562 122<384 638>
VStem: 39 122<17 192> 225 116<205 466> 498 110<217 324> 681 122<33 205 378 490> 762 41<205 324> 853 122<-107 205 324 578> 853 3<205 324> 1073 122<-159 65>
LayerCount: 3
Back
SplineSet
683 -136 m 1
 1007 -135 l 2
 1069 -135 1073 -115 1073 -66 c 0
 1073 21 l 2
 1073 67 1070 68 1028 68 c 0
 1028 190 l 1
 1119 190 1195 168 1195 21 c 0
 1195 -66 l 0
 1195 -174 1154 -258 980 -258 c 0
 683 -258 l 1
 683 -136 l 1
EndSplineSet
Refer: 5 2949 N 1 0 0 1 0 0 2
Fore
SplineSet
683 -178 m 5
 953 -177 l 6
 1035.99894118 -176.730522918 1117 -155 1117 -30 c 4
 1117 21 l 2
 1117 127 1075 151 990 151 c 0
 990 190 l 1
 1081 190 1157 168 1157 21 c 0
 1157 -26 l 4
 1157 -126 1119 -218 946 -218 c 4
 683 -218 l 5
 683 -178 l 5
EndSplineSet
Refer: 5 2949 N 1 0 0 1 0 0 2
EndChar

StartChar: tml_I
Encoding: 5 2951 22
Width: 1143
VWidth: 0
Flags: HW
HStem: -141 119<194 299 549 760> 35 121<463 494 548 577> 131 11<207 306> 136 122<210 277 306 342 343 431 659 784 906 960> 141 90<182 218> 279 122<505 578> 424 121<535 711> 583 123<501 738>
VStem: 39 121<9 122> 342 89<130 255> 659 54<136 258> 784 122<-0 136 309 360> 944 122<309 406> 981 123<5 115>
LayerCount: 3
Back
SplineSet
222 117 m 1x8ff8
 115 509 265 803 614 803 c 0
 908 803 1083 636 1075 244 c 1
 953 244 l 1
 961 542 867 680 618 680 c 0
 315 680 244 421 351 131 c 1
 222 117 l 1x8ff8
229 104 m 1x8ff0
 365 104 l 1xa7f0
 387 54 425 -14 494 -56 c 1
 374 -119 l 0
 312 -54 265 16 229 104 c 1x8ff0
873 -169 m 1
 930 -49 l 1
 976 -37 981 -2 981 29 c 0
 981 75 945 99 906 99 c 1
 906 221 l 1x97f4
 1045 221 1104 140 1104 36 c 2
 1104 2 l 1
 1104 -74 1025 -188 873 -169 c 1
365 436 m 0
 365 556 467 645 622 645 c 0
 802 645 907 534 907 342 c 9x9f80
 907 211 l 1
 785 211 l 1
 785 346 l 0
 785 452 744 522 622 522 c 0
 532 522 487 482 487 436 c 0
 487 390 517 360 557 360 c 0
 602 360 642 382 642 447 c 0
 726 358 l 0
 721 295 647 238 557 238 c 0
 467 238 365 302 365 436 c 0
548 100 m 1
 548 219 l 1xbf80
 630 219 825 219 907 219 c 1xbf40
 908 17 l 1
 908 -85 838 -178 712 -178 c 0
 550 -178 l 0
 550 -56 l 17
 700 -56 l 0
 766 -55 785 -17 785 17 c 1
 785 100 l 1
 744 100 589 100 548 100 c 1
37 21 m 0
 37 137 121 221 251 221 c 2
 493 221 l 1
 493 99 l 1
 233 99 l 0
 209 99 159 78 159 21 c 0
 159 -32 205 -56 251 -56 c 0
 494 -56 l 1
 494 -178 l 1
 240 -178 l 0
 128 -178 37 -98 37 21 c 0
EndSplineSet
Fore
SplineSet
405 435 m 0
 405 555 491.521400778 644 623 644 c 0
 775.842105263 644 865 549 865 342 c 9x9f80
 865 173 l 1
 825 173 l 1
 825 345 l 0
 825 547 735.130612245 604 623 604 c 0
 513.903225806 604 445 530 445 435 c 0
 445 340 510 278 596 278 c 0
 667 278 733 324 733 392 c 0
 765 358 l 0
 760 295 685 238 596 238 c 0
 506 238 405 301 405 435 c 0
588 141 m 1
 588 181 l 1xbf80
 651.270194986 181 801.729805014 181 865 181 c 1xbf40
 866 16 l 1
 866 -86 808.61928934 -178 709 -178 c 0
 590 -178 l 0
 590 -138 l 17
 710 -138 l 0
 773.806451613 -137 825 -80 825 18 c 1
 825 141 l 1
 794.539184953 141 618.460815047 141 588 141 c 1
77 21 m 0
 77 137 161 182 291 182 c 2
 533 182 l 1
 533 140 l 1
 273 140 l 0
 249 140 117 144.5 117 21 c 0
 117 -99.015625 218 -138 278 -138 c 0
 534 -138 l 1
 534 -178 l 1
 280 -178 l 0
 168 -178 77 -98 77 21 c 0
255 142 m 1x8ff8
 169.285714286 504 300.112781955 803 615 803 c 0
 881.577006508 803 1040.2537961 636 1033 244 c 1
 993 244 l 1
 1000.17703349 563 893.418660287 763 618 763 c 0
 299.219101124 763 221.75 439 301 146 c 1
 255 142 l 1x8ff8
250.375 160 m 1x8ff0
 297.375 160 l 1xa7f0
 320.0859375 44 409 -95 527 -146.06640625 c 1
 487 -170.06640625 l 0
 380 -122 283 28 250.375 160 c 1x8ff0
831 -169 m 1
 850 -130 l 1
 913 -138 1022 -99 1022 29 c 0
 1022 83 1000 141 865 141 c 1
 865 181 l 1x97f4
 1004 181 1062 120 1062 36 c 2
 1062 2 l 1
 1062 -66 988 -188 831 -169 c 1
EndSplineSet
EndChar

StartChar: tml_Ka
Encoding: 15 2965 23
Width: 818
VWidth: 0
Flags: HW
HStem: -11 123<186 277 331 401> 2 124<571 655> 249 122<181 229 295 655> 348 23<173 295> 470 125<296 335 389 428 550 682> 470 71<428 550>
VStem: 48 121<128 244> 173 162<470 595> 173 122<348 470> 428 122<137 541> 664 122<135 241>
LayerCount: 3
Back
SplineSet
331 -11 m 9x8660
 331 112 l 1
 397 112 428 141 428 187 c 0
 428 541 l 1
 550 541 l 1
 550 191 l 2
 550 95 498 -11 331 -11 c 9x8660
173 348 m 17x12e0
 173 539 l 1x1360
 296 539 l 1
 295 348 l 1
 173 348 l 17x12e0
389 470 m 1
 389 595 l 1x0a60
 682 595 l 1
 682 470 l 1
 389 470 l 1
173 470 m 1x0760
 173 595 l 1x0b60
 335 595 l 1
 335 470 l 1x0b60
 173 470 l 1x0760
48 157 m 0
 48 240 l 0
 48 347 140 371 226 371 c 0
 603 371 l 0
 709 371 786 350 786 236 c 2
 786 156 l 0
 786 60 703 2 569 2 c 1
 571 126 l 0
 647 126 664 129 664 185 c 0
 664 239 652 249 611 249 c 2
 229 249 l 2x6260
 181 249 169 239 169 188 c 0
 169 127 188 112 277 112 c 1
 277 -11 l 1xa260
 120 -11 48 68 48 157 c 0
EndSplineSet
Fore
SplineSet
331 -11 m 9x8660
 331 29 l 1
 406.324022346 29 470 75 470 191 c 0
 470 563 l 1
 510 563 l 1
 510 191 l 2
 510 95 467.497716895 -11 331 -11 c 9x8660
213 348 m 17x12e0
 213 561 l 1x1360
 254 561 l 1
 253 348 l 1
 213 348 l 17x12e0
389 555 m 1
 389 595 l 1x0a60
 642 595 l 1
 642 555 l 1
 389 555 l 1
213 555 m 1x0760
 213 595 l 1x0b60
 335 595 l 1
 335 555 l 1x0b60
 213 555 l 1x0760
88 178 m 0
 88 212 l 0
 88 364 202 371 240 371 c 0
 581 371 l 0
 687 371 746 329 746 206 c 2
 746 177 l 0
 746 52 664 2 530 2 c 1
 530 42 l 0
 623 42 706 62 706 177 c 0
 706 311 674 331 569 331 c 2
 243 331 l 2x6260
 143 331 128 272 128 188 c 0
 128 84 190.28042328 29 277 29 c 1
 277 -11 l 1xa260
 151.550218341 -11 88 80 88 178 c 0
EndSplineSet
EndChar

StartChar: tml_Ca
Encoding: 17 2970 24
Width: 650
VWidth: 0
Flags: HW
HStem: -1 123<134 231 284 360> 249 122<136 200 248 605> 348 23<126 248> 470 125<249 289 343 650> 470 118<381 503>
VStem: 1 121<133 241> 126 163<470 595> 126 122<371 470> 381 122<142 588>
LayerCount: 3
Back
SplineSet
1 157 m 0
 1 218 l 0
 1 326 111 371 197 371 c 0
 605 371 l 9xc480
 605 249 l 1
 200 249 l 2
 136 249 122 239 122 188 c 0
 122 127 142 122 231 122 c 1
 231 -1 l 1
 74 0 1 68 1 157 c 0
284 -1 m 9
 284 122 l 1
 350 122 381 141 381 187 c 0
 381 588 l 1
 503 588 l 1x8c80
 503 191 l 2
 503 95 451 -1 284 -1 c 9
126 348 m 17xa580
 126 586 l 1xa680
 249 586 l 1
 248 348 l 1
 126 348 l 17xa580
343 470 m 1
 343 595 l 1x9480
 650 595 l 1
 650 470 l 1
 343 470 l 1
126 470 m 1x8e80
 126 595 l 1x9680
 289 595 l 1
 289 470 l 1x9680
 126 470 l 1x8e80
EndSplineSet
Fore
SplineSet
40 172 m 4
 40 196 l 4
 40 259 72 371 246 371 c 4
 565 371 l 13xc480
 565 331 l 5
 239 331 l 6
 184 331 79.9853515625 313 80 188 c 4
 80.0126953125 58 167.631835938 39 230 39 c 5
 230 -1 l 5
 56.521484375 0 40 128 40 172 c 4
283 -1 m 5
 283 39 l 5
 377.63671875 39 422.631835938 98 423 187 c 4
 423 588 l 5
 463 588 l 5x8c80
 463 191 l 6
 463 95 420.260742188 -1 283 -1 c 5
165 348 m 21xa580
 165 586 l 5xa680
 206 586 l 5
 205 348 l 5
 165 348 l 21xa580
342 555 m 5
 342 595 l 5x9480
 610 595 l 5
 610 555 l 5
 342 555 l 5
165 555 m 5x8e80
 165 595 l 5x9680
 288 595 l 5
 288 555 l 5x9680
 165 555 l 5x8e80
EndSplineSet
EndChar

StartChar: tml_Ta
Encoding: 22 2980 25
Width: 695
VWidth: 0
Flags: HW
HStem: -158 122<232 560> 2 123<132 230 283 359> 251 123<143 199 525 567> 351 23<125 196>
VStem: 0 123<135 165 205 242> 91 128<-256 -169> 572 122<-28 151>
LayerCount: 3
Back
SplineSet
91 -256 m 1
 91 -107 154 -36 290 -36 c 2
 520 -36 l 0
 569 -36 571 -6 571 24 c 0
 572 151 l 1
 694 151 l 1xc6
 694 24 l 0
 694 -42 674 -158 521 -158 c 0
 273 -158 l 2
 232 -158 219 -180 219 -256 c 1
 91 -256 l 1
0 165 m 9xca
 123 165 l 17
 130 128 157 125 230 125 c 1
 230 2 l 1
 70 2 0 72 0 165 c 9xca
0 205 m 9
 121 205 l 17
 121 245 142 252 199 252 c 2
 537 251 l 1
 579 251 572 205 572 205 c 6
 694 205 l 5
 694 352 616 374 525 374 c 1xea
 196 374 l 2
 99 374 0 325 0 205 c 9
283 2 m 17
 450 2 502 98 502 194 c 2
 502 591 l 1
 380 591 l 1
 380 190 l 0
 380 144 349 125 283 125 c 1
 283 2 l 17
125 351 m 9xd2
 247 351 l 1
 248 589 l 1
 125 589 l 1
 125 351 l 9xd2
341 473 m 1
 634 473 l 1
 634 595 l 1
 341 595 l 1
 341 473 l 1
125 473 m 1
 287 473 l 1
 287 595 l 1
 125 595 l 1
 125 473 l 1
EndSplineSet
Fore
SplineSet
131 -256 m 1
 131 -112.260742188 179.555664062 -85 245 -85 c 2
 481 -85 l 0
 608 -85 614 8 615 59 c 0
 615 151 l 1
 655 151 l 1xc6
 655 57 l 0
 655 -9 635 -125 482 -125 c 0
 237 -125 l 2
 191.900390625 -125 171 -154.408203125 171 -256 c 1
 131 -256 l 1
40 165 m 9xca
 80 165 l 17
 85.5634765625 54 174.573242188 42 231 42 c 1
 231 2 l 1
 98.130859375 2 40 72 40 165 c 9xca
40 205 m 9
 78 205 l 17
 78 309 181.000976562 334.127929688 226 334 c 2
 498 333 l 2
 542.784179688 332.872070312 615 335 615 207 c 2
 615 205 l 0
 655 205 l 1
 655 352 576 374 486 374 c 1xea
 236 374 l 2
 139 374 40 325 40 205 c 9
284 2 m 17
 420.498046875 2 463 98 463 194 c 2
 463 591 l 1
 423 591 l 1
 423 190 l 0
 423 89 370.971679688 42 284 42 c 1
 284 2 l 17
165 351 m 9xd2
 205 351 l 1
 206 589 l 1
 165 589 l 1
 165 351 l 9xd2
342 555 m 1
 595 555 l 1
 595 595 l 1
 342 595 l 1
 342 555 l 1
165 555 m 1
 288 555 l 1
 288 595 l 1
 165 595 l 1
 165 555 l 1
EndSplineSet
EndChar

StartChar: tml_Four
Encoding: 56 3050 26
Width: 908
VWidth: 0
Flags: HW
LayerCount: 3
Back
SplineSet
742 249 m 17xa580
 742 487 l 1xa680
 865 487 l 1
 864 249 l 1
 742 249 l 17xa580
39 157 m 0
 39 218 l 0
 39 326 149 371 235 371 c 0
 856 371 l 9xc480
 856 249 l 1
 238 249 l 2
 174 249 160 239 160 188 c 0
 160 127 180 122 269 122 c 1
 269 -1 l 1
 112 0 39 68 39 157 c 0
322 -1 m 9
 322 122 l 1
 388 122 419 141 419 187 c 0
 419 588 l 1
 541 588 l 1x8c80
 541 191 l 2
 541 95 489 -1 322 -1 c 9
164 348 m 17xa580
 164 586 l 1xa680
 287 586 l 1
 286 348 l 1
 164 348 l 17xa580
381 470 m 1
 381 595 l 1x9480
 688 595 l 1
 688 470 l 1
 381 470 l 1
164 470 m 1x8e80
 164 595 l 1x9680
 327 595 l 1
 327 470 l 1x9680
 164 470 l 1x8e80
EndSplineSet
Fore
SplineSet
741 331 m 21xa580
 741 487 l 5xa680
 782 487 l 5
 781 331 l 5
 741 331 l 21xa580
444 331 m 5
 444 371 l 5x9480
 751 371 l 5
 751 331 l 5
 444 331 l 5
EndSplineSet
Refer: 24 2970 N 1 0 0 1 0 0 2
EndChar

StartChar: tml_Five
Encoding: 57 3051 27
Width: 0
VWidth: 0
Flags: HW
LayerCount: 3
Back
SplineSet
542 473 m 1
 812 473 l 1
 812 595 l 1
 542 595 l 1xd9
 542 473 l 1
542 -55 m 13
 542 -177 l 5
 730 -178 l 4
 856 -178 917 -82 917 -15 c 4
 917 221 l 2
 917 339 815 366 754 372 c 1
 754 251 l 1
 775 251 795 237 795 187 c 0
 795 38 l 4
 795 -5 798 -55 729 -55 c 4
 542 -55 l 13
39 30 m 4
 39 -109 124 -176 233 -176 c 4
 487 -177 l 5
 487 -55 l 21
 249 -55 l 4
 185 -55 162 -35 162 29 c 4
 162 287 l 0
 162 323 165 379 239 379 c 0
 238 501 l 0xe9
 153 501 39 455 39 292 c 0
 39 30 l 4
575 1 m 1
 698 1 l 1
 700 591 l 1
 575 591 l 1
 575 1 l 1
294 1 m 17xdb
 294 595 l 1xdd
 416 595 l 1
 416 1 l 1
 294 1 l 17xdb
296 473 m 1
 296 595 l 1
 488 595 l 1
 488 473 l 1
 296 473 l 1
EndSplineSet
Fore
Refer: 56 -1 N 1 0 0 1 0 0 2
EndChar

StartChar: tml_Six
Encoding: 58 3052 28
Width: 1037
VWidth: 0
Flags: HW
LayerCount: 3
Back
SplineSet
860 2 m 17xa580
 860 257 l 1xa680
 983 257 l 1
 982 2 l 1
 860 2 l 17xa580
655 2 m 17xa580
 655 257 l 1xa680
 778 257 l 1
 777 2 l 1
 655 2 l 17xa580
39 157 m 0
 39 218 l 0
 39 326 149 371 235 371 c 0
 1039 371 l 9xc480
 1039 249 l 1
 238 249 l 2
 174 249 160 239 160 188 c 0
 160 127 180 122 269 122 c 1
 269 -1 l 1
 112 0 39 68 39 157 c 0
322 -1 m 9
 322 122 l 1
 388 122 419 141 419 187 c 0
 419 588 l 1
 541 588 l 1x8c80
 541 191 l 2
 541 95 489 -1 322 -1 c 9
164 348 m 17xa580
 164 586 l 1xa680
 287 586 l 1
 286 348 l 1
 164 348 l 17xa580
381 470 m 1
 381 595 l 1x9480
 688 595 l 1
 688 470 l 1
 381 470 l 1
164 470 m 1x8e80
 164 595 l 1x9680
 327 595 l 1
 327 470 l 1x9680
 164 470 l 1x8e80
EndSplineSet
Fore
SplineSet
900 2 m 17xa580
 900 342 l 1xa680
 941 342 l 1
 940 2 l 1
 900 2 l 17xa580
695 2 m 17xa580
 695 342 l 1xa680
 736 342 l 1
 735 2 l 1
 695 2 l 17xa580
428 331 m 1
 428 371 l 1x9480
 997 371 l 1
 997 331 l 1
 428 331 l 1
EndSplineSet
Refer: 24 2970 N 1 0 0 1 0 0 2
EndChar

StartChar: tml_Seven
Encoding: 59 3053 29
Width: 666
VWidth: 0
Flags: HW
LayerCount: 3
Back
SplineSet
266 1 m 1xc180
 266 123 l 0
 300 123 319 146 318 182 c 0
 317 216 306 238 266 238 c 1
 266 360 l 0
 365 360 440 281 440 220 c 0
 440 148 l 0
 440 86 365 1 266 1 c 1xc180
40 149 m 0
 40 221 l 0xc380
 39 325 161 360 211 360 c 1xc980
 211 238 l 0xc980
 182 238 164 218 164 182 c 0xc380
 164 145 181 123 211 123 c 1
 211 1 l 0xc980
 109 1 40 96 40 149 c 0
360 472 m 1
 360 595 l 1
 708 595 l 1xe180
 708 472 l 1
 360 472 l 1
485 0 m 1
 485 577 l 1xd180
 607 577 l 1
 607 0 l 1
 485 0 l 1
266 1 m 1
 266 123 l 0
 300 123 319 146 318 182 c 0
 317 216 306 238 266 238 c 1
 266 360 l 0
 365 360 440 281 440 220 c 0
 440 148 l 0
 440 86 365 1 266 1 c 1
40 228 m 1xe380
 40 281 l 2
 40 396 102 595 305 595 c 1xe980
 305 472 l 1
 218 472 178 406 171 329 c 0xe580
 166 272 46 258 40 228 c 1xe380
40 149 m 0
 40 221 l 0xc380
 39 325 161 360 211 360 c 1xc980
 211 238 l 0xc980
 182 238 164 218 164 182 c 0xc380
 164 145 181 123 211 123 c 1
 211 1 l 0xc980
 109 1 40 96 40 149 c 0
EndSplineSet
Fore
Refer: 4 2958 N 1 0 0 1 1 0 2
EndChar

StartChar: tml_Eight
Encoding: 60 3054 30
Width: 937
VWidth: 0
Flags: HW
LayerCount: 3
Back
SplineSet
291 486 m 0
 291 632 370 734 527 734 c 0
 687 734 765 638 765 486 c 9x9f80
 765 264 l 5
 643 264 l 5
 643 486 l 0
 643 563 605 612 527 612 c 0
 448 612 413 562 413 486 c 0
 413 382 587 290 646 228 c 1
 492 228 l 1
 433 264 291 338 291 486 c 0
345 150 m 1
 345 270 l 1xbf80
 427 270 683 270 765 270 c 1xbf40
 766 67 l 1
 766 -35 695 -127 569 -127 c 0
 347 -127 l 0
 347 -5 l 17
 558 -5 l 0
 624 -4 643 33 643 67 c 1
 643 150 l 1
 602 150 386 150 345 150 c 1
1 72 m 0
 1 188 85 271 215 271 c 2
 290 271 l 1
 290 149 l 1
 197 149 l 0
 173 149 123 129 123 72 c 0
 123 19 169 -5 215 -5 c 0
 291 -5 l 1
 291 -127 l 1
 204 -127 l 0
 92 -127 1 -47 1 72 c 0
724 150 m 1
 724 270 l 1
 817 270 l 1
 817 150 l 1xbf50
 724 150 l 1
815 -107 m 1
 815 578 l 1x9f20
 937 578 l 1
 937 -107 l 1
 815 -107 l 1
EndSplineSet
Fore
SplineSet
495 226 m 0
 420.146484375 279 330 352 330 486 c 0
 330 606 378.169921875 734.2890625 526 734.2890625 c 0
 684.865234375 734.2890625 725 621 725 429 c 1x9f80
 725 224 l 1
 685 224 l 1
 685 432 l 0
 685 619 640.833007812 694.2890625 526 694.2890625 c 0
 420.142578125 694.2890625 370.104492188 607 370 486 c 0
 369.874023438 347 519.89453125 270.666015625 576 226 c 0
 495 226 l 0
384 192 m 1
 384 232 l 1xbf80
 450.576171875 232 658.423828125 232 725 232 c 1xbf40
 726 67 l 1
 726 -35 654.365234375 -127 530 -127 c 0
 386 -127 l 0
 386 -87 l 17
 530 -87 l 0
 616 -86 685 -29 685 69 c 1
 685 192 l 1
 652.5234375 192 416.4765625 192 384 192 c 1
40 72 m 0
 40 188 124 233 254 233 c 2
 329 233 l 1
 329 191 l 1
 236 191 l 0
 212 191 80 195.5 80 72 c 0
 80 -48.015625 181 -87 241 -87 c 0
 330 -87 l 1
 330 -127 l 1
 243 -127 l 0
 131 -127 40 -47 40 72 c 0
684 192 m 1
 684 232 l 1
 859 232 l 1
 859 192 l 1xbf50
 684 192 l 1
857 -107 m 1
 857 578 l 1x9f20
 897 578 l 1
 897 -107 l 1
 857 -107 l 1
EndSplineSet
EndChar

StartChar: tml_Nine
Encoding: 61 3055 31
Width: 977
VWidth: 0
Flags: HW
LayerCount: 3
Back
SplineSet
555 249 m 1
 555 371 l 1
 731 371 l 2
 842 371 938 348 938 215 c 0
 938 205 l 0
 938 101 850 50 795 50 c 0
 767 50 l 0
 698 50 626 120 626 205 c 1
 748 205 l 0
 748 185 760 172 782 172 c 0
 805 172 816 186 816 204 c 0
 816 242 784 249 728 249 c 2
 555 249 l 1
39 157 m 0
 39 218 l 0
 39 326 149 371 235 371 c 0
 643 371 l 9xc480
 643 249 l 1
 238 249 l 2
 174 249 160 239 160 188 c 0
 160 127 180 122 269 122 c 1
 269 -1 l 1
 112 0 39 68 39 157 c 0
322 -1 m 9
 322 122 l 1
 388 122 419 141 419 187 c 0
 419 588 l 1
 541 588 l 1x8c80
 541 191 l 2
 541 95 489 -1 322 -1 c 9
164 348 m 17xa580
 164 586 l 1xa680
 287 586 l 1
 286 348 l 1
 164 348 l 17xa580
381 470 m 1
 381 595 l 1x9480
 688 595 l 1
 688 470 l 1
 381 470 l 1
164 470 m 1x8e80
 164 595 l 1x9680
 327 595 l 1
 327 470 l 1x9680
 164 470 l 1x8e80
EndSplineSet
Fore
SplineSet
512 331 m 5
 512 371 l 5
 688 371 l 6
 799 371 895 336 895 215 c 4
 895 200 l 4
 895 100 806 50 751 50 c 4
 737 50 l 4
 647 50 583 120 583 205 c 5
 623 205 l 4
 623 107 712 90 743.1328125 90 c 4
 766.1328125 90 855 108 855 204 c 4
 855 339 741 331 685 331 c 6
 512 331 l 5
EndSplineSet
Refer: 24 2970 N 1 0 0 1 0 0 2
EndChar

StartChar: tml_Ten
Encoding: 62 3056 32
Width: 630
VWidth: 0
Flags: HW
LayerCount: 3
Back
SplineSet
406 729 m 1
 529 729 l 1
 630 595 l 1
 508 595 l 1
 406 729 l 1
469 0 m 257
 469 119 l 257xf0
 493 119 508 130 508 145 c 258xe8
 508 595 l 257
 630 595 l 257xe8
 630 145 l 2
 629 97 599 0 469 0 c 257
1 146 m 262
 1 595 l 261
 123 595 l 261
 123 146 l 262
 123 132 129 119 155 119 c 261
 155 0 l 261
 55 0 1 68 1 146 c 262
209 0 m 261
 209 119 l 261
 233 119 254 126 254 145 c 262
 254 595 l 261
 375 595 l 261
 375 145 l 262
 375 132 386 119 415 119 c 261
 415 0 l 261
 360 0 334 0 313 33 c 261
 289 0 258 0 209 0 c 261
EndSplineSet
Fore
SplineSet
440 729 m 1
 489 729 l 1
 590 595 l 1
 550 580 l 1
 440 729 l 1
469 0 m 257
 469 40 l 257xf0
 525.231445312 40 550 92 550 155 c 256xe8
 550 595 l 257
 590 595 l 257xe8
 590 145 l 2
 590 97 566.702148438 0 469 0 c 257
40 146 m 258
 40 595 l 257
 80 595 l 257
 80 146 l 258
 80 53 135.920898438 40 155 40 c 257
 155 0 l 257
 97.32421875 0 40 51 40 146 c 258
209 0 m 257
 209 40 l 257
 234 40 294 36.873046875 294 151 c 258
 294 595 l 257
 334 595 l 257
 334 151 l 258
 334 37.3095703125 392 40 415 40 c 257
 415 0 l 257
 382 0 345 0 313 42 c 257
 279 0 249 0 209 0 c 257
EndSplineSet
EndChar

StartChar: tml_Hundred
Encoding: 63 3057 33
Width: 765
VWidth: 0
Flags: HW
LayerCount: 3
Back
SplineSet
542 0 m 1
 542 511 l 9
 664 511 l 258
 664 0 l 0xf6
 542 0 l 1
459 483 m 1
 459 606 l 1
 767 606 l 1
 767 483 l 1
 459 483 l 1
0 0 m 257
 0 479 l 0xee
 0 529 40 606 152 606 c 257
 152 483 l 257
 127 483 121 471 121 458 c 258
 124 0 l 257
 0 0 l 257
206 483 m 257
 206 606 l 257
 252 606 282 597 306 576 c 257
 334 599 366 606 405 606 c 257
 405 484 l 257
 387 484 366 481 366 459 c 258
 368 0 l 257
 246 0 l 257
 243 458 l 258
 243 472 232 483 206 483 c 257
EndSplineSet
Fore
SplineSet
582 0 m 1
 582 570 l 1
 622 570 l 258
 622 0 l 0xf6
 582 0 l 1
459 566 m 1
 459 606 l 1
 725 606 l 1
 725 566 l 1
 459 566 l 1
40 0 m 257
 40 479 l 0xee
 40 551 77.283203125 606 151 606 c 257
 151 566 l 257
 128.061523438 566 78.5107421875 557.036132812 79 478 c 258
 82 0 l 257
 40 0 l 257
206 566 m 257
 206 606 l 257
 252 606 276.545898438 597 306 566 c 257
 334 606.666992188 366 606 405 606 c 257
 405 566 l 257
 358 566 324.702148438 555.000976562 325 483 c 258
 327 0 l 257
 287 0 l 257
 284 482 l 258
 283.637695312 541.002929688 255 566 206 566 c 257
EndSplineSet
EndChar

StartChar: tml_Thousand
Encoding: 64 3058 34
Width: 1058
VWidth: 0
Flags: HW
LayerCount: 3
Back
SplineSet
630 -258 m 1
 723 -258 l 0
 725 -193 734 -178 775 -178 c 0
 860 -178 l 0
 965 -178 1057 -130 1057 16 c 0
 1057 148 966 204 856 204 c 0
 856 111 l 1
 922 111 962 77 962 16 c 0
 962 -46 920 -85 860 -85 c 0
 775 -85 l 2
 665 -85 630 -165 630 -258 c 1
568 69 m 0
 568 128 608 193 694 193 c 1
 694 101 l 0
 674 101 661 83 661 65 c 0
 661 46 679 32 693 32 c 0
 724 32 738 57 738 100 c 2
 738 350 l 1
 830 350 l 1
 830 96 l 2
 830 6 786 -61 694 -61 c 0
 616 -61 568 -3 568 69 c 0
39 157 m 0
 39 218 l 0
 39 326 149 371 235 371 c 0
 958 371 l 9xc480
 958 249 l 1
 238 249 l 2
 174 249 160 239 160 188 c 0
 160 127 180 122 269 122 c 1
 269 -1 l 1
 112 0 39 68 39 157 c 0
322 -1 m 9
 322 122 l 1
 388 122 419 141 419 187 c 0
 419 588 l 1
 541 588 l 1x8c80
 541 191 l 2
 541 95 489 -1 322 -1 c 9
164 348 m 17xa580
 164 586 l 1xa680
 287 586 l 1
 286 348 l 1
 164 348 l 17xa580
381 470 m 1
 381 595 l 1x9480
 688 595 l 1
 688 470 l 1
 381 470 l 1
164 470 m 1x8e80
 164 595 l 1x9680
 327 595 l 1
 327 470 l 1x9680
 164 470 l 1x8e80
EndSplineSet
Fore
SplineSet
591 -258 m 1
 631 -258 l 0
 633 -193 641 -178 700 -178 c 0
 821 -178 l 0
 926 -178 1018 -130 1018 16 c 0
 1018 148 927 204 817 204 c 0
 817 164 l 1
 883 164 978 140 978 16 c 0
 978 -121 883 -138 821 -138 c 0
 703 -138 l 2
 625 -138 591 -165 591 -258 c 1
529 69 m 0
 529 128 569 193 655 193 c 1
 655 153 l 0
 629 153 569 139 569 65 c 0
 569 -12 640 -21 654 -21 c 0
 691 -21 751 -7 751 100 c 2
 751 350 l 1
 791 350 l 1
 791 96 l 2
 791 6 747 -61 655 -61 c 0
 577 -61 529 -3 529 69 c 0
500 331 m 1x8e80
 500 371 l 1x9680
 919 371 l 1
 919 331 l 1x9680
 500 331 l 1x8e80
EndSplineSet
Refer: 24 2970 N 1 0 0 1 0 0 2
EndChar

StartChar: tml_Day
Encoding: 65 3059 35
Width: 926
VWidth: 0
Flags: HW
LayerCount: 3
Back
SplineSet
266 0 m 1
 266 122 l 1
 298 123 313 142 313 180 c 0
 313 218 297 237 266 237 c 1
 266 359 l 0
 362 359 435 276 435 224 c 0
 435 152 l 0
 436 89 375 0 266 0 c 1
39 151 m 0
 39 220 l 0
 38 324 161 359 211 359 c 1
 211 237 l 0
 182 237 164 218 164 181 c 0
 164 147 178 122 211 122 c 1
 211 0 l 0
 109 0 39 91 39 151 c 0
39 226 m 1
 39 305 l 1
 39 433 90 605 300 605 c 1
 300 483 l 1
 236 483 177 439 175 354 c 0
 39 226 l 1
351 483 m 1
 428 483 486 423 487 354 c 1
 487 146 l 0
 487 127 461 124 454 123 c 1
 454 0 l 1
 934 0 l 1
 934 123 l 1
 608 123 l 1
 608 355 l 1
 607 466 520 605 351 605 c 1
 351 483 l 1
EndSplineSet
Fore
SplineSet
247 0 m 1
 247 40 l 1
 291.44921875 40 341 88 341 182.6171875 c 0
 341 282 289.263671875 319 247 319 c 1
 247 359 l 0
 320.18359375 359 383 292 383 196 c 0
 383 173 l 0
 383.8046875 75 319.20703125 0 247 0 c 1
40 172 m 0
 40 196 l 0
 40 300 116 359 192 359 c 1
 192 319 l 0
 154.616210938 319 79 295 79 181 c 0
 79 91 141.872070312 40 192 40 c 1
 192 0 l 0
 103.627929688 0 40 88 40 172 c 0
40 204 m 1
 40 302 l 1
 40 468.760742188 125.239257812 605 263 605 c 1
 263 565 l 1
 148.520507812 565 81.6708984375 443.390625 80 306 c 0
 40 204 l 1
314 565 m 1
 431 565 489 473 490 354 c 1
 490 76 l 0
 490 40 484 40 417 40 c 1
 417 0 l 1
 886 0 l 1
 886 40 l 1
 531 40 l 1
 531 355 l 1
 530 466 476 605 314 605 c 1
 314 565 l 1
EndSplineSet
EndChar

StartChar: tml_Month
Encoding: 66 3060 36
Width: 821
VWidth: 0
Flags: HW
LayerCount: 3
Back
SplineSet
403 633 m 0
 403 748 467 814 531 814 c 0
 592 814 632 786 632 719 c 0
 632 672 593 635 539 635 c 0
 480 635 462 690 462 724 c 0
 462 813 525 881 593 881 c 0
 666 881 723 830 723 715 c 0
 820 715 l 0
 820 655 l 0
 666 655 l 1
 672 723 665 821 591 821 c 0
 527 821 513 753 513 727 c 0
 513 684 572 686 572 727 c 0
 572 737 563 753 539 753 c 0
 504 753 463 710 463 633 c 1
 403 633 l 0
459 0 m 0
 459 123 l 1x9e
 499 123 502 157 502 179 c 2
 502 434 l 0
 502 457 500 483 459 483 c 1
 459 605 l 1
 547 605 624 564 624 434 c 0
 624 197 l 0
 624 51 540 0 459 0 c 0
243 122 m 0x3e
 243 434 l 0
 242 571 324 605 405 605 c 1
 405 483 l 17
 371 483 365 459 365 434 c 2
 365 122 l 1
 243 122 l 0x3e
39 107 m 1x5e
 39 595 l 1
 161 595 l 1
 161 107 l 1
 39 107 l 1x5e
39 0 m 1x9e
 39 123 l 1x5e
 405 123 l 1
 405 0 l 1x9e
 39 0 l 1x9e
EndSplineSet
Fore
SplineSet
363 565 m 1
 279.37109375 565 285 443 285 434 c 2
 285 39 l 1
 245 39 l 0x3e
 245 434 l 0
 244.138671875 567 307.014648438 605 363 605 c 1
 417 605 l 1
 475.45703125 605 541 569 541 434 c 0
 541 197 l 0
 541 48 480.771484375 0 417 0 c 0
 417 40 l 1x9e
 499.3203125 40 501 165 501 196 c 2
 501 434 l 0
 501 442 506.879882812 565 417 565 c 1
 363 565 l 1
39 24 m 1x5e
 39 595 l 1
 79 595 l 1
 79 24 l 1
 39 24 l 1x5e
39 0 m 1x9e
 39 40 l 1x5e
 363 40 l 1
 363 0 l 1x9e
 39 0 l 1x9e
371 602 m 0
 371 717 435 781 499 781 c 0
 560 781 599 753 599 686 c 0
 599 639 560 602 506 602 c 0
 447 602 429 657 429 691 c 0
 429 780 492 848 560 848 c 0
 633 848 690 802 690 662 c 0
 788 662 l 0
 788 622 l 0
 649 622 l 1
 655 690 654 808 559 808 c 0
 488 808 469.509765625 720.995117188 469 695 c 0
 467.529296875 620 551.000976562 630 559 686 c 0
 566.571289062 739 497 761.875976562 444 713 c 0
 433 702.856445312 411.224609375 669.415039062 411 602 c 1
 371 602 l 0
EndSplineSet
EndChar

StartChar: tml_Year
Encoding: 67 3061 37
Width: 1689
VWidth: 0
Flags: HW
LayerCount: 3
Back
SplineSet
824 650 m 2
 824 773 l 17
 1432 773 l 2
 1628 773 1599 569 1650 517 c 1
 1524 517 l 1
 1485 572 1516 650 1432 650 c 2
 824 650 l 2
39 9 m 0
 39 -130 124 -198 233 -198 c 0
 771 -198 l 1
 771 -76 l 17
 249 -76 l 0
 185 -76 162 -56 162 8 c 0
 162 558 l 0
 162 594 165 650 239 650 c 1
 771 650 l 1
 771 773 l 1
 238 773 l 1
 153 773 39 725 39 562 c 0
 39 9 l 0
824 -76 m 9
 824 -198 l 1
 1370 -198 l 0
 1496 -198 1557 -103 1557 -36 c 0
 1557 159 l 2
 1557 267 1455 304 1393 310 c 1
 1393 183 l 1xe470
 1415 183 1435 175 1435 125 c 0
 1435 8 l 0
 1435 -35 1438 -76 1369 -76 c 0
 824 -76 l 9
1216 0 m 1xc0
 1338 0 l 1
 1338 593 l 1
 1216 593 l 1
 1216 0 l 1xc0
1164 473 m 1
 1422 473 l 1
 1422 595 l 1
 1164 595 l 1
 1164 473 l 1
932 473 m 1
 932 595 l 1
 1111 595 l 1
 1111 473 l 1
 932 473 l 1
442 0 m 1
 442 122 l 1
 474 123 490 142 490 180 c 0
 490 218 473 237 442 237 c 1
 442 359 l 0
 538 359 611 276 611 224 c 0
 611 152 l 0
 612 89 551 0 442 0 c 1
216 151 m 0
 216 220 l 0
 215 324 338 359 388 359 c 1
 388 237 l 0
 359 237 340 218 340 181 c 0
 340 147 355 122 388 122 c 1
 388 0 l 0
 286 0 216 91 216 151 c 0
216 226 m 1
 216 305 l 1
 216 433 267 605 477 605 c 1
 477 483 l 1
 413 483 354 439 352 354 c 0
 216 226 l 1
528 483 m 1
 605 483 662 423 663 354 c 1
 663 146 l 0
 663 127 638 124 631 123 c 1
 631 0 l 1
 877 0 l 1
 877 123 l 1
 784 123 l 1
 784 355 l 1
 783 466 697 605 528 605 c 1
 528 483 l 1
932 0 m 1
 932 592 l 1
 1054 592 l 1
 1054 0 l 1
 932 0 l 1
EndSplineSet
Fore
SplineSet
423 0 m 1
 423 40 l 1
 467.44921875 40 517 88 517 182.6171875 c 0
 517 282 465.263671875 319 423 319 c 1
 423 359 l 0
 496.18359375 359 559 292 559 196 c 0
 559 173 l 0
 559.8046875 75 495.20703125 0 423 0 c 1
216 172 m 0
 216 196 l 0
 216 300 292 359 368 359 c 1
 368 319 l 0
 330.616210938 319 255 295 255 181 c 0
 255 91 317.872070312 40 368 40 c 1
 368 0 l 0
 279.627929688 0 216 88 216 172 c 0
216 204 m 1
 216 302 l 1
 216 468.760742188 301.239257812 605 439 605 c 1
 439 565 l 1
 324.520507812 565 257.670898438 443.390625 256 306 c 0
 216 204 l 1
490 565 m 1
 607 565 665 473 666 354 c 1
 666 76 l 0
 666 40 660 40 593 40 c 1
 593 0 l 1
 832 0 l 1
 832 40 l 1
 707 40 l 1
 707 355 l 1
 706 466 652 605 490 605 c 1
 490 565 l 1
779 696 m 6
 779 736 l 5
 1236 736 l 2
 1432 736 1403 561.484375 1454 517 c 1
 1412 517 l 1
 1362 562.578703704 1389 696 1238 696 c 2
 779 696 l 6
79 36 m 0
 79 -94.270531401 146.474226804 -158 233 -158 c 0
 726 -158 l 5
 726 -118 l 5
 240 -118 l 0
 174.614906832 -118 119 -77.4457831325 119 35 c 0
 119 558 l 0
 119 654.205714286 171.5 696 239 696 c 1
 726 696 l 5
 726 736 l 5
 238 736 l 1
 170.085427136 736 79 696.417061611 79 562 c 0
 79 36 l 0
779 -118 m 5
 779 -158 l 5
 1252 -158 l 0
 1345.65775401 -158 1391 -90 1391 4 c 0
 1391 115 l 2
 1391 223 1312.63414634 260 1265 266 c 1
 1265 226 l 1xe470
 1289.94676293 226 1350.76464844 196 1350.76464844 116 c 0
 1350.76464844 1 l 0
 1350.76464844 -85 1308.3885243 -118 1251 -118 c 0
 779 -118 l 5
EndSplineSet
Refer: 9 3006 N 1 0 0 1 804 0 2
EndChar

StartChar: tml_Debit
Encoding: 68 3062 38
Width: 589
VWidth: 0
Flags: HW
LayerCount: 3
Back
SplineSet
216 -164 m 17
 267 -164 262 -126 262 -81 c 2
 262 21 l 1
 262 239 l 9
 384 239 l 258
 384 18 l 2xf6
 384 -81 l 2
 384 -159 380 -258 216 -258 c 1
 216 -164 l 17
0 -126 m 0
 0 -58 63 -28 151 -28 c 0
 506 -28 l 1
 506 381 l 0
 628 381 l 0
 628 -121 l 1
 151 -121 l 2
 111 -121 112 -164 150 -164 c 2
 163 -164 l 9
 163 -258 l 1
 150 -258 l 2
 117 -258 1 -254 0 -159 c 0
 0 -126 l 0
9 146 m 258
 9 595 l 257
 131 595 l 257
 131 146 l 258
 131 132 137 119 163 119 c 257
 163 0 l 257
 63 0 9 68 9 146 c 258
217 0 m 257
 217 119 l 257
 241 119 262 126 262 145 c 258
 262 487 l 257
 384 487 l 257
 384 145 l 258
 384 -10 312 0 217 0 c 257
EndSplineSet
Fore
SplineSet
216 -218 m 1
 275.125 -218 304 -185 304 -103 c 2
 304 21 l 1
 304 239 l 1
 344 239 l 258
 344 18 l 2xf6
 344 -81 l 2
 344 -159 335.619140625 -258 216 -258 c 1
 216 -218 l 1
40 -150 m 0
 40 -98.9130859375 78.2255859375 -56 151 -56 c 0
 509 -56 l 1
 509 381 l 0
 549 381 l 0
 549 -95 l 1
 151 -95 l 2
 56 -95 57 -218 150 -218 c 2
 163 -218 l 1
 163 -258 l 1
 150 -258 l 2
 114.06640625 -258 40.7333984375 -238 40 -156 c 0
 40 -150 l 0
49 146 m 258
 49 595 l 257
 89 595 l 257
 89 146 l 258
 89 65 130.543945312 40 163 40 c 257
 163 0 l 257
 88.9736328125 0 49 68 49 146 c 258
217 0 m 257
 217 40 l 257
 259.244140625 40 304 44.7841796875 304 162 c 258
 304 487 l 257
 344 487 l 257
 344 162 l 258
 344 -14.8310546875 255.245117188 0 217 0 c 257
EndSplineSet
EndChar

StartChar: tml_Credit
Encoding: 69 3063 39
Width: 1026
VWidth: 0
Flags: HW
LayerCount: 3
Back
SplineSet
584 132 m 1
 584 199 l 1
 692 199 l 1
 692 132 l 1
 584 132 l 1
788 0 m 1
 788 68 l 1
 806 68 814 79 814 100 c 0
 814 121 805 132 788 132 c 1
 788 200 l 0
 841 200 881 153 881 124 c 0
 881 85 l 0
 881 50 848 0 788 0 c 1
662 84 m 0
 662 122 l 0
 662 180 729 200 757 200 c 1
 757 132 l 0
 741 132 731 120 731 100 c 0
 731 81 739 68 757 68 c 1
 757 0 l 0
 701 0 662 51 662 84 c 0
662 125 m 1
 662 169 l 1
 662 240 690 336 806 336 c 1
 806 268 l 1
 770 268 738 244 737 197 c 0
 662 125 l 1
835 268 m 1
 878 268 909 235 910 197 c 1
 910 81 l 0
 910 71 896 70 892 69 c 1
 892 1 l 1
 1004 1 l 1
 1004 69 l 1
 977 69 l 1
 977 197 l 1
 976 259 929 336 835 336 c 1
 835 268 l 1
1034 1 m 1
 1034 330 l 1
 1102 330 l 1
 1102 1 l 1
 1034 1 l 1
265 1 m 1xc180
 265 123 l 0
 299 123 318 146 317 182 c 0
 316 216 305 238 265 238 c 1
 265 360 l 0
 364 360 439 281 439 220 c 0
 439 148 l 0
 439 86 364 1 265 1 c 1xc180
39 149 m 0
 39 221 l 0xc380
 38 325 160 360 210 360 c 1xc980
 210 238 l 0xc980
 181 238 163 218 163 182 c 0xc380
 163 145 180 123 210 123 c 1
 210 1 l 0xc980
 108 1 39 96 39 149 c 0
359 472 m 1
 359 595 l 1
 707 595 l 1xe180
 707 472 l 1
 359 472 l 1
484 0 m 1
 484 577 l 1xd180
 606 577 l 1
 606 0 l 1
 484 0 l 1
265 1 m 1
 265 123 l 0
 299 123 318 146 317 182 c 0
 316 216 305 238 265 238 c 1
 265 360 l 0
 364 360 439 281 439 220 c 0
 439 148 l 0
 439 86 364 1 265 1 c 1
39 228 m 1xe380
 39 281 l 2
 39 396 101 595 304 595 c 1xe980
 304 472 l 1
 217 472 177 406 170 329 c 0xe580
 165 272 45 258 39 228 c 1xe380
39 149 m 0
 39 221 l 0xc380
 38 325 160 360 210 360 c 1xc980
 210 238 l 0xc980
 181 238 163 218 163 182 c 0xc380
 163 145 180 123 210 123 c 1
 210 1 l 0xc980
 108 1 39 96 39 149 c 0
EndSplineSet
Fore
SplineSet
521 150 m 1
 521 180 l 1
 622 180 l 1
 622 150 l 1
 521 150 l 1
703 0 m 1
 703 30 l 1
 717.571289062 30 754 41 754 100 c 0
 754 156 716.76171875 170 703 170 c 1
 703 200 l 0
 749.161132812 200 784 153 784 110 c 0
 784 92 l 0
 784 51 755.2578125 0 703 0 c 1
592 84 m 0
 592 122 l 0
 592 180 648.420898438 200 672 200 c 1
 672 170 l 0
 659.692382812 170 622 158 622 100 c 0
 622 43 658.154296875 30 672 30 c 1
 672 0 l 0
 624.841796875 0 592 51 592 84 c 0
592 125 m 1
 592 169 l 1
 592 240 617.083007812 336 721 336 c 1
 721 306 l 1
 688.043945312 306 623.8671875 285 623 176 c 0
 592 125 l 1
750 306 m 1
 817.935546875 306 830.12890625 235 831 197 c 1
 831 43 l 0
 831 33 799 32 795 31 c 1
 795 1 l 1
 927 1 l 1
 927 31 l 1
 861 31 l 1
 861 197 l 1
 860.09765625 259 834.829101562 336 750 336 c 1
 750 306 l 1
957 1 m 1
 957 330 l 1
 986 330 l 1
 986 1 l 1
 957 1 l 1
EndSplineSet
Refer: 4 2958 N 1 0 0 1 0 0 2
EndChar

StartChar: tml_Above
Encoding: 70 3064 40
Width: 1434
VWidth: 0
Flags: HW
LayerCount: 3
Back
SplineSet
168 40 m 1
 168 134 l 0
 248 134 306 59 306 7 c 0
 306 -15 l 0
 306 -82 252 -148 168 -148 c 1xc180
 168 -55 l 0
 188 -55 213 -43 213 -6 c 0
 213 23 192 40 168 40 c 1
-1 7 m 0xc380
 -1 69 64 134 136 134 c 1xc980
 136 40 l 0xc980
 119 40 93 29 93 -6 c 0xc380
 93 -39 118 -55 136 -55 c 1
 136 -148 l 0xc980
 66 -148 -1 -85 -1 -13 c 0
 -1 7 l 0xc380
-1 -5 m 0
 -1 142 l 0
 -1 311 138 359 260 359 c 0
 474 359 l 1xe980
 474 267 l 1
 260 267 l 0
 163 267 93 239 93 141 c 0
 93 -6 l 0xe580
 -1 -5 l 0
529 0 m 1xe780
 529 122 l 1
 561 123 577 142 577 180 c 0
 577 218 560 237 529 237 c 1
 529 359 l 0
 625 359 698 276 698 224 c 0
 698 152 l 0
 699 89 638 0 529 0 c 1xe780
303 151 m 0
 303 220 l 0xef80
 302 324 425 359 475 359 c 1xf780
 475 237 l 0xf780
 446 237 427 218 427 181 c 0xef80
 427 147 442 122 475 122 c 1
 475 0 l 0xf780
 373 0 303 91 303 151 c 0
303 226 m 1xef80
 303 305 l 1
 303 433 354 605 564 605 c 1
 564 483 l 1
 500 483 441 439 439 354 c 0
 303 226 l 1xef80
614 483 m 1
 691 483 748 424 749 354 c 1
 749 146 l 0
 749 127 724 124 717 123 c 1
 717 0 l 1
 1112 0 l 1
 1112 123 l 1
 870 123 l 1
 870 355 l 1
 869 466 783 605 614 605 c 1
 614 483 l 1
1166 485 m 1
 1205 485 1225 486 1225 413 c 2
 1225 158 l 1
 1347 158 l 1
 1347 413 l 2
 1347 561 1269 607 1166 607 c 1
 1166 485 l 1
1225 123 m 1
 1225 -178 l 1
 1347 -178 l 1
 1347 123 l 1
 1225 123 l 1
1166 158 m 1
 1482 158 l 1
 1482 280 l 0
 1166 280 l 9
 1166 158 l 1
932 334 m 2
 932 191 1008 158 1112 158 c 1
 1112 279 l 17
 1068 279 1055 287 1055 340 c 0
 1055 424 l 0
 1055 463 1067 485 1112 485 c 1
 1112 607 l 1
 1008 607 932 570 932 433 c 0
 932 334 l 2
1383 0 m 1
 1482 0 l 1
 1482 280 l 1
 1383 280 l 1
 1383 0 l 1
1166 1 m 1
 1482 0 l 1
 1482 123 l 1
 1166 123 l 1
 1166 1 l 1
EndSplineSet
Fore
SplineSet
189 94 m 1
 189 134 l 0
 254 134 304 62 304 6 c 0
 304 -15 l 0
 304 -82 259 -148 189 -148 c 1xc180
 189 -108 l 0
 201.245117188 -108 264 -99 264 -6 c 0
 264 75 205.071289062 94 189 94 c 1
40 7 m 0xc380
 40 69 95.5107421875 134 157 134 c 1xc980
 157 94 l 0xc980
 145.092773438 94 80 78 80 -6 c 0xc380
 80 -88 142.7109375 -108 157 -108 c 1
 157 -148 l 0xc980
 97.21875 -148 40 -85 40 -13 c 0
 40 7 l 0xc380
40 -5 m 0
 40 142 l 0
 40 311 180.065429688 359 303 359 c 0
 474 359 l 1xe980
 474 319 l 1
 303 319 l 0
 139.534179688 319 80 239 80 141 c 0
 80 -6 l 0xe580
 40 -5 l 0
EndSplineSet
Refer: 88 2999 N 1 0 0 1 262 0 2
EndChar

StartChar: tml_Rupee
Encoding: 71 3065 41
Width: 858
VWidth: 0
Flags: HW
LayerCount: 3
Back
SplineSet
346 631 m 0
 405 631 l 1
 405 708 446 753 481 753 c 0
 505 753 515 737 515 727 c 0
 515 686 455 684 455 727 c 0
 455 753 469 821 533 821 c 0
 607 821 614 723 608 655 c 1
 763 655 l 0
 763 715 l 0
 665 715 l 0
 665 830 608 881 535 881 c 0
 467 881 404 813 404 724 c 0
 404 690 422 635 481 635 c 0
 535 635 574 672 574 719 c 0
 574 786 535 814 474 814 c 0
 410 814 346 746 346 631 c 0
484 473 m 1
 754 473 l 1
 754 595 l 1
 484 595 l 1xd9
 484 473 l 1
484 -55 m 9
 484 -177 l 1
 673 -178 l 0
 799 -178 859 -82 859 -15 c 0
 859 221 l 2
 859 339 757 366 696 372 c 1
 696 251 l 1
 717 251 737 237 737 187 c 0
 737 38 l 0
 737 -5 741 -55 672 -55 c 0
 484 -55 l 9
-1 30 m 0
 -1 -109 84 -176 193 -176 c 0
 430 -177 l 1
 430 -55 l 17
 209 -55 l 0
 145 -55 122 -35 122 29 c 0
 122 529 l 0
 122 555 113 615 198 615 c 0
 411 615 l 0
 410 675 l 0xe9
 177 675 l 0
 71 675 -1 660 -1 534 c 0
 -1 30 l 0
518 1 m 1
 641 1 l 1
 643 591 l 1
 518 591 l 1
 518 1 l 1
236 1 m 17xdb
 236 595 l 1xdd
 358 595 l 1
 358 1 l 1
 236 1 l 17xdb
238 473 m 1
 238 595 l 1
 431 595 l 1
 431 473 l 1
 238 473 l 1
EndSplineSet
Fore
SplineSet
305 635 m 0
 345 635 l 1
 345.224609375 702.415039062 367 735.856445312 378 746 c 0
 431 794.875976562 500.571289062 772 493 719 c 0
 485.000976562 663 401.529296875 653 403 728 c 0
 403.509765625 753.995117188 422 841 493 841 c 0
 588 841 589 723 583 655 c 1
 722 655 l 0
 722 695 l 0
 624 695 l 0
 624 835 567 881 494 881 c 0
 426 881 363 813 363 724 c 0
 363 690 381 635 440 635 c 0
 494 635 533 672 533 719 c 0
 533 786 494 814 433 814 c 0
 369 814 305 750 305 635 c 0
484 544 m 1
 713 544 l 1
 713 595 l 1
 484 595 l 1xd9
 484 544 l 1
484 -137 m 9
 484 -177 l 1
 632 -177 l 0
 758 -177 818 -84 818 -15 c 0
 818 221 l 2
 818 339 716 366 655 372 c 1
 655 332 l 1
 676 332 778 319 778 222 c 0
 778 -15 l 0
 778 -78 714 -137 641 -137 c 0
 484 -137 l 9
40 30 m 0
 40 -109 125 -177 234 -177 c 0
 430 -177 l 1
 430 -137 l 17
 242 -137 l 0
 143.607421875 -137 81.6376953125 -83 80 29 c 0
 80 533 l 0
 80 627 123.912109375 635 208 635 c 0
 346 635 l 0
 345 675 l 0xe9
 210 675 l 0
 108.763671875 675 40 660 40 534 c 0
 40 30 l 0
559 0 m 1
 600 1 l 1
 602 591 l 1
 559 590 l 1
 559 0 l 1
277 1 m 1xdb
 277 595 l 1xdd
 323 594 l 1
 323 0 l 1
 277 1 l 1xdb
279 544 m 1
 279 595 l 1
 431 595 l 1
 431 544 l 1
 279 544 l 1
EndSplineSet
EndChar

StartChar: tml_Number
Encoding: 72 3066 42
Width: 775
VWidth: 0
Flags: HW
LayerCount: 3
Back
SplineSet
349 586 m 0
 408 586 l 1
 408 690 429 746 484 746 c 0
 508 746 518 730 518 720 c 0
 518 679 458 677 458 720 c 0
 458 746 472 814 536 814 c 0
 610 814 617 716 611 648 c 1
 766 648 l 0
 766 708 l 0
 668 708 l 0
 668 823 611 874 538 874 c 0
 470 874 407 806 407 717 c 0
 407 683 425 628 484 628 c 0
 538 628 577 665 577 712 c 0
 577 779 538 808 477 808 c 0
 396 808 349 733 349 586 c 0
EndSplineSet
Refer: 10 2984 N 1 0 0 1 -37 0 2
Fore
SplineSet
318 586 m 0
 358 586 l 1
 358.224609375 697.415039062 380 728.856445312 391 739 c 0
 444 787.875976562 513.571289062 765 506 712 c 0
 498.000976562 656 414.529296875 646 416 721 c 0
 416.509765625 746.995117188 435 834 506 834 c 0
 601 834 602 716 596 648 c 1
 735 648 l 0
 735 688 l 0
 637 688 l 0
 637 828 580 874 507 874 c 0
 439 874 376 806 376 717 c 0
 376 698.797851562 381.159179688 674.578125 395.004882812 656 c 0
 407.022460938 639.875 425.584960938 628 453 628 c 0
 507 628 546 665 546 712 c 0
 546 779 507 807 446 807 c 0
 382 807 318 758 318 586 c 0
EndSplineSet
Refer: 10 2984 N 1 0 0 1 -37 0 2
EndChar

StartChar: tml_TtI
Encoding: 82 -1 46
Width: 700
VWidth: 0
Flags: W
LayerCount: 3
Fore
SplineSet
392 17 m 1
 175 116.75 72 563 400 606 c 1
 400 566 l 1
 114 523.142578125 230 110 452 28 c 1
 392 17 l 1
453 566 m 1
 453 606 l 1
 525.354492188 606 584 540 584 446 c 0
 584 -199 l 1
 544 -199 l 1
 543 447 l 0
 543 530 491.473632812 566 453 566 c 1
40 0 m 1
 40 40 l 1
 660 40 l 1
 660 0 l 1
 40 0 l 1
40 95 m 1
 40 596 l 1
 80 597 l 1
 80 95 l 1
 40 95 l 1
EndSplineSet
Colour: ff0000
EndChar

StartChar: tml_KU
Encoding: 121 -1 47
Width: 881
VWidth: 0
Flags: HW
LayerCount: 3
Back
SplineSet
158 157 m 0
 158 218 l 0
 158 326 269 371 355 371 c 0
 458 371 557 371 660 371 c 9
 660 249 l 1
 357 249 l 2
 293 249 279 239 279 188 c 0
 279 127 299 122 388 122 c 1
 388 -1 l 1
 231 -1 158 68 158 157 c 0
441 -55 m 9
 441 -177 l 1
 691 -177 l 0
 817 -177 878 -81 878 -14 c 0
 878 219 l 2
 878 337 776 364 714 370 c 1
 714 248 l 1
 736 247 756 235 756 185 c 0
 756 38 l 0
 756 -5 759 -55 690 -55 c 0
 441 -55 l 9
0 30 m 0
 0 -109 85 -177 194 -177 c 0
 388 -177 l 1
 388 -55 l 17
 210 -55 l 0
 146 -55 123 -10 123 54 c 0
 123 284 l 0
 123 320 126 377 200 377 c 0
 199 499 l 0
 114 499 0 452 0 289 c 0
 0 30 l 0
441 -1 m 9
 441 122 l 1
 507 122 538 141 538 187 c 0
 538 591 l 1
 660 591 l 1
 660 191 l 2
 660 95 608 -1 441 -1 c 9
283 348 m 17
 283 589 l 1
 406 589 l 1
 405 348 l 1
 283 348 l 17
500 473 m 1
 500 595 l 1
 792 595 l 1
 792 473 l 1
 500 473 l 1
283 473 m 1
 283 595 l 1
 445 595 l 1
 445 473 l 1
 283 473 l 1
EndSplineSet
Fore
SplineSet
198 172 m 0
 198 196 l 0
 198 259 230 370 404 370 c 0
 619 370 l 9xc480
 619 330 l 1
 397 330 l 2
 342 330 237.985351562 313 238 188 c 0
 238.012695312 58 325.631835938 39 388 39 c 1
 388 -1 l 1
 214.521484375 0 198 128 198 172 c 0
441 -1 m 1
 441 39 l 1
 535.63671875 39 580.631835938 98 581 187 c 0
 581 588 l 1
 621 588 l 1x8c80
 621 191 l 2
 621 95 578.260742188 -1 441 -1 c 1
323 347 m 17xa580
 323 586 l 1xa680
 364 586 l 1
 363 347 l 1
 323 347 l 17xa580
500 555 m 1
 500 595 l 1x9480
 792 595 l 1
 792 555 l 1
 500 555 l 1
323 555 m 1x8e80
 323 595 l 1x9680
 446 595 l 1
 446 555 l 1x9680
 323 555 l 1x8e80
441 -103 m 9
 441 -143 l 1
 693 -143 l 0
 789 -143 841 -81 841 -6 c 0
 841 219 l 2
 841 331 739 364 677 370 c 1
 677 330 l 1
 699 329 802 312 802 217 c 0
 802 -2 l 0
 802 -80 738 -103 692 -103 c 0
 441 -103 l 9
40 -20 m 0
 40 -98 108 -143 156 -143 c 0
 388 -143 l 1
 388 -103 l 17
 172 -103 l 0
 109 -103 80 -64 80 4 c 0
 80 309 l 0
 80 339 74 418 199 418 c 0
 199 458 l 0
 127 458 40 437 40 314 c 0
 40 -20 l 0
EndSplineSet
Colour: ff0000
EndChar

StartChar: tml_CU
Encoding: 123 -1 48
Width: 700
VWidth: 0
Flags: HW
HStem: -1 123<115 213 266 342> 249 62<549 672> 348 23<108 230> 470 122<108 271 325 637>
VStem: -17 121<133 241> 108 163<470 592> 108 122<371 470> 363 122<142 588> 539 160<249 371> 549 122<0 311>
LayerCount: 3
Back
SplineSet
567 0 m 1
 567 311 l 1xf940
 690 311 l 1
 690 0 l 1
 567 0 l 1
557 249 m 1
 557 371 l 1xf980
 717 371 l 1
 717 249 l 1
 557 249 l 1
1 157 m 0
 1 218 l 0
 1 326 111 371 197 371 c 0
 499 371 l 9
 499 249 l 1
 200 249 l 2
 136 249 122 239 122 188 c 0
 122 127 142 122 231 122 c 1
 231 -1 l 1
 73 -1 1 68 1 157 c 0
284 -1 m 9
 284 122 l 1
 350 122 381 141 381 187 c 0
 381 591 l 1
 503 591 l 1
 503 191 l 2
 503 95 451 -1 284 -1 c 9
126 348 m 17xfb
 126 589 l 1xfd
 249 589 l 1
 248 348 l 1
 126 348 l 17xfb
343 473 m 1
 343 595 l 1
 655 595 l 1
 655 473 l 1
 343 473 l 1
126 473 m 1
 126 595 l 1
 289 595 l 1
 289 473 l 1
 126 473 l 1
EndSplineSet
Fore
SplineSet
40 172 m 0
 40 196 l 0
 40 259 72 371 246 371 c 0
 442 371 l 9xc480
 442 331 l 1
 239 331 l 2
 184 331 79.9853515625 313 80 188 c 0
 80.0126953125 58 168.215820312 39 231 39 c 1
 231 -1 l 1
 56.6083984375 0 40 128 40 172 c 0
284 -1 m 1
 284 39 l 1
 366.469726562 39 405.678710938 98 406 187 c 0
 406 588 l 1
 446 588 l 1x8c80
 446 191 l 2
 446 95 407.534179688 -1 284 -1 c 1
165 348 m 17xa580
 165 586 l 1xa680
 206 586 l 1
 205 348 l 1
 165 348 l 17xa580
343 555 m 1
 343 595 l 1x9480
 593 595 l 1
 593 555 l 1
 343 555 l 1
165 555 m 1x8e80
 165 595 l 1x9680
 289 595 l 1
 289 555 l 1x9680
 165 555 l 1x8e80
593 0 m 1
 593 340 l 1xf940
 633 340 l 1
 633 0 l 1
 593 0 l 1
501 331 m 1
 501 371 l 1xf980
 660 371 l 1
 660 331 l 1
 501 331 l 1
EndSplineSet
EndChar

StartChar: tml_NyU
Encoding: 124 -1 49
Width: 912
VWidth: 0
Flags: HW
HStem: -257 94<163 189 643 677> 1 122<180 210 180 210 265 298 265 298> 238 123<181 210 181 210 265 304 265 304> 472 105<484 606 484 606> 472 123<235 304 235 304 359 484 359 484 606 707 606 707>
VStem: 39 124<145 217 145 217> 39 131<310 405 310 405> 39 171<116 123 116 123 238 360 238 360> 317 123<146 215 146 215> 484 123<0 577 0 577> 695 122<-150 -80 154 200>
LayerCount: 3
Back
SplineSet
448 -163 m 9
 448 -257 l 1
 644 -257 l 0
 797 -257 817 -146 817 -80 c 2
 817 157 l 1xe0e0
 817 299 733 323 663 323 c 1
 663 201 l 0
 690 201 696 200 696 154 c 1
 695 -80 l 0
 695 -110 692 -163 643 -163 c 0
 448 -163 l 9
39 -125 m 0
 39 -158 l 0
 40 -253 156 -257 189 -257 c 2
 395 -257 l 1
 395 -163 l 17
 189 -163 l 2
 151 -163 150 -120 190 -120 c 2
 993 -120 l 1
 993 583 l 0
 871 583 l 0
 871 -27 l 1
 190 -27 l 2
 102 -27 39 -57 39 -125 c 0
EndSplineSet
Refer: 4 2958 N 1 0 0 1 0 0 2
Refer: 4 2958 N 1 0 0 1 0 0 2
Fore
SplineSet
448 -192 m 9
 448 -232 l 1
 562 -232 l 0
 715 -232 735 -120 735 -54 c 2
 735 157 l 1
 735 299 651 323 581 323 c 1
 581 283 l 0
 658 283 695 252 695 154 c 1
 695 -54 l 0
 695 -159 637 -192 561 -192 c 0
 448 -192 l 9
78 -134 m 0
 78 -152 l 0
 78 -190 125 -232 188 -232 c 2
 395 -232 l 1
 395 -192 l 17
 191 -192 l 2
 90 -192 96 -95 182 -95 c 2
 872 -95 l 1
 872 583 l 0
 832 583 l 0
 832 -55 l 1
 182 -55 l 2
 122 -55 78 -90 78 -134 c 0
EndSplineSet
Refer: 4 2958 N 1 0 0 1 0 0 2
Refer: 4 2958 N 1 0 0 1 0 0 2
EndChar

StartChar: tml_TtU
Encoding: 125 -1 50
Width: 747
VWidth: 0
Flags: HW
LayerCount: 3
Back
SplineSet
625 -257 m 1
 625 595 l 1
 747 595 l 1
 747 -257 l 1
 625 -257 l 1
279 0 m 1
 279 122 l 1
 627 122 l 1
 627 0 l 1
 279 0 l 1
236 0 m 1
 236 122 l 1
 395 122 l 0
 453 122 449 126 449 145 c 0
 449 211 l 2
 449 232 453 230 418 231 c 0
 418 354 l 1
 488 354 572 322 572 229 c 0
 572 111 l 0
 572 43 511 0 417 0 c 0
 236 0 l 1
242 176 m 1
 364 176 l 1
 364 589 l 1
 242 589 l 1
 242 176 l 1
0 0 m 9
 122 0 l 1
 122 591 l 1
 0 591 l 1
 0 0 l 9
0 595 m 1
 1 473 l 1
 473 473 l 1
 473 595 l 1
 0 595 l 1
EndSplineSet
Fore
SplineSet
75 6 m 0
 75 606 l 0
 75 722 153 776 238 776 c 1
 454 776 l 0
 540 776 630 723 630 610 c 0
 630 551 l 2
 590 551 l 1
 590 611 l 0
 590 684 537 736 453 736 c 0
 239 736 l 1
 165 736 115 689 115 602 c 0
 115 5 l 0
 115 -52 157 -125 249 -125 c 0
 331 -125 l 9
 331 -165 l 1
 233 -165 l 0
 151 -165 75 -89 75 6 c 0
385 -125 m 0
 446 -125 l 0
 556 -125 595 -65 595 -2 c 0
 595 139 l 0
 595 168 591 221 509 221 c 0
 427 221 l 0
 427 261 l 1
 508 261 l 2
 615 261 635 202 635 139 c 2
 635 -3 l 0
 635 -81 586 -165 449 -165 c 0
 385 -165 l 1
 385 -125 l 0
332 0 m 17
 332 592 l 1
 372 593 l 1
 372 0 l 1
 332 0 l 17
EndSplineSet
EndChar

StartChar: tml_NnU
Encoding: 126 -1 51
Width: 848
VWidth: 0
Flags: HW
HStem: -258 94<163 303 356 494> -121 93<163 688>
VStem: 512 122<-151 151 205 249> 688 122<-28 582>
LayerCount: 3
Back
SplineSet
356 -164 m 17
 459 -164 l 0
 508 -164 511 -111 511 -81 c 0
 512 151 l 1
 634 151 l 1
 634 -81 l 0
 634 -147 613 -258 460 -258 c 0
 356 -258 l 1
 356 -164 l 17
39 -126 m 0
 39 -58 102 -28 190 -28 c 2
 688 -28 l 1
 688 582 l 0
 810 582 l 0
 810 -121 l 1
 190 -121 l 2
 150 -121 151 -164 189 -164 c 2
 303 -164 l 9
 303 -258 l 1
 189 -257 l 2
 156 -257 40 -254 39 -159 c 0
 39 -126 l 0
465 252 m 0
 507 252 512 251 512 205 c 10
 634 205 l 1
 634 352 556 374 465 374 c 1
 465 252 l 0
301 1 m 1
 426 1 l 1
 425 588 l 5
 303 588 l 5
 301 1 l 1
61 1 m 9
 183 1 l 1
 183 590 l 5
 61 590 l 5
 61 1 l 9
61 595 m 5
 62 473 l 5
 569 473 l 5
 569 595 l 5
 61 595 l 5
EndSplineSet
Fore
SplineSet
554 151 m 17
 554 -56 l 0
 554 -161 500 -194 420 -194 c 0
 355 -194 l 9
 355 -234 l 1
 421 -234 l 0
 574 -234 594 -122 594 -56 c 2
 594 151 l 1
 554 151 l 17
79 -136 m 0
 79 -154 l 0
 79 -192 126 -234 189 -234 c 2
 302 -234 l 1
 302 -194 l 17
 196 -194 l 2
 95 -194 95.00390625 -97 183 -97 c 2
 728 -97 l 5
 728 582 l 4
 688 582 l 4
 688 -57 l 5
 183 -57 l 2
 123.002929688 -57 79 -92 79 -136 c 0
345 1 m 1
 386 1 l 1
 385 588 l 1
 346 588 l 1
 345 1 l 1
100 1 m 9
 140 1 l 1
 140 590 l 1
 100 590 l 1
 100 1 l 9
100 595 m 1
 101 555 l 1
 529 555 l 1
 529 595 l 1
 100 595 l 1
441 334 m 0
 534 334 554 277 554 207 c 2
 554 205 l 0
 594 205 l 1
 594 352 509 374 441 374 c 1
 441 334 l 0
EndSplineSet
EndChar

StartChar: tml_TU
Encoding: 127 -1 52
Width: 944
VWidth: 0
Flags: HW
HStem: -258 94<163 356 410 603> -121 277<150 172 621 743> -121 93<163 783> 2 123<175 275 329 413> 252 122<191 248 574 618> 351 23<174 245>
VStem: 49 121<130 155 210 245> 621 122<-151 156 210 251> 783 122<-28 582>
LayerCount: 3
Back
SplineSet
410 -164 m 17xc380
 568 -164 l 0
 617 -164 620 -111 620 -81 c 0
 621 156 l 1
 743 156 l 1
 743 -81 l 0
 743 -147 722 -258 569 -258 c 0
 410 -258 l 1
 410 -164 l 17xc380
39 -126 m 0
 39 -58 102 -28 190 -28 c 2
 783 -28 l 1
 783 582 l 0
 905 582 l 0
 905 -121 l 1
 190 -121 l 2xa380
 150 -121 151 -164 189 -164 c 2
 356 -164 l 9
 356 -258 l 1
 189 -257 l 2
 156 -257 40 -254 39 -159 c 0
 39 -126 l 0
49 155 m 9
 172 155 l 17
 179 118 195 125 275 125 c 1
 275 2 l 1x9380
 108 2 49 62 49 155 c 9
49 210 m 9
 170 210 l 17
 170 250 191 252 248 252 c 2
 574 252 l 1
 616 252 621 256 621 210 c 10
 743 210 l 1
 743 346 659 374 574 374 c 1x8b80
 245 374 l 2
 160 374 49 329 49 221 c 0
 49 210 l 9
329 2 m 17x9380
 499 2 551 103 551 194 c 2
 551 591 l 1
 429 591 l 1
 429 190 l 0
 429 144 403 125 329 125 c 1
 329 2 l 17x9380
174 351 m 9x8780
 296 351 l 1
 297 589 l 1
 174 589 l 1
 174 351 l 9x8780
389 473 m 1
 683 473 l 1
 683 595 l 1
 389 595 l 1
 389 473 l 1
174 473 m 1
 335 473 l 1
 335 595 l 1
 174 595 l 1
 174 473 l 1
EndSplineSet
Fore
SplineSet
660 156 m 17
 660 -56 l 0
 660 -161 606 -194 526 -194 c 0
 405 -194 l 9
 405 -234 l 1
 527 -234 l 0
 680 -234 700 -122 700 -56 c 2
 700 156 l 1
 660 156 l 17
78 -136 m 0
 78 -154 l 0
 78 -192 125 -234 188 -234 c 2
 351 -234 l 1
 351 -194 l 17
 195 -194 l 2
 94 -194 94.00390625 -97 182 -97 c 2
 823 -97 l 1
 823 582 l 0
 783 582 l 0
 783 -57 l 1
 182 -57 l 2
 122.002929688 -57 78 -92 78 -136 c 0
89 155 m 9xca
 129 155 l 17
 134.390374332 46 218.326203209 42 273 42 c 1
 273 2 l 1
 138.444933921 2 89 65 89 155 c 9xca
89 210 m 9
 127 210 l 17
 127 314 230.000976562 334.127929688 275 334 c 2
 542 333 l 2
 586.784179688 332.872070312 660 336 660 212 c 2
 660 210 l 0
 700 210 l 1
 700 353 620 374 530 374 c 1xea
 285 374 l 2
 188 374 89 330 89 210 c 9
327 2 m 17
 463.018099548 2 507 98 507 194 c 2
 507 591 l 1
 467 591 l 1
 467 190 l 0
 467 86 408.215469613 42 327 42 c 1
 327 2 l 17
214 351 m 9xd2
 254 351 l 1
 255 589 l 1
 214 589 l 1
 214 351 l 9xd2
387 555 m 1
 640 555 l 1
 640 595 l 1
 387 595 l 1
 387 555 l 1
214 555 m 1
 333 555 l 1
 333 595 l 1
 214 595 l 1
 214 555 l 1
EndSplineSet
EndChar

StartChar: tml_NU
Encoding: 128 -1 53
Width: 1155
VWidth: 0
Flags: HW
HStem: -256 94<163 452 506 800> -119 93<163 994> 3 122<160 186 239 268 543 568 622 650> 489 123<265 328 335 335 389 521 688 748 802 818 873 925> 489 32<818 940>
VStem: 263 122<159 359> 423 122<160 491> 646 122<160 492> 802 139<489 601> 818 122<-150 521> 994 122<-26 584>
LayerCount: 3
Back
SplineSet
506 -162 m 17
 766 -162 l 0
 815 -162 818 -109 818 -79 c 0
 818 521 l 1xef60
 940 521 l 1xefa0
 940 -79 l 2
 940 -145 920 -256 767 -256 c 0
 506 -256 l 1
 506 -162 l 17
39 -124 m 0
 39 -56 102 -26 190 -26 c 2
 994 -26 l 1
 994 584 l 0
 1116 584 l 0
 1116 -119 l 1
 190 -119 l 2
 150 -119 151 -162 189 -162 c 2
 452 -162 l 9
 452 -256 l 1
 189 -256 l 2
 156 -256 40 -252 39 -157 c 0
 39 -124 l 0
742 483 m 1
 742 606 l 1xf7a0
 873 606 l 2xf7a0
 925 606 940 585 940 537 c 2
 940 483 l 1xefa0
 742 483 l 1
423 167 m 1
 423 298 l 2
 423 601 689 605 748 605 c 1
 748 483 l 1
 667 483 545 486 545 300 c 2
 545 168 l 0
 545 156 543 122 568 122 c 1
 568 -0 l 0
 473 0 423 82 423 167 c 1
389 483 m 1
 389 605 l 1
 531 605 768 596 768 311 c 2
 768 167 l 0
 768 75 719 0 622 -0 c 1
 622 122 l 0
 650 122 646 156 646 167 c 0
 646 300 l 2
 646 486 522 482 389 483 c 1
40 166 m 1
 40 81 91 -1 186 -1 c 0
 186 121 l 1
 161 121 162 155 162 167 c 0
 162 300 l 2
 162 486 255 483 335 483 c 1
 335 605 l 1
 266 605 40 606 40 300 c 2
 40 166 l 1
210 352 m 1
 207 386 238 441 295 446 c 1
 362 446 385 388 385 300 c 2
 385 166 l 0
 385 74 336 -1 239 -1 c 1
 239 121 l 0
 267 121 263 155 263 166 c 0
 263 300 l 2
 263 352 231 352 210 352 c 1
EndSplineSet
Fore
SplineSet
802 591 m 5
 890.067319014 559.355191586 918 479.128897422 918 403 c 6
 918 -54 l 6
 918 -120 898 -232 745 -232 c 4
 530 -232 l 5
 530 -192 l 5
 744 -192 l 4
 820 -192 878 -159 878 -54 c 4
 878 402 l 6
 878 433.265786468 871.546412199 515.069499142 802 551 c 5
 802 591 l 5
749 603.133789062 m 5
 749 562.707666844 l 5
 642.326558487 570.97850206 504 513.758343974 504 385 c 6
 504 149 l 4
 504 80.5581395349 531.657142857 40 570 40 c 5
 570 0 l 4x8fe0
 499.820689655 0 464 73.119047619 464 148 c 5
 464 383 l 6
 464 575.727006954 696.321873894 612.57488377 749 603.133789062 c 5
104 -134 m 0
 104 -90 148.010742188 -55 208 -55 c 2
 1012 -55 l 1
 1012 584 l 0
 1052 584 l 0
 1052 -95 l 1
 208 -95 l 2
 122.013671875 -95 116.002929688 -192 217 -192 c 2
 476 -192 l 1
 476 -232 l 1
 214 -232 l 2
 151.001953125 -232 104 -190 104 -152 c 0
 104 -134 l 0
427 565 m 1
 427 605 l 1xafe0
 488.562005277 605 734 597.003289474 734 384 c 2
 734 168 l 0
 734 76 698.510204082 0 623 0 c 1
 623 40 l 0
 664.121495327 40 694 79 694 168 c 0
 694 389 l 2
 694 471.057915058 631.778761062 565 427 565 c 1
104 147 m 1
 104 400 l 2
 104 582.044270833 293.66779661 604.97203621 373 605 c 1
 373 565 l 1
 180.819607843 564.4 143.730959548 467.798193894 144 400 c 2
 145 148 l 0
 144.375 67.7286821705 180 39 210 39 c 1
 210 -1 l 0
 139.089655172 -1 104 72.119047619 104 147 c 1
242 416 m 1
 239 429 261 445 280 445 c 1
 349 445 370 370 370 292 c 2
 370 147 l 0
 370 62.4285714286 332.97260274 -1 264 -1 c 1
 264 39 l 0
 297.622641509 39 330 67.6875 330 147 c 0
 330 292 l 2
 330 348 329 416 242 416 c 1
EndSplineSet
EndChar

StartChar: tml_NnnU
Encoding: 129 -1 54
Width: 1540
VWidth: 0
Flags: HW
HStem: -256 94<177 652 706 1185> -119 93<176 1379> -0 122<162 184 238 260 546 567 620 642 931 952 1006 1028> 470 52<1203 1325> 472 122<220 327 388 483 709 755 809 868 1103 1139 1192 1203 1257 1309>
VStem: 39 122<123 167 289 400> 262 122<125 335> 422 122<124 396> 645 122<125 394> 807 122<125 397> 1029 122<126 405> 1192 133<470 583> 1203 122<-150 521> 1379 122<-26 584>
LayerCount: 3
Back
SplineSet
706 -162 m 17
 1150 -162 l 0
 1199 -162 1203 -109 1203 -79 c 0
 1203 521 l 1xf7ec
 1325 521 l 1xf7f4
 1325 -79 l 2
 1325 -145 1304 -256 1151 -256 c 0
 706 -256 l 1
 706 -162 l 17
53 -124 m 0
 53 -56 116 -26 204 -26 c 2
 1379 -26 l 1
 1379 584 l 0
 1501 584 l 0
 1501 -119 l 1
 204 -119 l 2
 164 -119 165 -162 203 -162 c 2
 652 -162 l 9
 652 -256 l 1
 203 -256 l 2
 170 -256 54 -252 53 -157 c 0
 53 -124 l 0
1192 471 m 1xf7f4
 1192 595 l 1xeff4
 1257 595 l 2xeff4
 1309 595 1325 572 1325 524 c 2
 1325 471 l 1
 1192 471 l 1xf7f4
807 168 m 1
 807 288 l 2
 807 591 1075 595 1139 595 c 1
 1139 473 l 1
 1051 473 929 476 929 290 c 2
 929 169 l 0
 929 157 927 123 952 123 c 1
 952 1 l 0
 857 1 807 83 807 168 c 1
809 473 m 1
 809 595 l 1
 941 595 1152 586 1152 301 c 2
 1152 168 l 0
 1152 76 1103 1 1006 1 c 1
 1006 123 l 0
 1034 123 1029 157 1029 168 c 0
 1029 290 l 2
 1029 476 932 473 809 473 c 1
422 167 m 1
 422 287 l 2
 422 590 690 595 755 595 c 1
 755 472 l 1
 666 472 544 475 544 289 c 2
 544 168 l 0
 544 156 542 122 567 122 c 1
 567 -0 l 0
 472 0 422 82 422 167 c 1
388 472 m 1
 388 595 l 1
 530 595 767 585 767 300 c 2
 767 167 l 0
 767 75 717 0 620 -0 c 1
 620 122 l 0
 648 122 645 156 645 167 c 0
 645 289 l 2
 645 475 521 471 388 472 c 1
39 166 m 1
 39 81 89 -1 184 -1 c 0
 184 121 l 1
 159 121 161 155 161 167 c 0
 161 289 l 2
 161 475 254 472 334 472 c 1
 334 595 l 1
 265 595 39 595 39 289 c 2
 39 166 l 1
209 341 m 1
 206 375 237 431 294 436 c 1
 361 436 384 377 384 289 c 2
 384 166 l 0
 384 74 335 -1 238 -1 c 1
 238 121 l 0
 266 121 262 155 262 166 c 0
 262 289 l 2
 262 341 230 341 209 341 c 1
EndSplineSet
Fore
SplineSet
1085 581 m 1
 1173.06731901 549.355191586 1201 469.128897422 1201 393 c 2
 1201 -54 l 2
 1201 -120 1181 -232 1028 -232 c 0
 705 -232 l 1
 705 -192 l 1
 1027 -192 l 0
 1103 -192 1161 -159 1161 -54 c 0
 1161 392 l 2
 1161 423.265786468 1154.5464122 505.069499142 1085 541 c 1
 1085 581 l 1
1032 593.133789062 m 1
 1032 552.708007812 l 1
 974.192273821 563.81790888 851 493.956228198 851 314 c 6
 851 149 l 0
 851 80.5581395349 878.657142857 40 917 40 c 1
 917 0 l 0x8fe0
 846.820689655 0 811 73.119047619 811 148 c 1
 811 312 l 6
 811 559.132472213 991.151347826 595.191050873 1032 593.133789062 c 1
215 -134 m 0
 215 -90 259 -55 319 -55 c 2
 1266 -55 l 1
 1266 584 l 0
 1306 584 l 0
 1306 -95 l 1
 319 -95 l 2
 233 -95 227 -192 328 -192 c 2
 651 -192 l 1
 651 -232 l 1
 325 -232 l 2
 262 -232 215 -190 215 -152 c 0
 215 -134 l 0
503 168 m 1
 503 288 l 2
 503 584 705.006006006 595.95703125 754 595 c 1
 754 555 l 1
 627.255972696 555 543 477 543 290 c 2
 543 169 l 0
 543 88 569.819047619 40 607 40 c 1
 607 0 l 0x8fe0
 538.144827586 0 503 83 503 168 c 1
508 555 m 1
 508 595 l 1xafe0
 559.736147757 595 766 594 766 301 c 2
 766 168 l 0
 766 76 732.108843537 0 660 0 c 1
 660 40 l 0
 701.943925234 40 726 86 726 168 c 0
 726 306 l 2
 726 440 675.197640118 555 508 555 c 1
200 167 m 1
 200 82 234.427586207 -1 304 -1 c 0
 304 39 l 1
 274.923076923 39 240.394230769 73 241 168 c 0
 240 290 l 2
 239.073836805 402.991909764 274.407843137 554 454 555 c 1
 454 595 l 1
 379.091525424 594.95703125 200 569.7265625 200 290 c 2
 200 167 l 1
334 406 m 1
 331 419 354 435 373 435 c 1
 442 435 463 370 463 292 c 2
 463 167 l 0
 463 71 426.321917808 -1 358 -1 c 1
 358 39 l 0
 391.113207547 39 423 73 423 167 c 0
 423 292 l 2
 423 348 421 406 334 406 c 1
808 555 m 1
 808 595 l 1xafe0
 865.83090379 595 1069 593 1069 300 c 2
 1069 168 l 0
 1069 76 1029.79452055 1 963 1 c 1
 963 41 l 0
 1000.35849057 41 1029 89 1029 168 c 0
 1029 305 l 2
 1029 415 999.095709571 554 808 555 c 1
EndSplineSet
EndChar

StartChar: tml_MU
Encoding: 131 -1 55
Width: 793
VWidth: 0
Flags: HW
HStem: -151 122<141.014 210.014 355.014 454.014> 0 123<372.014 454.014 576.014 616.014 670.014 708.014> 107 17<250.014 372.014> 122 1<454.014 576.014> 483 122<582.014 616.014 670.014 706.014> 634 122<145.014 199.014>
VStem: 0.0144293 123<-11 55 541 614> 250.014 122<123 595> 454.014 122<122 480> 714.014 123<130 478>
LayerCount: 3
Back
SplineSet
355.014648438 -56 m 4
 454.014648438 -56 l 4
 454.014648438 15 l 1
 576.014648438 15 l 1x8fc0
 576.014648438 -57 l 4
 576.014648438 -126 536.014648438 -178 455.014648438 -178 c 4
 355.014648438 -178 l 5
 355.014648438 -56 l 4
0.0146484375 28 m 4
 0.0146484375 -111 85.0146484375 -178 194.014648438 -178 c 4
 301.014648438 -178 l 5
 301.014648438 -56 l 21
 210.014648438 -56 l 4
 146.014648438 -56 122.014648438 -37 122.014648438 27 c 4
 122.014648438 541 l 0
 122.014648438 577 126.014648438 634 200.014648438 634 c 0
 199.014648438 756 l 0
 114.014648438 756 0.0146484375 709 0.0146484375 546 c 0
 0.0146484375 28 l 4
EndSplineSet
Refer: 19 2990 N 1 0 0 1 211.014 0 2
Fore
SplineSet
40.0146484375 548 m 1
 40.0146484375 28 l 0
 40.0146484375 -83.3349609375 125.014648438 -137 234.014648438 -137 c 0
 301.014648438 -137 l 1
 301.014648438 -97 l 17
 230.014648438 -97 l 0
 128.014648438 -97 80.0146484375 -37.994140625 80.0146484375 24 c 0
 80.0146484375 555 l 2
 80.0146484375 618.3721431 125.8671875 690 239.014648438 690 c 5
 239.014648438 730 l 5x87
 96.80859375 730 38.94921875 635.485473633 40.0146484375 548 c 1
355.014648438 -97 m 0
 454.014648438 -97 l 0
 454.014648438 15 l 1
 495.014648438 15 l 1
 495.014648438 -91 l 0
 495.014648438 -115 483.014648438 -137 453.014648438 -137 c 0
 355.014648438 -137 l 1
 355.014648438 -97 l 0
EndSplineSet
Refer: 19 2990 N 1 0 0 1 211.014 0 2
EndChar

StartChar: tml_RU
Encoding: 133 -1 56
Width: 878
VWidth: 0
Flags: HW
HStem: -150 122<141 210 690 741> 1 21G<255 377> 379 122<145 199> 473 122<257 449>
VStem: 0 123<-8 57 287 360> 255 194<473 595> 255 122<1 473> 756 122<-14 65 187 242>
LayerCount: 3
Back
SplineSet
503 473 m 1
 773 473 l 1
 773 595 l 1
 503 595 l 1xd9
 503 473 l 1
503 -56 m 13
 503 -178 l 5
 691 -179 l 4
 817 -179 878 -83 878 -16 c 4
 878 221 l 2
 878 339 776 366 715 372 c 1
 715 251 l 1
 736 251 756 237 756 187 c 0
 756 37 l 4
 756 -6 759 -56 690 -56 c 4
 503 -56 l 13
0 29 m 4
 0 -110 85 -177 194 -177 c 4
 448 -178 l 5
 448 -56 l 21
 210 -56 l 4
 146 -56 123 -36 123 28 c 4
 123 287 l 0
 123 323 126 379 200 379 c 0
 199 501 l 0xe9
 114 501 0 455 0 292 c 0
 0 29 l 4
536 1 m 1
 659 1 l 1
 661 591 l 1
 536 591 l 1
 536 1 l 1
255 1 m 17xdb
 255 595 l 1xdd
 377 595 l 1
 377 1 l 1
 255 1 l 17xdb
257 473 m 1
 257 595 l 1
 449 595 l 1
 449 473 l 1
 257 473 l 1
EndSplineSet
Fore
SplineSet
489 555 m 1
 733 555 l 1
 733 595 l 1
 489 595 l 1xd9
 489 555 l 1
489 -98 m 9
 489 -138 l 1
 651 -138 l 0
 777 -138 838 -43 838 24 c 0
 838 184 l 2
 838 302 736 329 675 335 c 1
 675 295 l 1
 707 295 798 279 798 180 c 0
 798 24 l 0
 798 -45 721 -98 650 -98 c 0
 489 -98 l 9
40 69 m 0
 40 -70 125 -138 234 -138 c 0
 434 -138 l 1
 434 -98 l 17
 231 -98 l 0
 151 -98 80 -49 80 68 c 0
 80 287 l 0
 80 417 161 461 239 461 c 0
 239 501 l 0xe9
 154 501 40 455 40 292 c 0
 40 69 l 0
579 1 m 1
 619 1 l 1
 621 591 l 1
 579 591 l 1
 579 1 l 1
295 1 m 17xdb
 295 595 l 1xdd
 335 595 l 1
 335 1 l 1
 295 1 l 17xdb
297 555 m 1
 297 595 l 1
 435 595 l 1
 435 555 l 1
 297 555 l 1
EndSplineSet
EndChar

StartChar: tml_RrU
Encoding: 134 -1 57
Width: 899
VWidth: 0
Flags: HW
HStem: -257 94<137 310 363 545> -120 93<136 738> -1 21G<287 409> 494 117<163 192 246 284 407 457 511 560>
VStem: 36 129<-1 491> 287 122<0 492> 563 122<-150 490> 738 122<-27 583>
LayerCount: 3
Back
SplineSet
383 -163 m 13
 383 -257 l 5
 512 -257 l 4
 665 -257 686 -146 686 -80 c 6
 686 18 l 6xf6
 686 487 l 262
 686 542 634 606 521 606 c 261
 521 484 l 261
 543 484 563 481 563 460 c 262
 563 21 l 5
 563 -80 l 4
 563 -110 560 -163 511 -163 c 4
 383 -163 l 13
64 0 m 257
 64 479 l 0xee
 64 529 105 606 217 606 c 257
 217 483 l 257
 192 483 186 471 186 458 c 258
 188 1 l 257
 64 0 l 257
271 483 m 257
 271 606 l 257
 317 606 346 597 370 576 c 257
 398 599 431 606 470 606 c 257
 470 484 l 257
 452 484 430 481 430 459 c 258
 433 2 l 257
 311 1 l 257
 308 458 l 258
 308 472 297 483 271 483 c 257
563 21 m 1025
686 18 m 1025
39 -125 m 4
 39 -158 l 4
 40 -253 156 -257 189 -257 c 6
 329 -257 l 5
 329 -163 l 21
 189 -163 l 6
 151 -163 150 -120 190 -120 c 6
 860 -120 l 5
 860 583 l 4
 738 583 l 4
 738 -27 l 5
 547 -27 381 -27 190 -27 c 4
 102 -27 39 -57 39 -125 c 4
EndSplineSet
Fore
SplineSet
645 62 m 1
 645 475 l 258
 645 530 605.921212121 606 521 606 c 257
 521 566 l 257
 535.784 566 605 560 605 460 c 258
 605 62 l 1
 605 -56 l 0
 605 -161 567.52238806 -194 512 -194 c 0
 383 -194 l 1
 383 -234 l 1
 513 -234 l 0
 629.739884393 -234 645 -122 645 -56 c 2
 645 62 l 1
78 -136 m 0
 78 -154 l 0
 78 -192 125.001953125 -234 188 -234 c 2
 329 -234 l 1
 329 -194 l 1
 195 -194 l 2
 94.0029146443 -194 94.00390625 -97 182 -97 c 2
 781 -97 l 1
 781 583 l 0
 741 583 l 0
 741 -57 l 1
 182 -57 l 2
 122.002929688 -57 78 -92 78 -136 c 0
103 0 m 257
 103 479 l 0xee
 103 547 144.549019608 606 217 606 c 257
 217 566 l 257
 155.442477876 566 142.877642086 502.998825586 143 474 c 258
 145 0 l 257
 103 0 l 257
271 566 m 257
 271 606 l 257
 316.54 606 346.24 595.24137931 370 567 c 257
 398 597.931034483 431 606 470 606 c 257
 470 566 l 257
 444 566 388.707884106 545.523582856 389 476 c 258
 391 0 l 257
 351 0 l 257
 349 475 l 258
 348.68647067 549.463215851 305.012658228 566 271 566 c 257
EndSplineSet
EndChar

StartChar: tml_LU
Encoding: 135 -1 58
Width: 970
VWidth: 0
Flags: HW
HStem: -257 94<153 179 680 715> 0 122<175 212 266 305 601 636 690 729> 237 123<174 212 266 305> 485 121<237 299 353 418>
VStem: 41 124<130 225 226 228> 41 131<306 416> 41 171<115 122 237 359> 313 123<127 231> 473 122<127 165 353 425> 733 122<-150 -80 130 166 422 465>
LayerCount: 3
Back
SplineSet
451 -163 m 9
 451 -257 l 1
 681 -257 l 0
 834 -257 855 -146 855 -80 c 2
 855 231 l 1
 733 231 l 1xf1c0
 733 -80 l 0
 733 -110 729 -163 680 -163 c 0
 451 -163 l 9
29 -125 m 0
 29 -158 l 0
 30 -253 146 -257 179 -257 c 2
 397 -257 l 1
 397 -163 l 17
 179 -163 l 2
 141 -163 140 -120 180 -120 c 2
 1031 -120 l 1
 1031 583 l 0
 909 583 l 0
 909 -27 l 1
 180 -27 l 2
 92 -27 29 -57 29 -125 c 0
EndSplineSet
Refer: 15 2994 N 1 0 0 1 0 0 2
Fore
SplineSet
756 231 m 17
 756 -54 l 0
 756 -159 698 -192 622 -192 c 0
 451 -192 l 9
 451 -232 l 1
 623 -232 l 0
 776 -232 796 -120 796 -54 c 2
 796 231 l 1
 756 231 l 17
69 -134 m 0
 69 -152 l 0
 69 -190 116 -232 179 -232 c 2
 397 -232 l 1
 397 -192 l 17
 182 -192 l 2
 81 -192 87 -95 173 -95 c 2
 930 -95 l 1
 930 583 l 0
 890 583 l 0
 890 -55 l 1
 173 -55 l 2
 113 -55 69 -90 69 -134 c 0
EndSplineSet
Refer: 15 2994 N 1 0 0 1 0 0 2
EndChar

StartChar: tml_LlU
Encoding: 136 -1 59
Width: 1316
VWidth: 0
Flags: HW
HStem: -176 122<116 185 1167 1218> 0 122<447 485 539 577> 237 123<447 485 539 572> 442 122<108 169> 472 123<502 572 627 692 889 933>
VStem: -26 125<-35 29 353 436> 174 122<376 440> 313 172<105 122 237 359> 313 132<306 410> 314 123<132 225 226 228> 586 123<131 226> 747 123<354 417> 1233 122<-40 39 187 241>
LayerCount: 3
Back
SplineSet
-26 29 m 0xf638
 -26 -108 60 -176 169 -176 c 0
 700 -176 l 1
 700 -54 l 17
 185 -54 l 0
 121 -54 99 -34 99 28 c 0
 99 353 l 2
 99 419 104 442 142 442 c 0
 160 442 174 431 174 408 c 0
 174 386 161 374 141 374 c 0
 141 252 l 1
 226 252 296 324 296 393 c 0
 296 421 l 0
 296 476 245 564 141 564 c 0
 131 564 l 0
 -2 564 -27 447 -26 356 c 2
 -26 29 l 0xf638
753 -54 m 9
 753 -176 l 1
 1168 -176 l 0
 1294 -176 1355 -81 1355 -14 c 0
 1355 221 l 2
 1355 329 1253 366 1191 372 c 1
 1191 245 l 1
 1213 245 1233 237 1233 187 c 0
 1233 39 l 0
 1233 -4 1236 -54 1167 -54 c 0
 753 -54 l 9
EndSplineSet
Refer: 14 2995 N 1 0 0 1 273 0 2
Fore
SplineSet
753 -136 m 9
 753 -176 l 1
 1088 -176 l 0
 1214 -176 1276 -81 1276 -14 c 0
 1276 221 l 2
 1276 339 1173 366 1112 372 c 1
 1112 332 l 1
 1144 332 1236 316 1236 217 c 0
 1236 -14 l 0
 1236 -83 1158 -136 1087 -136 c 0
 753 -136 l 9
40 31 m 0
 40 -108 125 -176 234 -176 c 0
 700 -176 l 1
 700 -136 l 17
 234 -136 l 0
 155 -136 80 -91 80 30 c 0
 80 390 l 2
 80 452.211914062 102.760742188 486 161 486 c 0
 221.305664062 486 242 439.033203125 242 405 c 0
 242 376.911132812 221.782226562 336.610351562 167 336 c 0
 167 296 l 1
 230.064453125 296 282 344.685546875 282 392 c 0
 282 421 l 0
 282 461.384765625 243.333007812 526 166 526 c 0
 156 526 l 0
 75.23046875 526 40 467.625976562 40 390 c 2
 40 31 l 0
EndSplineSet
Refer: 14 2995 N 1 0 0 1 273 0 2
EndChar

StartChar: tml_LllU
Encoding: 137 -1 60
Width: 759
VWidth: 0
Flags: HW
HStem: -258 93<156.016 211.016 380.016 602.016> -146 179<419.016 541.016> 0 123<338.016 420.016 542.016 582.016 636.016 673.016> 107 17<216.016 338.016> 122 1<420.016 542.016> 483 122<548.016 582.016 636.016 672.016>
VStem: 1.01636 123<-133 -52 529 612> 216.016 122<123 595> 419.016 122<-146 -120 -27 32> 420.016 122<122 480> 536.016 5<-120 -27> 602.016 93<-165 -120> 679.016 123<130 478>
LayerCount: 3
Back
SplineSet
-1.9833984375 532 m 2
 1.0166015625 -52 l 0
 1.0166015625 -191 86.0166015625 -258 195.016601562 -258 c 0
 326.016601562 -258 l 1
 326.016601562 -165 l 17
 211.016601562 -165 l 0
 147.016601562 -165 124.016601562 -117 124.016601562 -53 c 0
 125.016601562 529 l 2
 125.016601562 595 130.016601562 619 168.016601562 619 c 1
 235.016601562 619 l 0
 235.016601562 740 l 1x87
 157.016601562 740 l 0
 24.0166015625 740 -2.9833984375 623 -1.9833984375 532 c 2
419.016601562 32 m 1xc780
 541.016601562 32 l 1
 541.016601562 -146 l 1
 419.016601562 -146 l 1
 419.016601562 32 l 1xc780
380.016601562 -165 m 0
 602.016601562 -165 l 0
 602.016601562 -120 l 0
 536.016601562 -120 l 0
 536.016601562 -27 l 1
 612.016601562 -27 l 2
 676.016601562 -27 695.016601562 -57 695.016601562 -107 c 2x8730
 695.016601562 -174 l 0
 695.016601562 -226 669.016601562 -258 606.016601562 -258 c 0
 380.016601562 -258 l 1
 380.016601562 -165 l 0
EndSplineSet
Refer: 19 2990 N 1 0 0 1 177.016 0 2
Fore
SplineSet
380.016601562 -192 m 0
 627.016601562 -192 l 0
 627.016601562 -92 l 0
 451.016601562 -92 l 0
 451.016601562 -52 l 1
 614.016601562 -52 l 2
 657.016601562 -52 667.016601562 -78 667.016601562 -101 c 2
 667.016601562 -177 l 0
 667.016601562 -220 650.016601562 -232 614.016601562 -232 c 0
 380.016601562 -232 l 1
 380.016601562 -192 l 0
40.0166015625 544 m 2
 43.0166015625 -52 l 0
 43.0166015625 -173.456054688 109.614257812 -232 195.016601562 -232 c 0
 326.016601562 -232 l 1
 326.016601562 -192 l 17
 191.016601562 -192 l 0
 116.711914062 -192 81.0166015625 -125.678710938 81.0166015625 -56 c 0
 82.0166015625 550 l 2
 82.0849609375 598.83984375 95.189453125 661 151.016601562 661 c 1
 235.016601562 661 l 0
 235.016601562 701 l 1x87
 157.016601562 701 l 0
 63.1484375 701 39.2802734375 612.6875 40.0166015625 544 c 2
419.016601562 32 m 1xc780
 459.016601562 32 l 1
 459.016601562 -146 l 1
 419.016601562 -146 l 1
 419.016601562 32 l 1xc780
EndSplineSet
Refer: 19 2990 N 1 0 0 1 177.016 0 2
EndChar

StartChar: tml_KUu
Encoding: 139 -1 61
Width: 1152
VWidth: 0
Flags: HW
HStem: -1 123<171 269 322 398> 21 120<557 594 749 1113> 249 122<174 238 286 537 595 625> 348 23<164 286> 470 122<164 327 381 693>
VStem: 39 121<133 241> 164 163<470 592> 164 122<371 470> 419 122<142 588> 626 123<143 251>
LayerCount: 3
Back
SplineSet
557 21 m 1
 557 142 l 1x4cc0
 1113 142 l 1
 1113 21 l 1
 557 21 l 1
557 20 m 1
 557 142 l 1
 577 142 l 0
 623 142 626 150 626 188 c 0
 626 230 l 2
 626 251 630 250 595 251 c 0
 595 373 l 1
 665 373 749 342 749 249 c 0x6cc0
 749 131 l 0
 749 63 672 20 594 20 c 0
 580 20 639 20 557 20 c 1
39 157 m 0
 39 218 l 0
 39 326 149 371 235 371 c 0
 537 371 l 9
 537 249 l 1
 238 249 l 2
 174 249 160 239 160 188 c 0
 160 127 180 122 269 122 c 1
 269 -1 l 1xacc0
 111 -1 39 68 39 157 c 0
322 -1 m 9
 322 122 l 1
 388 122 419 141 419 187 c 0
 419 591 l 1
 541 591 l 1
 541 191 l 2
 541 95 489 -1 322 -1 c 9
164 348 m 17x1dc0
 164 589 l 1x1ec0
 287 589 l 1
 286 348 l 1
 164 348 l 17x1dc0
381 473 m 1
 381 595 l 1
 693 595 l 1
 693 473 l 1
 381 473 l 1
164 473 m 1
 164 595 l 1
 327 595 l 1
 327 473 l 1
 164 473 l 1
EndSplineSet
Fore
SplineSet
517 21 m 1
 517 61 l 1
 555 60 l 0
 613 60 669 76 669 150 c 0
 669 249 l 2
 669 322 590 332 555 333 c 0
 555 373 l 1
 625 373 709 340 709 249 c 0
 709 137 l 0
 709 69 648 21 554 21 c 0
 517 21 l 1
79 172 m 0
 79 196 l 0
 79 259 111 371 285 371 c 0
 497 371 l 9xc480
 497 331 l 1
 278 331 l 2
 223 331 118.985351562 313 119 188 c 0
 119.012335526 58 206.631578947 39 269 39 c 1
 269 -1 l 1
 95.5217391304 0 79 128 79 172 c 0
322 -1 m 1
 322 39 l 1
 415.960893855 39 460.634481931 98 461 187 c 0
 461 588 l 1
 501 588 l 1x8c80
 501 191 l 2
 501 95 458.497716895 -1 322 -1 c 1
204 348 m 17xa580
 204 586 l 1xa680
 245 586 l 1
 244 348 l 1
 204 348 l 17xa580
381 555 m 1
 381 595 l 1x9480
 653 595 l 1
 653 555 l 1
 381 555 l 1
204 555 m 1x8e80
 204 595 l 1x9680
 327 595 l 1
 327 555 l 1x9680
 204 555 l 1x8e80
517 21 m 1
 517 60 l 1x4cc0
 1073 60 l 1
 1073 21 l 1
 517 21 l 1
EndSplineSet
EndChar

StartChar: tml_NgUu
Encoding: 140 -1 62
Width: 935
VWidth: 0
Flags: HW
HStem: -258 93<74 107 489 854> -106 93<73 140 788 854> 0 122<280 461 616 671>
VStem: -17 88<-163 -111> 143 88<-142 -111> 493 123<123 231> 669 122<-153 -112 -20 0 122 595> 788 3<-112 -20> 854 89<-165 -112>
LayerCount: 3
Back
SplineSet
-17 -128 m 0
 -17 -151 l 0
 -17 -235 62 -258 107 -258 c 0
 435 -258 l 1
 435 -165 l 1xfc80
 105 -165 l 0
 87 -165 71 -158 71 -137 c 0
 71 -117 87 -106 109 -106 c 1
 131 -107 143 -120 143 -142 c 0
 231 -142 l 0
 231 -134 l 0
 231 -61 184 -14 109 -14 c 1
 38 -14 -17 -54 -17 -128 c 0
489 -165 m 0
 854 -165 l 0
 854 -112 l 0
 788 -112 l 0
 788 -20 l 1xfd80
 860 -20 l 2
 924 -20 943 -50 943 -100 c 2
 943 -174 l 0
 943 -226 917 -258 854 -258 c 0
 489 -258 l 1
 489 -165 l 0
669 -153 m 1
 669 595 l 1xfe80
 791 595 l 1
 791 -153 l 1
 669 -153 l 1
323 0 m 1
 323 122 l 1
 671 122 l 1
 671 0 l 1
 323 0 l 1
280 0 m 1
 280 122 l 1
 438 122 l 0
 496 122 493 126 493 145 c 0
 493 211 l 2
 493 232 497 230 462 231 c 0
 462 354 l 1
 532 354 616 322 616 229 c 0
 616 111 l 0
 616 43 555 0 461 0 c 0
 280 0 l 1
286 176 m 1
 408 176 l 1
 408 589 l 1
 286 589 l 1
 286 176 l 1
44 0 m 9
 166 0 l 1
 166 591 l 1
 44 591 l 1
 44 0 l 9
44 595 m 1
 45 473 l 1
 516 473 l 1
 516 595 l 1
 44 595 l 1
EndSplineSet
Fore
SplineSet
40 -137 m 0
 40 -149 l 0
 40 -204.590820312 103.4140625 -233 129 -233 c 0
 396 -233 l 1
 396 -193 l 1xc980
 149 -193 l 0
 133.853515625 -193 80 -184.94921875 80 -139 c 0
 80 -91.6865234375 113.418945312 -80 137 -80 c 1
 160.111328125 -80 200 -89.5791015625 200 -143 c 0
 241 -143 l 0
 241 -135 l 0
 241 -85.2080078125 200.934570312 -40 137 -40 c 1
 77.6826171875 -40 40 -84.72265625 40 -137 c 0
450 -193 m 0
 855 -193 l 0
 855 -84 l 0
 740 -84 l 0
 740 -44 l 1
 842 -44 l 2
 885 -44 895 -69 895 -92 c 2
 895 -178 l 0
 895 -221 878 -233 842 -233 c 0
 450 -233 l 1
 450 -193 l 0
712 -153 m 1
 712 595 l 1
 752 595 l 1
 752 -153 l 1
 712 -153 l 1
284 0 m 1
 284 40 l 1
 714 40 l 1
 714 0 l 1
 284 0 l 1
241 0 m 1
 241 40 l 1
 423 40 l 0
 481 40 537 51 537 125 c 0
 537 230 l 2
 537 303 458 313 423 314 c 0
 423 354 l 1
 493 354 577 321 577 230 c 0
 577 112 l 0
 577 44 516 0 422 0 c 0
 241 0 l 1
329 176 m 1
 369 176 l 1
 369 589 l 1
 329 589 l 1
 329 176 l 1
85 0 m 1
 126 0 l 1
 126 591 l 1
 85 591 l 1
 85 0 l 1
85 595 m 1
 86 555 l 1
 478 555 l 1
 478 595 l 1
 85 595 l 1
EndSplineSet
EndChar

StartChar: tml_CUu
Encoding: 141 -1 63
Width: 1149
VWidth: 0
Flags: HW
HStem: -198 122<180 249 923 973> -1 123<337 435 488 564> 249 62<771 894> 348 23<330 452> 360 122<184 238> 470 122<330 493 547 859>
VStem: 39 123<-56 9 268 341> 205 121<133 241> 330 163<470 592> 330 122<371 470> 585 122<142 588> 771 122<0 311> 988 122<-62 -15 47 91>
LayerCount: 3
Back
SplineSet
604 -56 m 13
 604 -178 l 5
 924 -179 l 4
 1050 -179 1110 -82 1110 -15 c 4
 1110 65 l 2
 1110 183 1008 209 947 215 c 1
 947 94 l 1xe338
 968 94 988 97 988 47 c 0
 988 6 l 4
 988 -42 959 -56 923 -56 c 4
 604 -56 l 13
39 29 m 4
 39 -110 124 -177 233 -177 c 4
 549 -178 l 5
 549 -56 l 21
 249 -56 l 4
 185 -56 162 -36 162 28 c 4
 162 268 l 0
 162 304 165 360 239 360 c 0
 238 482 l 0xeb38
 153 482 39 435 39 272 c 0
 39 29 l 4
771 0 m 1
 771 311 l 1
 894 311 l 1
 894 0 l 1
 771 0 l 1
703 249 m 1
 703 371 l 1xf338
 954 371 l 1
 954 249 l 1
 703 249 l 1
205 157 m 0
 205 218 l 0
 205 326 315 371 401 371 c 0
 703 371 l 9
 703 249 l 1
 404 249 l 2
 340 249 326 239 326 188 c 0
 326 127 346 122 435 122 c 1
 435 -1 l 1
 277 -1 205 68 205 157 c 0
488 -1 m 9
 488 122 l 1
 554 122 585 141 585 187 c 0
 585 591 l 1
 707 591 l 1
 707 191 l 2
 707 95 655 -1 488 -1 c 9
330 348 m 17xf378
 330 589 l 1xf3b8
 453 589 l 1
 452 348 l 1
 330 348 l 17xf378
547 473 m 1
 547 595 l 1xe738
 859 595 l 1
 859 473 l 1
 547 473 l 1
330 473 m 1
 330 595 l 1xe7b8
 493 595 l 1
 493 473 l 1
 330 473 l 1
EndSplineSet
Fore
SplineSet
604 -99 m 1
 604 -139 l 1
 926 -139 l 0
 1018.67914439 -139 1068 -73.2839506173 1068 -15 c 4
 1068 64 l 2
 1068 182 966 209 905 215 c 1
 905 175 l 1
 937 175 1028 159 1028 60 c 0
 1028 -15 l 0
 1028 -62.5081967213 976.412162162 -99 925 -99 c 0
 604 -99 l 1
81 30 m 0
 81 -83.4830917874 147.597938144 -139 233 -139 c 0
 549 -139 l 1
 549 -99 l 1
 230 -99 l 0
 172.251655629 -99 121 -61.2168674699 121 29 c 0
 121 268 l 0
 121 369.609195402 180.603773585 404 238 404 c 0
 238 444 l 0xe9
 170.939698492 444 81 402.363636364 81 273 c 0
 81 30 l 0
812 0 m 1
 812 341 l 1
 852 341 l 1
 852 0 l 1
 812 0 l 1
661 331 m 1
 661 371 l 1xf338
 912 371 l 1
 912 331 l 1
 661 331 l 1
508 554.7265625 m 1
 508 594.7265625 l 1xe738
 820 594.7265625 l 1
 820 554.7265625 l 1
 508 554.7265625 l 1
EndSplineSet
Refer: 24 2970 N 1 0 0 1 166 0 2
EndChar

StartChar: tml_NyUu
Encoding: 142 -1 64
Width: 1276
VWidth: 0
Flags: HW
HStem: -257 94<155 181 635 669> 1 122<172 202 257 290> 238 123<173 202 257 296> 472 105<476 598> 472 123<227 296 351 476 598 699>
VStem: 31 124<145 217> 31 131<310 405> 31 171<116 123 238 360> 309 123<146 215> 476 123<0 577> 687 122<-150 -80 154 200>
LayerCount: 3
Back
SplineSet
1155 0 m 1xe0e0
 1277 0 l 1
 1277 593 l 1
 1155 593 l 1
 1155 0 l 1xe0e0
1104 473 m 1
 1361 473 l 1
 1361 595 l 1
 1104 595 l 1
 1104 473 l 1
871 473 m 1
 1050 473 l 1
 1050 595 l 1
 871 595 l 1
 871 473 l 1
448 -163 m 9
 448 -257 l 1
 644 -257 l 0
 797 -257 817 -146 817 -80 c 2
 817 157 l 1
 817 299 733 323 663 323 c 1
 663 201 l 0
 690 201 696 200 696 154 c 1
 695 -80 l 0
 695 -110 692 -163 643 -163 c 0
 448 -163 l 9
39 -125 m 0
 39 -158 l 0
 40 -253 156 -257 189 -257 c 2
 395 -257 l 1
 395 -163 l 17
 189 -163 l 2
 151 -163 150 -120 190 -120 c 2
 993 -120 l 1
 993 583 l 0
 871 583 l 0
 871 -27 l 1
 190 -27 l 2
 102 -27 39 -57 39 -125 c 0
EndSplineSet
Refer: 4 2958 N 1 0 0 1 0 0 2
Fore
SplineSet
1112 0 m 1xe0e0
 1152 0 l 1
 1152 593 l 1
 1112 593 l 1
 1112 0 l 1xe0e0
1019 554 m 1
 1236 554 l 1
 1236 595 l 1
 1019 595 l 1
 1019 554 l 1
828 554 m 1
 965 554 l 1
 965 595 l 1
 828 595 l 1
 828 554 l 1
401 -192 m 9
 401 -232 l 1
 561 -232 l 0
 714 -232 734 -120 734 -54 c 2
 734 157 l 1
 734 299 650 323 580 323 c 1
 580 283 l 0
 657 283 694 252 694 154 c 1
 694 -54 l 0
 694 -159 636 -192 560 -192 c 0
 401 -192 l 9
58 -134 m 0
 58 -152 l 0
 58 -190 105 -232 168 -232 c 2
 348 -232 l 1
 348 -192 l 17
 171 -192 l 2
 70 -192 76 -95 162 -95 c 2
 868 -95 l 1
 868 583 l 0
 828 583 l 0
 828 -55 l 1
 162 -55 l 2
 102 -55 58 -90 58 -134 c 0
EndSplineSet
Refer: 4 2958 N 1 0 0 1 0 0 2
EndChar

StartChar: tml_TtUu
Encoding: 143 -1 65
Width: 1193
VWidth: 0
Flags: HW
HStem: -258 94<125 318 372 565> -121 277<112 134 583 705> -121 93<125 745> 2 123<137 237 291 375> 252 122<153 210 536 580> 351 23<136 207> 473 109<745 867> 473 122<867 924>
VStem: 11 121<130 155 210 245> 583 122<-151 156 210 251> 745 179<473 595> 745 122<-28 473>
LayerCount: 3
Back
SplineSet
1029 0 m 1x80c0
 1151 0 l 1
 1151 593 l 1
 1029 593 l 1
 1029 0 l 1x80c0
978 473 m 1
 1235 473 l 1x82c0
 1235 595 l 1
 978 595 l 1
 978 473 l 1
745 473 m 1
 745 595 l 1x82e0
 924 595 l 1
 924 473 l 1
 745 473 l 1
372 -164 m 17
 530 -164 l 0
 579 -164 582 -111 582 -81 c 0
 583 156 l 1
 705 156 l 1xc0c0
 705 -81 l 0
 705 -147 684 -258 531 -258 c 0
 372 -258 l 1
 372 -164 l 17
1 -126 m 0
 1 -58 64 -28 152 -28 c 2
 745 -28 l 1xa2d0
 745 582 l 0xa2e0
 867 582 l 0
 867 -121 l 1
 152 -121 l 2xa2d0
 112 -121 113 -164 151 -164 c 2
 318 -164 l 9
 318 -258 l 1
 151 -257 l 2
 118 -257 2 -254 1 -159 c 0
 1 -126 l 0
11 155 m 9
 134 155 l 17
 141 118 157 125 237 125 c 1
 237 2 l 1x90c0
 70 2 11 62 11 155 c 9
11 210 m 9
 132 210 l 17
 132 250 153 252 210 252 c 2
 536 252 l 1
 578 252 583 256 583 210 c 10
 705 210 l 1
 705 346 621 374 536 374 c 1x88c0
 207 374 l 2
 122 374 11 329 11 221 c 0
 11 210 l 9
291 2 m 17x90c0
 461 2 513 103 513 194 c 2
 513 591 l 1
 391 591 l 1
 391 190 l 0
 391 144 365 125 291 125 c 1
 291 2 l 17x90c0
136 351 m 9x84c0
 258 351 l 1
 259 589 l 1
 136 589 l 1
 136 351 l 9x84c0
351 473 m 1
 645 473 l 1
 645 595 l 1
 351 595 l 1x81c0
 351 473 l 1
136 473 m 1
 297 473 l 1
 297 595 l 1
 136 595 l 1
 136 473 l 1
EndSplineSet
Fore
SplineSet
1029 0 m 1x80c0
 1069 0 l 1
 1069 593 l 1
 1029 593 l 1
 1029 0 l 1x80c0
934 555 m 1
 1153 555 l 1x82c0
 1153 595 l 1
 934 595 l 1
 934 555 l 1
745 555 m 1
 745 595 l 1x82e0
 880 595 l 1
 880 555 l 1
 745 555 l 1
EndSplineSet
Refer: 52 -1 N 1 0 0 1 -38 0 2
EndChar

StartChar: tml_NnUu
Encoding: 144 -1 66
Width: 1097
VWidth: 0
Flags: HW
LayerCount: 3
Back
SplineSet
933 0 m 1
 1055 0 l 1
 1055 593 l 1
 933 593 l 1
 933 0 l 1
881 473 m 1
 1139 473 l 1
 1139 595 l 1
 881 595 l 1
 881 473 l 1
649 473 m 1
 649 595 l 1
 827 595 l 1
 827 473 l 1
 649 473 l 1
317 -164 m 17
 420 -164 l 0
 469 -164 472 -111 472 -81 c 0
 473 151 l 1
 595 151 l 1
 595 -81 l 0
 595 -147 574 -258 421 -258 c 0
 317 -258 l 1
 317 -164 l 17
0 -126 m 0
 0 -58 63 -28 151 -28 c 2
 649 -28 l 1
 649 582 l 0
 771 582 l 0
 771 -121 l 1
 151 -121 l 2
 111 -121 112 -164 150 -164 c 2
 264 -164 l 9
 264 -258 l 1
 150 -257 l 2
 117 -257 1 -254 0 -159 c 0
 0 -126 l 0
426 252 m 0
 468 252 473 251 473 205 c 2
 473 205 l 9
 595 205 l 1
 595 205 l 0
 595 352 517 374 426 374 c 1
 426 252 l 0
262 0 m 1
 387 0 l 1
 386 589 l 1
 264 589 l 1
 262 0 l 1
22 0 m 9
 144 0 l 1
 144 591 l 1
 22 591 l 1
 22 0 l 9
22 595 m 1
 23 473 l 1
 530 473 l 1
 530 595 l 1
 22 595 l 1
EndSplineSet
Fore
SplineSet
933 0 m 1
 973 0 l 1
 973 593 l 1
 933 593 l 1
 933 0 l 1
799 555 m 1
 1057 555 l 1
 1057 595 l 1
 799 595 l 1
 799 555 l 1
649 555 m 1
 649 595 l 1
 745 595 l 1
 745 555 l 1
 649 555 l 1
EndSplineSet
Refer: 51 -1 N 1 0 0 1 -39 0 2
EndChar

StartChar: tml_TUu
Encoding: 145 -1 67
Width: 716
VWidth: 0
Flags: HW
HStem: -200 122<143 294 348 487> 0 21G<254 376> 111 122<370 508> 495 122<529 592> 693 123<196 585>
VStem: 2 123<-59 615> 254 122<0 111 233 592> 370 6<111 233> 512 124<-53 109> 595 122<623 684>
LayerCount: 3
Back
SplineSet
2 6 m 0
 2 492 l 0
 2 743 101 816 295 816 c 6
 440 816 l 6
 597 816 717 793 717 660 c 4
 717 650 l 4
 717 546 628 495 573 495 c 4
 545 495 l 4
 476 495 404 565 404 650 c 5
 526 650 l 4
 526 630 539 617 561 617 c 4
 584 617 595 631 595 649 c 4
 595 687 577 693 436 693 c 6
 296 693 l 6xfc40
 122 693 124 566 124 487 c 0
 124 5 l 0
 124 -59 148 -78 212 -78 c 0
 294 -78 l 9
 294 -200 l 1
 196 -200 l 0
 87 -200 2 -133 2 6 c 0
348 -78 m 0
 429 -78 l 0
 474 -78 512 -51 512 1 c 0
 512 68 l 0
 512 97 501 111 472 111 c 0
 370 111 l 0
 370 233 l 1
 471 233 l 2
 578 233 634 156 634 68 c 2xfd80
 634 0 l 0
 634 -105 557 -200 432 -200 c 0
 348 -200 l 1
 348 -78 l 0
254 0 m 17xfe
 254 592 l 1xfe
 376 593 l 1xfd
 376 0 l 1
 254 0 l 17xfe
EndSplineSet
Fore
SplineSet
507 736 m 0
 615 736 636 698 636 649 c 0
 636 586 584 575 561 575 c 0
 539 575 486 587 486 650 c 0
 446 650 l 1
 446 585 489 535 553 535 c 0
 568 535 l 0
 623 535 676 574 676 650 c 0
 676 660 l 0
 676 721 633 776 504 776 c 0
 214 776 l 1
 129 776 40 702 40 586 c 0
 40 6 l 0
 40 -89 116 -165 198 -165 c 0
 294 -165 l 1
 294 -125 l 17
 214 -125 l 0
 122 -125 80 -52 80 5 c 0
 80 582 l 0
 80 669 141 736 215 736 c 1
 507 736 l 0
348 -125 m 0
 409 -125 l 0
 519 -125 558 -65 558 -2 c 0
 558 65 l 0
 558 94 554 147 472 147 c 0
 320 147 l 0
 320 187 l 1
 471 187 l 2
 578 187 598 128 598 65 c 2
 598 -3 l 0
 598 -81 549 -165 412 -165 c 0
 348 -165 l 1
 348 -125 l 0
295 0 m 17
 295 592 l 1
 335 593 l 1
 335 0 l 1
 295 0 l 17
EndSplineSet
EndChar

StartChar: tml_NUu
Encoding: 146 -1 68
Width: 1523
VWidth: 0
Flags: HW
HStem: -256 94<163 452 506 800> -119 93<163 994> 3 122<160 186 239 268 543 568 622 650> 473 122<1116 1173> 473 111<994 1116> 489 123<265 328 335 335 389 521 688 748 802 818 873 925> 489 32<818 940>
VStem: 263 122<159 359> 423 122<160 491> 646 122<160 492> 802 139<489 601> 818 122<-150 521> 994 179<473 595> 994 122<-26 473>
LayerCount: 3
Back
SplineSet
1278 0 m 1xe1c0
 1400 0 l 1
 1400 593 l 1
 1278 593 l 1
 1278 0 l 1xe1c0
1227 473 m 1
 1484 473 l 1xe9c0
 1484 595 l 1
 1227 595 l 1xf1c0
 1227 473 l 1
994 473 m 1xe9c8
 994 595 l 1xf1c8
 1173 595 l 1
 1173 473 l 1xf1c8
 994 473 l 1xe9c8
EndSplineSet
Refer: 53 -1 N 1 0 0 1 0 0 2
Fore
SplineSet
1296 0 m 1xe1c0
 1336 0 l 1
 1336 603.95703125 l 1
 1296 603.95703125 l 1
 1296 0 l 1xe1c0
1163 565 m 1
 1420 565 l 1xe9c0
 1420 606 l 1
 1163 606 l 1xf1c0
 1163 565 l 1
1012 565 m 1xe9c8
 1012 606 l 1xf1c8
 1109 606 l 1
 1109 565 l 1xf1c8
 1012 565 l 1xe9c8
EndSplineSet
Refer: 53 -1 N 1 0 0 1 0 0 2
EndChar

StartChar: tml_NnnUu
Encoding: 147 -1 69
Width: 1908
VWidth: 0
Flags: HW
HStem: -256 94<177 652 706 1185> -119 93<176 1379> -0 122<162 184 238 260 546 567 620 642 931 952 1006 1028> 470 52<1203 1325> 473 122<220 327 388 483 709 755 809 868 1103 1139 1192 1203 1501 1558> 473 111<1379 1501>
VStem: 39 122<123 167 289 400> 262 122<125 335> 422 122<124 396> 645 122<125 394> 807 122<125 397> 1029 122<126 405> 1192 133<470 583> 1203 122<-150 521> 1379 179<473 595> 1379 122<-26 473>
LayerCount: 3
Back
SplineSet
1663 0 m 1xe3f0
 1785 0 l 1
 1785 593 l 1
 1663 593 l 1
 1663 0 l 1xe3f0
1611 473 m 1
 1869 473 l 1xe7f0
 1869 595 l 1
 1611 595 l 1xebf0
 1611 473 l 1
1379 473 m 1xe7f2
 1379 595 l 1xebf2
 1558 595 l 1
 1558 473 l 1xebf2
 1379 473 l 1xe7f2
EndSplineSet
Refer: 54 -1 N 1 0 0 1 0 0 2
Fore
SplineSet
1550 0 m 1xe3f0
 1590 0 l 1
 1590 593 l 1
 1550 593 l 1
 1550 0 l 1xe3f0
1416 555 m 1
 1674 555 l 1xe7f0
 1674 595 l 1
 1416 595 l 1xebf0
 1416 555 l 1
1266 555 m 1xe7f2
 1266 595 l 1xebf2
 1363 595 l 1
 1363 555 l 1xebf2
 1266 555 l 1xe7f2
EndSplineSet
Refer: 54 -1 N 1 0 0 1 0 0 2
EndChar

StartChar: tml_PUu
Encoding: 148 -1 70
Width: 702
VWidth: 0
Flags: HW
HStem: -258 93<104 137 603 603> -106 93<103 171> 1 122<204 284> 107 17<82 204>
VStem: 13 88<-163 -111> 82 122<123 595> 82 202<1 123> 174 88<-142 -111> 537 4<-112 -20>
LayerCount: 3
Back
SplineSet
13 -128 m 0
 13 -151 l 0
 13 -235 92 -258 137 -258 c 0
 284 -258 l 1
 284 -165 l 1xc980
 135 -165 l 0
 117 -165 101 -158 101 -137 c 0
 101 -117 117 -106 139 -106 c 1
 161 -107 174 -120 174 -142 c 0
 261 -142 l 0
 261 -134 l 0
 261 -61 214 -14 139 -14 c 1
 68 -14 13 -54 13 -128 c 0
340 -165 m 0
 340 -258 l 1
 603 -258 l 0
 666 -258 692 -226 692 -174 c 0
 692 -100 l 2
 692 -50 673 -20 609 -20 c 2
 537 -20 l 1
 537 -112 l 0
 603 -112 l 0
 603 -165 l 0
 340 -165 l 0
419 7 m 1
 419 -143 l 1
 541 -143 l 1
 541 7 l 1
 419 7 l 1
EndSplineSet
Refer: 6 2986 N 1 0 0 1 43 0 2
Fore
SplineSet
40 -140 m 0
 40 -145 l 0
 40 -201.78125 92.4404296875 -234 131 -234 c 0
 284 -234 l 1
 284 -194 l 1xc980
 135 -194 l 0
 112.926757812 -194 80 -177.911132812 80 -139 c 0
 80 -90.8232421875 123.907226562 -81 139 -81 c 1
 155.024414062 -81 198 -85.8525390625 198 -142 c 0
 239 -142 l 0
 239 -136 l 0
 239 -84.1552734375 204.475585938 -41 139 -41 c 1
 79.2138671875 -41 40 -82.6142578125 40 -140 c 0
340 -194 m 0
 340 -234 l 1
 604 -234 l 0
 640 -234 662 -224 662 -179 c 0
 662 -91 l 2
 662 -58 646 -46 599 -46 c 2
 502 -46 l 1
 502 -86 l 0
 622 -86 l 0
 622 -194 l 0
 340 -194 l 0
471 7 m 1
 471 -143 l 1
 512 -143 l 1
 512 7 l 1
 471 7 l 1
EndSplineSet
Refer: 6 2986 N 1 0 0 1 43 0 2
EndChar

StartChar: tml_MUu
Encoding: 149 -1 71
Width: 1002
VWidth: 0
Flags: HW
HStem: -151 122<192 261 506 606> 0 123<524 606 728 768 822 860> 107 17<402 524> 122 1<606 728> 442 122<184 245> 483 122<734 768 822 858>
VStem: 50 125<-11 54 353 436> 250 122<376 440> 402 122<123 595> 606 122<122 480> 865 123<130 478>
LayerCount: 3
Back
SplineSet
50 27 m 0x8be0
 50 -111 136 -178 245 -178 c 0
 452 -178 l 1
 452 -56 l 17
 261 -56 l 0
 197 -56 175 -37 175 26 c 0
 175 353 l 2
 175 419 180 442 218 442 c 0
 236 442 250 431 250 408 c 0
 250 386 237 374 217 374 c 0
 217 252 l 1
 302 252 372 324 372 393 c 0
 372 421 l 0
 372 476 321 564 217 564 c 0
 207 564 l 0
 74 564 49 447 50 356 c 2
 50 27 l 0x8be0
506 -56 m 0
 606 -56 l 0
 606 15 l 1
 728 15 l 1
 728 -57 l 0
 728 -126 688 -178 607 -178 c 0
 506 -178 l 1
 506 -56 l 0
EndSplineSet
Refer: 19 2990 N 1 0 0 1 363 0 2
Fore
SplineSet
116 26 m 0
 116 -84.1256038647 180.849740933 -138 265 -138 c 0
 452 -138 l 1
 452 -98 l 1
 265 -98 l 0
 208.718954248 -98 156 -64.656626506 156 25 c 0
 156 387 l 2
 156 449.212290503 194.806578947 483 243 483 c 0
 296.648111747 483 324 451.773109244 324 405 c 0
 324 364.876106195 293.086956522 331.654867257 239 331 c 0
 239 291 l 1
 307.548387097 291 364 346.278571429 364 400 c 0
 364 411 l 0
 364 464.352152435 323.49044586 523 244 523 c 0
 238 523 l 0
 169.153850625 523 116 464.625570776 116 387 c 2
 116 26 l 0
506 -98 m 0
 606 -98 l 0
 606 15 l 1
 647 15 l 1
 647 -92 l 0
 647 -116 635 -138 605 -138 c 0
 506 -138 l 1
 506 -98 l 0
EndSplineSet
Refer: 19 2990 N 1 0 0 1 363 -2.34375 2
EndChar

StartChar: tml_YUu
Encoding: 150 -1 72
Width: 817
VWidth: 0
Flags: HW
HStem: -258 93<85 118 444 795> -106 93<84 151 712 795> 0 119<198 230 284 345 477 511 564 598>
VStem: -6 88<-163 -111> 74 122<121 595> 154 88<-142 -111> 354 122<123 595> 564 156<0 119> 599 122<-143 -112 -20 168 120 595> 712 9<-112 -20> 795 89<-165 -112>
LayerCount: 3
Back
SplineSet
-6 -128 m 0
 -6 -151 l 0
 -6 -235 73 -258 118 -258 c 0
 391 -258 l 1
 391 -165 l 1xf620
 116 -165 l 0
 98 -165 82 -158 82 -137 c 0
 82 -117 98 -106 120 -106 c 1
 142 -107 154 -120 154 -142 c 0
 242 -142 l 0
 242 -134 l 0
 242 -61 195 -14 120 -14 c 1
 49 -14 -6 -54 -6 -128 c 0
444 -165 m 0
 795 -165 l 0
 795 -112 l 0
 712 -112 l 0
 712 -20 l 1xe260
 801 -20 l 2
 865 -20 884 -50 884 -100 c 2
 884 -174 l 0
 884 -226 858 -258 795 -258 c 0
 444 -258 l 1
 444 -165 l 0
599 -143 m 1
 599 168 l 1
 721 168 l 1
 721 -143 l 9xe2a0
 599 -143 l 1
EndSplineSet
Refer: 1 2991 N 1 0 0 1 35 0 2
Fore
SplineSet
40 -140 m 0
 40 -145 l 0
 40 -206.782226562 99.5927734375 -235 133 -235 c 0
 360 -235 l 1
 360 -195 l 1xc980
 137 -195 l 0
 124.48828125 -195 80 -188.873046875 80 -139 c 0
 80 -88.05859375 125.395507812 -79 141 -79 c 1
 157.024414062 -79 200 -84.01171875 200 -142 c 0
 241 -142 l 0
 241 -136 l 0
 241 -77.958984375 199.475585938 -39 141 -39 c 1
 86.0869140625 -39 40 -78.2314453125 40 -140 c 0
413 -195 m 0
 737 -195 l 0
 737 -84 l 0
 631 -84 l 0
 631 -44 l 1
 714 -44 l 2
 761 -44 777 -56 777 -89 c 2
 777 -180 l 0
 777 -225 755 -235 719 -235 c 0
 413 -235 l 1
 413 -195 l 0
601 -143 m 1
 601 168 l 1
 640 168 l 1
 640 -143 l 1xe2a0
 601 -143 l 1
EndSplineSet
Refer: 1 2991 N 1 0 0 1 35 0 2
EndChar

StartChar: tml_RUu
Encoding: 151 -1 73
Width: 1063
VWidth: 0
Flags: HW
HStem: -150 122<205 274 836 886> 1 21G<400 522> 321 122<196 257> 473 122<402 594>
VStem: 64 123<-8 57 220 317> 262 122<255 319> 400 194<473 595> 400 122<1 473> 901 122<-14 65 187 242>
LayerCount: 3
Back
SplineSet
648 473 m 1
 918 473 l 1
 918 595 l 1
 648 595 l 1xfc80
 648 473 l 1
648 -56 m 9
 648 -178 l 1
 837 -178 l 0
 963 -178 1023 -83 1023 -16 c 0
 1023 221 l 2
 1023 339 921 366 860 372 c 1
 860 251 l 1
 881 251 901 237 901 187 c 0
 901 37 l 0
 901 -6 905 -56 836 -56 c 0
 648 -56 l 9
64 29 m 0
 64 -110 149 -178 258 -178 c 0
 593 -178 l 1
 593 -56 l 17
 274 -56 l 0
 210 -56 187 -36 187 28 c 0
 187 232 l 2
 187 298 192 321 230 321 c 0
 248 321 262 310 262 287 c 0
 262 265 249 253 229 253 c 0
 229 131 l 1
 314 131 384 202 384 271 c 0
 384 300 l 0
 384 355 333 443 229 443 c 0
 219 443 l 0
 86 443 64 311 64 220 c 2
 64 29 l 0
681 1 m 1
 804 1 l 1
 806 591 l 1
 681 591 l 1
 681 1 l 1
400 1 m 17xfd80
 400 595 l 1xfe80
 522 595 l 1
 522 1 l 1
 400 1 l 17xfd80
402 473 m 1
 402 595 l 1
 594 595 l 1
 594 473 l 1
 402 473 l 1
EndSplineSet
Fore
SplineSet
648 555 m 1
 878 555 l 1
 878 595 l 1
 648 595 l 1xd9
 648 555 l 1
648 -97 m 9
 648 -137 l 1
 796 -137 l 0
 896.395721925 -137 945 -53 945 25 c 0
 945 221 l 2
 945 310.086092715 866.779141104 330.470198675 820 335 c 1
 820 295 l 1
 842.113821138 295 905 284.147826087 905 217 c 0
 905 25 l 0
 905 -57 847.77027027 -97 795 -97 c 0
 648 -97 l 9
724 1 m 1
 764 1 l 1
 766 591 l 1
 724 591 l 1
 724 1 l 1
440 1 m 17xdb
 440 595 l 1xdd
 480 595 l 1
 480 1 l 1
 440 1 l 17xdb
442 555 m 1
 442 595 l 1
 594 595 l 1
 594 555 l 1
 442 555 l 1
145 29 m 0
 145 -82.4685990338 210.720207254 -137 296 -137 c 0
 593 -137 l 1
 593 -97 l 17
 296 -97 l 0
 238.68627451 -97 185 -63.1144578313 185 28 c 0
 185 267 l 2
 185 329.860335196 206.45 364 263 364 c 0
 321.555859375 364 341 317.613445378 341 284 c 0
 341 254.690265487 321.32173913 212.637168142 268 212 c 0
 268 172 l 1
 329.967741935 172 381 226.264285714 381 279 c 0
 381 292 l 0
 381 335.076923077 343.819354839 404 268 404 c 0
 258 404 l 0
 174.890322581 404 145 334.196347032 145 267 c 2
 145 29 l 0
EndSplineSet
EndChar

StartChar: tml_RrUu
Encoding: 152 -1 74
Width: 1191
VWidth: 0
Flags: HW
HStem: -257 94<99 272 326 508> -120 93<99 701> -1 21G<249 372> 474 122<823 879> 474 109<701 823> 494 117<125 155 208 246 370 419 473 522>
VStem: -2 129<-1 491> 249 122<0 492> 526 122<-150 490> 701 179<474 596> 701 122<-27 474>
LayerCount: 3
Back
SplineSet
985 1 m 1xe380
 1107 1 l 1
 1107 594 l 1
 985 594 l 1
 985 1 l 1xe380
933 474 m 1
 1191 474 l 1xeb80
 1191 596 l 1
 933 596 l 1xf380
 933 474 l 1
701 474 m 1xebc0
 879 474 l 1xf3c0
 879 596 l 1
 701 596 l 1xf3c0
 701 474 l 1xebc0
EndSplineSet
Refer: 57 -1 N 1 0 0 1 -38 0 2
Fore
SplineSet
1027 1 m 1xe380
 1067 1 l 1
 1067 594 l 1
 1027 594 l 1
 1027 1 l 1xe380
911 556 m 1
 1151 556 l 1xeb80
 1151 596 l 1
 911 596 l 1xf380
 911 556 l 1
703 556 m 1xebc0
 857 556 l 1xf3c0
 857 596 l 1
 703 596 l 1xf3c0
 703 556 l 1xebc0
EndSplineSet
Refer: 57 -1 N 1 0 0 1 -38 0 2
EndChar

StartChar: tml_LUu
Encoding: 153 -1 75
Width: 1340
VWidth: 0
Flags: HW
HStem: -257 94<153 179 680 715> 0 122<175 212 266 305 601 636 690 729> 237 123<174 212 266 305> 485 121<237 299 353 418>
VStem: 41 124<130 225 226 228> 41 131<306 416> 41 171<115 122 237 359> 313 123<127 231> 473 122<127 165 353 425> 733 122<-150 -80 130 166 422 465>
LayerCount: 3
Back
SplineSet
1193 1 m 1xf1c0
 1315 1 l 1
 1315 594 l 1
 1193 594 l 1
 1193 1 l 1xf1c0
1141 474 m 1
 1399 474 l 1
 1399 596 l 1
 1141 596 l 1
 1141 474 l 1
909 474 m 1
 1088 474 l 1
 1088 596 l 1
 909 596 l 1
 909 474 l 1
451 -163 m 9
 451 -257 l 1
 681 -257 l 0
 834 -257 855 -146 855 -80 c 2
 855 231 l 1
 733 231 l 1
 733 -80 l 0
 733 -110 729 -163 680 -163 c 0
 451 -163 l 9
29 -125 m 0
 29 -158 l 0
 30 -253 146 -257 179 -257 c 2
 397 -257 l 1
 397 -163 l 17
 179 -163 l 2
 141 -163 140 -120 180 -120 c 2
 1031 -120 l 1
 1031 583 l 0
 909 583 l 0
 909 -27 l 1
 180 -27 l 2
 92 -27 29 -57 29 -125 c 0
EndSplineSet
Refer: 15 2994 N 1 0 0 1 0 0 2
Fore
SplineSet
756 231 m 17
 756 -57 l 0
 756 -162 698 -195 622 -195 c 0
 451 -195 l 9
 451 -235 l 1
 623 -235 l 0
 776 -235 796 -123 796 -57 c 2
 796 231 l 1
 756 231 l 17
69 -137 m 0
 69 -155 l 0
 69 -193 116 -235 179 -235 c 2
 397 -235 l 1
 397 -195 l 17
 186 -195 l 2
 85 -195 83 -98 173 -98 c 2
 932 -98 l 1
 932 583 l 0
 892 583 l 0
 892 -58 l 1
 173 -58 l 2
 113 -58 69 -93 69 -137 c 0
1176 1 m 1xf1c0
 1216 1 l 1
 1216 594 l 1
 1176 594 l 1
 1176 1 l 1xf1c0
1086 555 m 1
 1300 555 l 1
 1300 596 l 1
 1086 596 l 1
 1086 555 l 1
892 555 m 1
 1033 555 l 1
 1033 596 l 1
 892 596 l 1
 892 555 l 1
EndSplineSet
Refer: 15 2994 N 1 0 0 1 0 0 2
EndChar

StartChar: tml_LlUu
Encoding: 154 -1 76
Width: 1232
VWidth: 0
Flags: HW
HStem: -149 122<142 211 1083 1133> 0 122<363 400 454 493> 237 123<363 400 454 487> 379 122<146 200> 472 123<417 487 543 608 804 849>
VStem: 1 123<-8 57 287 360> 229 172<105 122 237 359> 229 132<306 410> 230 123<132 225 226 228> 501 123<131 226> 662 123<354 417> 1149 122<-14 65 187 241>
LayerCount: 3
Back
SplineSet
669 -56 m 9
 669 -178 l 1
 1084 -178 l 0
 1210 -178 1271 -83 1271 -16 c 0
 1271 221 l 2
 1271 329 1169 366 1107 372 c 1
 1107 245 l 1xe470
 1129 245 1149 237 1149 187 c 0
 1149 37 l 0
 1149 -6 1152 -56 1083 -56 c 0
 669 -56 l 9
1 29 m 0
 1 -110 86 -178 195 -178 c 0
 615 -178 l 1
 615 -56 l 17
 211 -56 l 0
 147 -56 124 -36 124 28 c 0
 124 287 l 0
 124 323 127 379 201 379 c 0
 200 501 l 0xf470
 115 501 1 455 1 292 c 0
 1 29 l 0
EndSplineSet
Refer: 14 2995 N 1 0 0 1 189 -3 2
Fore
SplineSet
40 57 m 0
 40 -76.6279296875 107.912109375 -142 195 -142 c 0
 615 -142 l 1
 615 -102 l 17
 192 -102 l 0
 132.662109375 -102 80 -55.361328125 80 56 c 0
 80 287 l 0
 80 387.115234375 141.131835938 421 200 421 c 0
 200 461 l 0xe9
 131.658203125 461 40 423.803710938 40 292 c 0
 40 57 l 0
669 -102 m 9
 669 -142 l 1
 1039 -142 l 0
 1141.54296875 -142 1192 -47 1192 20 c 0
 1192 187 l 2
 1192 305 1089 334 1028 340 c 1
 1028 300 l 1
 1060 300 1152 282 1152 183 c 0
 1152 20 l 0
 1152 -49 1092.32226562 -102 1038 -102 c 0
 669 -102 l 9
EndSplineSet
Refer: 14 2995 N 1 0 0 1 189 -3 2
EndChar

StartChar: tml_LllUu
Encoding: 155 -1 77
Width: 863
VWidth: 0
Flags: HW
HStem: -258 93<137 192 484 707> -146 179<523 645> 2 123<442 524 646 686 740 778> 108 17<320 442> 124 1<524 646> 442 122<115 176> 485 122<652 686 740 776>
VStem: -19 125<-133 -52 353 436> 181 122<376 440> 320 122<125 597> 523 122<-146 -120 -27 32> 524 122<124 482> 640 5<-120 -27> 707 93<-165 -120> 784 123<132 480>
LayerCount: 3
Back
SplineSet
-19 -52 m 0x85c0
 -19 -191 67 -258 176 -258 c 0
 430 -258 l 1
 430 -165 l 17
 192 -165 l 0
 128 -165 106 -117 106 -53 c 0
 106 353 l 2
 106 419 111 442 149 442 c 0
 167 442 181 431 181 408 c 0
 181 386 168 374 148 374 c 0
 148 252 l 1
 233 252 303 324 303 393 c 0
 303 421 l 0
 303 476 252 564 148 564 c 0
 138 564 l 0
 5 564 -20 447 -19 356 c 2
 -19 -52 l 0x85c0
523 32 m 1xc1e0
 645 32 l 1
 645 -146 l 1
 523 -146 l 1
 523 32 l 1xc1e0
484 -165 m 0
 707 -165 l 0
 707 -120 l 0
 640 -120 l 0
 640 -27 l 1
 716 -27 l 2
 780 -27 799 -57 799 -107 c 2x81cc
 799 -174 l 0
 799 -226 774 -258 711 -258 c 0
 484 -258 l 1
 484 -165 l 0
EndSplineSet
Refer: 19 2990 N 1 0 0 1 281 2 2
Fore
SplineSet
40 -25 m 0
 40 -164 106.590820312 -232 193 -232 c 0
 430 -232 l 1
 430 -192 l 1
 193 -192 l 0
 134.653320312 -192 80 -147 80 -26 c 0
 80 372 l 2
 80 443.932617188 102 483 160 483 c 0
 219.072265625 483 240 437.7734375 240 405 c 0
 240 370.46875 215.321289062 330.6640625 167 330 c 0
 167 290 l 1
 228.967773438 290 280 345.278320312 280 399 c 0
 280 413 l 0
 280 462.307617188 241.178710938 523 165 523 c 0
 155 523 l 0
 75.4189453125 523 40 458.1875 40 372 c 2
 40 -25 l 0
484 -192 m 0
 733 -192 l 0
 733 -93 l 0
 555 -93 l 0
 555 -53 l 1
 720 -53 l 2
 763 -53 773 -79 773 -102 c 2
 773 -177 l 0
 773 -220 756 -232 720 -232 c 0
 484 -232 l 1
 484 -192 l 0
523 32 m 1xc1e0
 563 32 l 1
 563 -146 l 1
 523 -146 l 1
 523 32 l 1xc1e0
EndSplineSet
Refer: 19 2990 N 1 0 0 1 281 2 2
EndChar

StartChar: tml_KSsa
Encoding: 157 -1 78
Width: 1710
VWidth: 0
Flags: HW
LayerCount: 3
Back
SplineSet
785 0 m 1xe780
 785 122 l 1
 817 123 832 142 832 180 c 0
 832 218 816 237 785 237 c 1
 785 359 l 0
 881 359 954 276 954 224 c 0
 954 152 l 0
 955 89 894 0 785 0 c 1xe780
558 151 m 0
 558 220 l 0xef80
 557 324 680 359 730 359 c 1xf780
 730 237 l 0xf780
 701 237 683 218 683 181 c 0xef80
 683 147 697 122 730 122 c 1
 730 0 l 0xf780
 628 0 558 91 558 151 c 0
558 226 m 1xef80
 558 268 l 1
 558 340 609 534 819 534 c 1
 819 412 l 1
 755 412 725 378 724 357 c 0
 558 226 l 1xef80
869 412 m 1
 946 412 1004 361 1005 291 c 1
 1005 146 l 0
 1005 127 979 124 972 123 c 1
 972 0 l 1
 1368 0 l 1
 1368 123 l 1
 1126 123 l 1
 1126 292 l 1
 1125 403 1038 534 869 534 c 1
 869 412 l 1
1421 485 m 1
 1460 485 1480 486 1480 413 c 2
 1480 158 l 1
 1602 158 l 1
 1602 413 l 2
 1602 561 1524 607 1421 607 c 1
 1421 485 l 1
1480 123 m 1
 1480 -178 l 1
 1602 -178 l 1
 1602 123 l 1
 1480 123 l 1
1421 158 m 1
 1738 158 l 1
 1738 280 l 0
 1421 280 l 9
 1421 158 l 1
1187 334 m 2
 1187 191 1264 158 1368 158 c 1
 1368 279 l 17
 1324 279 1310 287 1310 340 c 0
 1310 424 l 0
 1310 463 1323 485 1368 485 c 1
 1368 607 l 1
 1264 607 1187 570 1187 433 c 0
 1187 334 l 2
1638 0 m 1
 1738 0 l 1
 1738 280 l 1
 1638 280 l 1
 1638 0 l 1
1421 1 m 1
 1738 0 l 1
 1738 123 l 1
 1421 123 l 1
 1421 1 l 1
0 151.65625 m 0
 0 212.65625 l 0
 0 320.65625 110 365.65625 196 365.65625 c 0
 660 365.65625 l 9xc480
 660 243.65625 l 1
 199 243.65625 l 2
 135 243.65625 121 233.65625 121 182.65625 c 0
 121 121.65625 141 116.65625 230 116.65625 c 1
 230 -6.34375 l 1
 73 -5.34375 0 62.65625 0 151.65625 c 0
283 -6.34375 m 9
 283 116.65625 l 1
 349 116.65625 380 135.65625 380 181.65625 c 0
 380 663.65625 l 1
 502 663.65625 l 1x8c80
 502 185.65625 l 2
 502 89.65625 450 -6.34375 283 -6.34375 c 9
125 342.65625 m 17xa580
 125 661.65625 l 1xa680
 248 661.65625 l 1
 247 342.65625 l 1
 125 342.65625 l 17xa580
342 545.65625 m 1
 342 670.65625 l 1x9480
 649 670.65625 l 1
 649 545.65625 l 1
 342 545.65625 l 1
125 545.65625 m 1x8e80
 125 670.65625 l 1x9680
 288 670.65625 l 1
 288 545.65625 l 1x9680
 125 545.65625 l 1x8e80
EndSplineSet
Fore
SplineSet
40 161 m 0
 40 185 l 0
 40 250 79 339 246 339 c 0
 616 339 l 9xc480
 616 299 l 1
 239 299 l 2
 184 299 79.9853515625 286 80 177 c 0
 80.017578125 47 167.631835938 34 230 34 c 1
 230 -6 l 1
 56.521484375 -5 40 117 40 161 c 0
283 -6 m 1
 283 34 l 1
 377.63671875 34 422.631835938 93 423 182 c 0
 423 663 l 1
 463 663 l 1x8c80
 463 186 l 2
 463 90 420.260742188 -6 283 -6 c 1
165 316 m 17xa580
 165 661 l 1xa680
 206 661 l 1
 205 316 l 1
 165 316 l 17xa580
342 630 m 1
 342 670 l 1x9480
 610 670 l 1
 610 630 l 1
 342 630 l 1
165 630 m 1x8e80
 165 670 l 1x9680
 288 670 l 1
 288 630 l 1x9680
 165 630 l 1x8e80
785 0 m 1
 785 40 l 1
 829.44921875 40 879 88 879 182.6171875 c 0
 879 282 827.263671875 319 785 319 c 1
 785 359 l 0
 858.18359375 359 921 292 921 196 c 0
 921 173 l 0
 921.8046875 75 857.20703125 0 785 0 c 1
578 172 m 0
 578 196 l 0
 578 300 654 359 730 359 c 1
 730 319 l 0
 692.616210938 319 617 295 617 181 c 0
 617 91 679.872070312 40 730 40 c 1
 730 0 l 0
 641.627929688 0 578 88 578 172 c 0
578 204 m 1
 578 302 l 1
 578 425.760742188 663.239257812 528 801 528 c 1
 801 488 l 1
 686.520507812 488 619.670898438 404.390625 618 306 c 0
 578 204 l 1
852 488 m 1
 980 488 1027 416 1028 286 c 1
 1028 76 l 0
 1028 40 1022 40 955 40 c 1
 955 0 l 1
 1340 0 l 1
 1340 40 l 1
 1069 40 l 1
 1069 287 l 1
 1068 428 1014 528 852 528 c 1
 852 488 l 1
1394 567 m 1
 1434.42578125 567 1494 557 1494 413 c 2
 1494 123 l 1
 1534 123 l 1
 1534 413 l 2
 1534 561 1473.66894531 607 1394 607 c 1
 1394 567 l 1
1494 83 m 1
 1494 -178 l 1
 1534 -178 l 1
 1534 83 l 1
 1494 83 l 1
1394 158 m 1
 1670 158 l 1
 1670 198 l 0
 1394 198 l 1
 1394 158 l 1
1199 334 m 2
 1199 191 1259.40917969 158 1341 158 c 1
 1341 197 l 1
 1304.83007812 197 1239 201 1239 317 c 0
 1239 435 l 0
 1239 570 1308.44726562 567 1341 567 c 1
 1341 607 l 1
 1259.40917969 607 1199 570 1199 433 c 0
 1199 334 l 2
1630 0 m 1
 1670 0 l 1
 1670 198 l 1
 1630 198 l 1
 1630 0 l 1
1394 1 m 1
 1670 0 l 1
 1670 41 l 1
 1394 41 l 1
 1394 1 l 1
EndSplineSet
EndChar

StartChar: tml_Shree
Encoding: 160 -1 79
Width: 1149
VWidth: 0
Flags: HW
LayerCount: 3
Back
SplineSet
799 516.65625 m 1
 799 596 l 0
 725 755 796.393554688 943 999 943 c 0
 1227 943 1218.69042969 630 1020 630 c 0
 975 630 928 668 918 689 c 1
 989 772 l 0
 989 756 998 739 1023 739 c 0
 1046 739 1057 758 1057 779 c 0
 1057 794 1046 828 989 828 c 1
 917.676757812 827.5703125 848 753 923 594.7265625 c 0
 923 516.65625 l 1
 799 516.65625 l 1
860 605 m 257
 1002 605 1051 529 1052 474 c 258
 1052 71 l 2
 1052 -43 989 -152 859 -154 c 0
 221 -154 l 2
 178.41796875 -154 163 -181.724609375 163 -255 c 1
 41 -255 l 1
 41 -101.974609375 91.3935546875 -32 247 -32 c 0
 339 -32 743 -32 832 -32 c 0
 930 -32 930 40 930 71 c 2xe1f8
 930 447 l 258
 930 468 902 483 860 483 c 257
 823 483 795 468 795 446 c 258
 798 1 l 257
 675 0 l 257
 675 458 l 258
 675 472 662 482 636 482 c 257
 636 605 l 257
 682 605 712 596 736 575 c 257
 764 598 821 605 860 605 c 257
429 1 m 257
 553 1 l 257
 553 457 l 258
 553 470 557 482 582 482 c 257xe8f8
 582 605 l 257
 470 605 429 528 429 478 c 0
 429 1 l 257
80 107 m 1x60
 80 595 l 1
 202 595 l 1
 202 107 l 1x50
 80 107 l 1x60
338 1 m 1
 539 1 l 1x80
 539 123 l 1
 338 123 l 1
 338 1 l 1
80 1 m 1xa0
 80 123 l 1x60
 282 123 l 1
 282 1 l 1
 80 1 l 1xa0
EndSplineSet
Fore
SplineSet
815 571.755859375 m 1
 815 596.099609375 l 0
 741 755.099609375 836.393554688 901.099609375 972 901.099609375 c 0
 1146 901.099609375 1155.69042969 664.099609375 993 664.099609375 c 0
 955 664.099609375 921 691.099609375 911 712.099609375 c 1
 937 743.099609375 l 0
 937 727.099609375 971 704.099609375 996 704.099609375 c 0
 1019 704.099609375 1068 720.099609375 1068 779.099609375 c 0
 1068 794.099609375 1060 861.099609375 962 861.099609375 c 1
 879.676757812 860.669921875 782 753.099609375 857 594.826171875 c 0
 857 571.755859375 l 1
 815 571.755859375 l 1
832 564 m 257
 778 564 726.627929688 542.033203125 727 457 c 258
 729 0 l 257
 689 0 l 257
 687 456 l 258
 686.623046875 542 650 564 608 564 c 257
 608 604 l 257
 654 604 684 591.862304688 708 560 c 257
 744 590.896484375 797 604 831 604 c 257
 940.439453125 604 983 543 983 473 c 1
 984 63 l 1
 984 -35.3115234375 931.678710938 -123.275390625 831 -125 c 0
 150 -125 l 2
 104.064453125 -125 80 -154.654296875 80 -256 c 1
 40 -256 l 1
 40 -135.564453125 76.005859375 -85 156 -85 c 0
 243.053710938 -85 745.78515625 -85 830 -85 c 0
 897.331054688 -85 945.8515625 -23.8916015625 944.916015625 69 c 2
 941 458 l 1
 941 558 868.787109375 564 832 564 c 257
440 0 m 257
 440 477 l 0xee
 440 527 470.548828125 604 554 604 c 257
 554 564 l 257
 492.158203125 564 478.876953125 500.999023438 479 472 c 258
 481 0 l 257
 440 0 l 257
80 24 m 1x60
 80 595 l 1
 120 595 l 1
 120 24 l 1x50
 80 24 l 1x60
308 0 m 1
 308 40 l 1
 479 40 l 1
 479 0 l 1x80
 308 0 l 1
80 0 m 1xa0
 80 40 l 1x60
 252 40 l 1
 252 0 l 1
 80 0 l 1xa0
EndSplineSet
EndChar

StartChar: tml_NnAa.alt
Encoding: 163 -1 80
Width: 1083
VWidth: 0
Flags: HW
LayerCount: 3
Back
SplineSet
0 6 m 0
 0 -133 85 -200 194 -200 c 0
 592 -200 l 1
 592 -78 l 17
 210 -78 l 0
 146 -78 123 -58 123 6 c 0
 123 519 l 0
 123 555 126 609 200 609 c 1
 252 609 l 1
 288 732 l 1
 199 732 l 1
 114 732 0 682 0 519 c 0
 0 6 l 0
661 -78 m 9
 661 -200 l 1
 953 -200 l 0
 1079 -200 1140 -105 1140 -38 c 0
 1140 147 l 2
 1140 255 1038 292 976 298 c 1
 976 171 l 1xe470
 998 171 1018 163 1018 113 c 0
 1018 6 l 0
 1018 -37 1021 -78 952 -78 c 0
 661 -78 l 9
558 157 m 1
 558 288 l 2
 558 591 824 606 883 606 c 1
 883 484 l 1x0f80
 802 484 680 477 680 290 c 2
 680 158 l 0
 680 146 678 112 703 112 c 1
 703 -11 l 0
 608 -11 558 72 558 157 c 1
524 483 m 1
 524 605 l 1x1f80
 666 605 903 586 903 301 c 2
 903 157 l 0
 903 65 854 -11 757 -11 c 1
 757 112 l 0
 785 112 781 146 781 157 c 0
 781 290 l 2
 781 476 657 482 524 483 c 1
175 156 m 1
 175 71 226 -11 321 -11 c 0
 321 111 l 1x9f80
 296 111 297 145 297 157 c 0
 297 290 l 2
 297 476 390 483 470 483 c 1
 470 605 l 1
 401 605 175 596 175 290 c 2
 175 156 l 1
345 342 m 1
 342 376 373 432 430 437 c 1
 497 437 520 378 520 290 c 2
 520 156 l 0
 520 64 471 -11 374 -11 c 1
 374 112 l 0
 402 112 398 145 398 156 c 0
 398 290 l 2
 398 342 366 342 345 342 c 1
937 474 m 1
 998 470 1007 438 1007 419 c 2
 1007 342 l 0
 1007 331 1012 297 976 297 c 0
 976 175 l 1
 1080 175 1130 250 1130 342 c 0
 1130 419 l 2
 1130 561 1033 590 937 596 c 1
 937 474 l 1
EndSplineSet
Fore
SplineSet
40 40 m 0
 40 -94 134 -166 234 -166 c 0
 592 -166 l 1
 592 -126 l 17
 250 -126 l 0
 163 -126 80 -83 80 40 c 0
 80 519 l 0
 80 566 100 692 240 692 c 1
 292 692 l 1
 326 732 l 1
 239 732 l 1
 154 732 40 682 40 519 c 0
 40 40 l 0
661 -126.0390625 m 17
 899 -126.0390625 l 0
 968 -126.0390625 1002 -84.0390625 1002 -30.0390625 c 0
 1002 131.9609375 l 0
 1002 207.9609375 915 199.9609375 893 199.9609375 c 1xe470
 893 243.9609375 l 1
 955 237.9609375 1043 233.9609375 1043 135.9609375 c 2
 1043 -31.0390625 l 0
 1043 -105.0390625 996 -166.0390625 900 -166.0390625 c 0
 661 -166.0390625 l 1
 661 -126.0390625 l 17
893 244.9609375 m 17
 905 244.9609375 l 0
 971 244.9609375 1002 274.9609375 1002 315.9609375 c 0
 1002 466.9609375 l 258
 1002 520.9609375 997 565.9609375 895 565.9609375 c 257
 895 605.9609375 l 257
 1008 605.9609375 1043 558.9609375 1043 474.9609375 c 258
 1043 335.9609375 l 0xf6
 1043 283.9609375 1037 206.9609375 909 204.9609375 c 0
 893 204.9609375 l 2
 893 244.9609375 l 17
558.172851562 156 m 1
 558.172851562 299 l 2
 558.172851562 595 797.767578125 606.95703125 841.172851562 606 c 1
 841.172851562 566 l 1
 708.626953125 566 598.172851562 488 598.172851562 301 c 2
 598.172851562 157 l 0
 598.172851562 76 625.767578125 28 663.172851562 28 c 1
 663.172851562 -12 l 0x8fe0
 594.131835938 -12 558.172851562 71 558.172851562 156 c 1
524.172851562 566 m 1
 524.172851562 606 l 1xafe0
 583.88671875 606 821.172851562 605 821.172851562 312 c 2
 821.172851562 156 l 0
 821.172851562 64 788.897460938 -12 717.172851562 -12 c 1
 717.172851562 28 l 0
 758.620117188 28 781.172851562 74 781.172851562 156 c 0
 781.172851562 317 l 2
 781.172851562 451 721.104492188 565 524.172851562 566 c 1
214.172851562 155 m 1
 214.172851562 70 250.083984375 -13 321.172851562 -13 c 0
 321.172851562 27 l 1
 291.000976562 27 254.543945312 61 255.172851562 156 c 0
 254.172851562 301 l 2
 253.393554688 413.993164062 288.90234375 565 470.172851562 566 c 1
 470.172851562 606 l 1
 394.674804688 605.95703125 214.172851562 580.7265625 214.172851562 301 c 2
 214.172851562 155 l 1
351.172851562 409 m 1
 348.172851562 422 371.172851562 438 390.172851562 438 c 1
 459.172851562 438 481.172851562 379 481.172851562 301 c 2
 481.172851562 155 l 0
 481.172851562 59 443.795898438 -13 374.172851562 -13 c 1
 374.172851562 27 l 0
 408.3046875 27 441.172851562 61 441.172851562 155 c 0
 441.172851562 301 l 2
 441.172851562 357 438.172851562 409 351.172851562 409 c 1
EndSplineSet
EndChar

StartChar: tml_NnnAa.alt
Encoding: 164 -1 81
Width: 1403
VWidth: 0
Flags: HW
LayerCount: 3
Back
SplineSet
-39 6 m 0
 -39 -133 46 -200 155 -200 c 0
 718 -200 l 1
 718 -78 l 17
 171 -78 l 0
 107 -78 84 -58 84 6 c 0
 84 513 l 0
 84 549 87 603 161 603 c 1
 213 603 l 1
 249 726 l 1
 160 726 l 1
 75 726 -39 676 -39 513 c 0
 -39 6 l 0
773 -78 m 9
 773 -200 l 1
 1310 -200 l 0
 1436 -200 1497 -105 1497 -38 c 0
 1497 141 l 2
 1497 249 1395 286 1333 292 c 1
 1333 165 l 1xe470
 1355 165 1375 157 1375 107 c 0
 1375 6 l 0
 1375 -37 1378 -78 1309 -78 c 0
 773 -78 l 9
1294 468 m 1
 1355 464 1364 432 1364 413 c 2
 1364 336 l 0
 1364 325 1369 291 1333 291 c 0
 1333 169 l 1
 1437 169 1487 244 1487 336 c 0
 1487 413 l 2
 1487 555 1390 584 1294 590 c 1
 1294 468 l 1
907 168 m 1
 907 288 l 2
 907 591 1175 595 1239 595 c 1
 1239 473 l 1
 1151 473 1029 476 1029 290 c 2
 1029 169 l 0
 1029 157 1027 123 1052 123 c 1
 1052 1 l 0
 957 1 907 83 907 168 c 1
909 473 m 1
 909 595 l 1
 1041 595 1252 586 1252 301 c 2
 1252 168 l 0
 1252 76 1203 1 1106 1 c 1
 1106 123 l 0
 1134 123 1129 157 1129 168 c 0
 1129 290 l 2
 1129 476 1032 473 909 473 c 1
522 167 m 1
 522 287 l 2
 522 590 790 595 855 595 c 1
 855 472 l 1
 766 472 644 475 644 289 c 2
 644 168 l 0
 644 156 642 122 667 122 c 1
 667 0 l 0
 572 0 522 82 522 167 c 1
488 472 m 1
 488 595 l 1
 630 595 867 585 867 300 c 2
 867 167 l 0
 867 75 817 0 720 0 c 1
 720 122 l 0
 748 122 745 156 745 167 c 0
 745 289 l 2
 745 475 621 471 488 472 c 1
139 166 m 1
 139 81 189 -1 284 -1 c 0
 284 121 l 1
 259 121 261 155 261 167 c 0
 261 289 l 2
 261 475 354 472 434 472 c 1
 434 595 l 1
 365 595 139 595 139 289 c 2
 139 166 l 1
309 341 m 1
 306 375 337 431 394 436 c 1
 461 436 484 377 484 289 c 2
 484 166 l 0
 484 74 435 -1 338 -1 c 1
 338 121 l 0
 366 121 362 155 362 166 c 0
 362 289 l 2
 362 341 330 341 309 341 c 1
EndSplineSet
Fore
SplineSet
40 41 m 0
 40 -93 134 -165 234 -165 c 0
 718 -165 l 1
 718 -125 l 17
 250 -125 l 0
 163 -125 80 -82 80 41 c 0
 80 519 l 0
 80 566 100 692 240 692 c 1
 292 692 l 1
 326 732 l 1
 239 732 l 1
 154 732 40 682 40 519 c 0
 40 41 l 0
773 -125.2734375 m 17
 1219 -125.2734375 l 0
 1288 -125.2734375 1322 -83.2734375 1322 -29.2734375 c 0
 1322 118.7265625 l 0
 1322 194.7265625 1235 186.7265625 1213 186.7265625 c 1xe470
 1213 230.7265625 l 1
 1275 224.7265625 1363 220.7265625 1363 122.7265625 c 2
 1363 -30.2734375 l 0
 1363 -104.2734375 1316 -165.2734375 1220 -165.2734375 c 0
 773 -165.2734375 l 1
 773 -125.2734375 l 17
1213 231.7265625 m 17
 1225 231.7265625 l 0
 1291 231.7265625 1322 261.7265625 1322 302.7265625 c 0
 1322 453.7265625 l 258
 1322 507.7265625 1317 552.7265625 1215 552.7265625 c 257
 1215 592.7265625 l 257
 1328 592.7265625 1363 545.7265625 1363 461.7265625 c 258
 1363 322.7265625 l 0xf6
 1363 270.7265625 1357 193.7265625 1229 191.7265625 c 0
 1213 191.7265625 l 2
 1213 231.7265625 l 17
525 167.7265625 m 1
 525 278.7265625 l 2
 525 574.7265625 759.198242188 596.68359375 816 595.7265625 c 1
 816 555.7265625 l 1
 665.228515625 555.7265625 565 467.7265625 565 280.7265625 c 2
 565 168.7265625 l 0
 565 87.7265625 592.23828125 39.7265625 630 39.7265625 c 1
 630 -0.2734375 l 0x8fe0
 560.482421875 -0.2734375 525 82.7265625 525 167.7265625 c 1
488 556.7265625 m 1
 488 596.7265625 l 1xafe0
 548.158203125 596.7265625 788 584.7265625 788 291.7265625 c 2
 788 167.7265625 l 0
 788 75.7265625 754.428710938 -0.2734375 683 -0.2734375 c 1
 683 39.7265625 l 0
 724.30859375 39.7265625 748 85.7265625 748 167.7265625 c 0
 748 296.7265625 l 2
 748 430.7265625 687.41015625 556.7265625 488 556.7265625 c 1
181 166.7265625 m 1
 181 81.7265625 215.096679688 -1.2734375 284 -1.2734375 c 0
 284 38.7265625 l 1
 255.384765625 38.7265625 221.404296875 72.7265625 222 167.7265625 c 0
 221 280.7265625 l 2
 220.348632812 393.720703125 255.247070312 555.7265625 434 556.7265625 c 1
 434 596.7265625 l 1
 359.38671875 596.68359375 181 560.453125 181 280.7265625 c 2
 181 166.7265625 l 1
314 390.7265625 m 1
 311 403.7265625 334 419.7265625 353 419.7265625 c 1
 422 419.7265625 443 360.7265625 443 282.7265625 c 2
 443 166.7265625 l 0
 443 70.7265625 407.020507812 -1.2734375 340 -1.2734375 c 1
 340 38.7265625 l 0
 372.094726562 38.7265625 403 72.7265625 403 166.7265625 c 0
 403 282.7265625 l 2
 403 338.7265625 401 390.7265625 314 390.7265625 c 1
869 167.7265625 m 1
 869 277.7265625 l 2
 869 577.7265625 1106.53320312 597.68359375 1160 596.7265625 c 1
 1160 556.7265625 l 1
 1015.58886719 556.7265625 909 469.7265625 909 279.7265625 c 2
 909 168.7265625 l 0
 909 82.7265625 940.0859375 40.7265625 973 40.7265625 c 1
 973 0.7265625 l 0x8fe0
 904.862304688 0.7265625 869 82.7265625 869 167.7265625 c 1
870 555.7265625 m 1
 870 595.7265625 l 1xafe0
 928.052734375 595.7265625 1132 583.7265625 1132 290.7265625 c 2
 1132 167.7265625 l 0
 1132 75.7265625 1093.1640625 0.7265625 1027 0.7265625 c 1
 1027 40.7265625 l 0
 1063.79199219 40.7265625 1092 88.7265625 1092 167.7265625 c 0
 1092 295.7265625 l 2
 1092 405.7265625 1061.95996094 554.7265625 870 555.7265625 c 1
EndSplineSet
EndChar

StartChar: tml_RrAa.alt
Encoding: 165 -1 82
Width: 852
VWidth: 0
Flags: HW
LayerCount: 3
Back
SplineSet
1 6 m 0
 1 -133 86 -200 195 -200 c 0
 408 -200 l 1
 408 -78 l 17
 211 -78 l 0
 147 -78 124 -58 124 6 c 0
 124 519 l 0
 124 555 127 609 201 609 c 1
 253 609 l 1
 287 732 l 1
 200 732 l 1
 115 732 1 682 1 519 c 0
 1 6 l 0
477 -78 m 17
 668 -78 l 0
 737 -78 735 -37 735 6 c 0
 735 102 l 0
 735 169 684 160 662 160 c 1xe470
 662 287 l 1
 724 281 857 268 857 136 c 2
 857 -38 l 0
 857 -105 795 -200 669 -200 c 0
 477 -200 l 1
 477 -78 l 17
662 287 m 17
 674 287 l 0
 740 287 733 336 733 367 c 0
 733 433 l 258
 733 487 686 484 664 484 c 257
 664 606 l 257
 777 606 855 559 855 475 c 258
 855 384 l 0xf6
 855 279 842 167 678 165 c 0
 662 165 l 2
 662 287 l 17
181 0 m 257
 181 479 l 0xee
 181 529 222 606 334 606 c 257
 334 483 l 257
 309 483 303 471 303 458 c 258
 305 1 l 257
 181 0 l 257
387 483 m 257
 387 606 l 257
 433 606 463 597 487 576 c 257
 515 599 574 606 613 606 c 257
 613 484 l 257
 595 484 546.860351562 490.999023438 547 459 c 258
 549 2 l 257
 427 1 l 257
 425 458 l 258
 425 472 413 483 387 483 c 257
EndSplineSet
Fore
SplineSet
243 0.95703125 m 257
 243 479.95703125 l 0xee
 243 529.95703125 273.548828125 606.95703125 357 606.95703125 c 257
 357 566.95703125 l 257
 295.442382812 566.95703125 282.877929688 503.956054688 283 474.95703125 c 258
 285 0.95703125 l 257
 243 0.95703125 l 257
410 566.95703125 m 257
 410 606.95703125 l 257
 456 606.95703125 486 594.54296875 510 561.95703125 c 257
 538 597.646484375 571 606.95703125 610 606.95703125 c 257
 610 566.95703125 l 257
 565 566.95703125 528.58984375 543.142578125 529 450.95703125 c 258
 531 0.95703125 l 257
 491 0.95703125 l 257
 489 449.95703125 l 258
 488.584960938 543.124023438 462 566.95703125 410 566.95703125 c 257
40 40 m 0
 40 -94 134 -166 234 -166 c 0
 408 -166 l 1
 408 -126 l 17
 250 -126 l 0
 163 -126 80 -83 80 40 c 0
 80 519 l 0
 80 566 100 692 240 692 c 1
 292 692 l 1
 326 732 l 1
 239 732 l 1
 154 732 40 682 40 519 c 0
 40 40 l 0
477 -126 m 17
 668 -126 l 0
 737 -126 771 -84 771 -30 c 0
 771 132 l 0
 771 208 684 200 662 200 c 1xe470
 662 244 l 1
 724 238 812 234 812 136 c 2
 812 -31 l 0
 812 -105 765 -166 669 -166 c 0
 477 -166 l 1
 477 -126 l 17
662 245 m 17
 674 245 l 0
 740 245 771 275 771 316 c 0
 771 467 l 258
 771 521 766 566 664 566 c 257
 664 606 l 257
 777 606 812 559 812 475 c 258
 812 336 l 0xf6
 812 284 806 207 678 205 c 0
 662 205 l 2
 662 245 l 17
EndSplineSet
EndChar

StartChar: tml_TtIi
Encoding: 104 -1 83
Width: 703
VWidth: 0
Flags: W
LayerCount: 3
Back
SplineSet
311 17 m 1
 123 171 142.395507812 590.057617188 401 606 c 0
 511.959960938 612.840820312 581 542 579 444 c 0
 576.918945312 342.021484375 501 289 435 289 c 0
 372 289 325 338 318 361 c 1
 345 392 l 0
 352 354 398 330 423 330 c 0
 513 330 539 404 539 443 c 0
 539 529.403320312 468.471679688 579.53515625 399 566 c 1
 173 520.624023438 171 173.47265625 375 22 c 1
 311 17 l 1
40 0 m 1
 40 40 l 1
 663 40 l 1
 663 0 l 1
 40 0 l 1
40 95 m 1
 40 596 l 1
 80 596 l 1
 80 95 l 1
 40 95 l 1
EndSplineSet
Fore
SplineSet
311 17 m 1
 123 171 142.395507812 590.057617188 401 606 c 0
 511.959960938 612.840820312 581 542 579 444 c 0
 576.918945312 342.021484375 501 289 435 289 c 0
 372 289 325 338 318 361 c 1
 345 392 l 0
 352 354 398 330 423 330 c 0
 513 330 539 404 539 443 c 0
 539 529.403320312 468.471679688 579.53515625 399 566 c 1
 173 520.624023438 171 173.47265625 375 22 c 1
 311 17 l 1
40 0 m 1
 40 40 l 1
 663 40 l 1
 663 0 l 1
 40 0 l 1
40 95 m 1
 40 596 l 1
 80 596 l 1
 80 95 l 1
 40 95 l 1
EndSplineSet
Colour: ff0000
EndChar

StartChar: tml_Au
Encoding: 14 2964 84
Width: 1845
VWidth: 0
Flags: HW
HStem: -132 123<629 752> 0 122<1044 1081 1136 1174> 29 122<174 210 265 305> 237 123<1044 1081 1136 1175> 266 123<182 210 265 309> 472 123<1098 1168 1222 1287 1485 1529> 573 122<310 426 479 593>
VStem: 39 171<144 152 266 389> 39 124<161 259> 317 123<162 257> 483 123<14 166 171 350> 733 123<163 455> 910 171<115 122 237 359> 910 131<306 410> 910 124<130 225 226 228> 1182 123<127 231> 1343 123<354 417>
LayerCount: 3
Back
SplineSet
265 29 m 1xa87180
 265 152 l 0
 299 152 318 174 317 210 c 0
 316 244 305 266 265 266 c 1
 265 389 l 0
 364 389 439 309 439 248 c 0
 439 177 l 0
 439 115 364 29 265 29 c 1xa87180
39 177 m 0
 39 250 l 0xa8f180
 38 354 160 389 210 389 c 1xa97180
 210 266 l 0xa97180
 181 266 163 246 163 210 c 0xa8f180
 163 173 180 152 210 152 c 1
 210 29 l 0xa97180
 108 29 39 124 39 177 c 0
39 256 m 1x82f180
 39 310 l 1
 39 452 121 695 426 695 c 0x837180
 426 573 l 1
 243 573 179 456 179 357 c 0
 179 300 45 286 39 256 c 1x82f180
189 -124 m 1
 308 -94 l 1
 336 -151 430 -156 462 -94 c 0
 567 -155 l 1
 501 -297 244 -298 189 -124 c 1
483 25 m 0
 483 276 l 1
 604 171 l 0
 604 52 l 0
 604 3 678 -9 752 -9 c 0
 752 -132 l 1
 589 -132 483 -66 483 25 c 0
479 573 m 1
 479 695 l 1
 745 695 857 494 857 398 c 0
 857 165 l 2
 857 -17 483 -16 483 166 c 2
 483 350 l 0
 606 350 l 1
 606 196 l 1
 606 137 732 136 733 196 c 0
 733 398 l 0
 733 458 641 573 479 573 c 1
910 226 m 1x807380
 910 326 l 1x807980
 910 427 989 594 1167 594 c 0
 1168 594 l 1
 1168 473 l 0
 1164 473 l 0
 1102 473 1041 425 1041 327 c 0x807580
 1041 270 916 256 910 226 c 1x807380
1136 0 m 1xd07180
 1136 122 l 0
 1177 122 1183 150 1182 181 c 0
 1181 208 1178 237 1136 237 c 1
 1136 359 l 0
 1232 359 1305 276 1305 224 c 0
 1305 152 l 0
 1306 89 1245 0 1136 0 c 1xd07180
1222 595 m 2
 1222 595 l 1xc47180
 1222 474 l 1
 1224 474 l 2
 1280 474 1342 416 1343 354 c 1
 1344 0 l 1
 1470 0 l 1
 1466 355 l 1
 1466 454 1389 595 1222 595 c 2
910 151 m 0
 910 193 911 140 910 220 c 0xd07380
 909 324 1031 359 1081 359 c 1xd07980
 1081 237 l 0xd07980
 1052 237 1034 210 1034 181 c 0xd07380
 1034 149 1048 122 1081 122 c 1
 1081 0 l 0xd07980
 979 0 910 91 910 151 c 0
1611 0 m 1
 1733 0 l 1
 1733 574 l 1
 1611 574 l 1
 1611 0 l 1
1583 472 m 1
 1807 472 l 1
 1807 595 l 1
 1583 595 l 1x847180
 1583 472 l 1
1343 325 m 1
 1466 326 l 1
 1466 454 1488 472 1529 472 c 1
 1529 595 l 1
 1514 595 1530 595 1508 595 c 0
 1338 595 1343 409 1343 325 c 1
EndSplineSet
Fore
Refer: 2 2962 N 1 0 0 1 0 0 2
Refer: 14 2995 N 1 0 0 1 792 -10 2
EndChar

StartChar: tml_Ja
Encoding: 18 2972 85
Width: 0
VWidth: 0
Flags: HW
HStem: -178 123<208 285 346 401 618 771> 16 124<539 597 717 778> 158 123<207 261 717 769> 307 125<177 205 259 286> 561 123<620 663 717 759> 569 127<132 356>
VStem: 39 122<447 582> 54 122<-22 125> 301 122<446 542> 409 119<-49 8> 460 122<320 601> 781 122<-41 10 297 409 448 536>
LayerCount: 3
Back
SplineSet
618 -55 m 0
 681 -55 781 -60 781 -14 c 0
 781 7 757 15 717 16 c 1
 717 140 l 1xf010
 804 140 903 97 903 -16 c 0
 903 -151 773 -177 618 -177 c 0
 618 -55 l 0
346 -55 m 9
 346 -178 l 1
 462 -178 527 -108 528 -59 c 0xf050
 530 13 555 17 579 16 c 1
 663 16 l 1
 663 140 l 17
 597 140 l 1
 500 140 411 90 409 -1 c 0
 408 -50 386 -55 346 -55 c 9
54 11 m 2
 54 -92 163 -180 285 -180 c 5
 285 -58 l 17
 209 -58 176 -19 176 46 c 0xf910
 176 93 195 157 254 157 c 0
 717 158 l 1
 735 158 l 0
 815 158 907 218 909 387 c 0
 909 448 l 1
 909 597 819 676 717 684 c 1
 717 561 l 1
 764 554 785 512 785 448 c 1
 785 409 l 2
 785 349 792 281 717 281 c 2
 261 280 l 0
 124 280 54 164 54 83 c 0
 54 11 l 2
460 371 m 1
 460 468 l 0xf830
 460 601 570 675 663 684 c 1
 663 561 l 1
 623 553 582 517 582 451 c 0
 582 371 l 1
 460 371 l 1
39 471 m 0
 40 496 l 2
 40 581 135 674 228 686 c 0
 341 700 423 588 423 499 c 2
 423 471 l 2xf690
 423 410 341 307 259 307 c 1
 259 432 l 1
 281 440 301 467 301 499 c 0
 301 538 270 569 231 569 c 0
 192 569 161 538 161 499 c 0
 161 466 182 439 205 431 c 1
 205 307 l 1
 118 307 39 402 39 471 c 0
39 472 m 1
 39 482 l 0
 39 537 71 696 300 696 c 1
 445 696 582 612 582 408 c 0
 582 320 l 1
 460 320 l 17xf630
 460 408 l 0
 460 543 351 582 303 582 c 0
 262 582 158 587 158 483 c 1
 39 472 l 1
EndSplineSet
Fore
SplineSet
675 196 m 5
 692 196 l 4
 772 196 864 218 866 387 c 4
 866 502 l 5
 866 617.395744681 788.270833333 677.804255319 702 684 c 5
 702 644 l 5
 738.710526316 638.902564103 826 617.784615385 826 502 c 5
 826 419 l 5
 821.868164062 291 812 236 678 236 c 4
 675 236 l 4
 261 236 l 4
 136.903381643 236 92 138 92 64 c 4
 92 25 l 6
 92 -57 158.83982684 -180 285 -180 c 5
 285 -140 l 5
 212.905759162 -140 132 -78 132 46 c 4xf780
 132 172 209.0125 196 254 196 c 4
 675 196 l 5
502 371 m 5
 502 480 l 4
 502 605.611111111 560.037267081 675.5 648 684 c 5
 648 644 l 5
 612.918032787 636.5 541 619.625 541 464 c 4
 541 371 l 5
 502 371 l 5
67 471 m 4xfb80
 68 496 l 6
 68 581 178.1953125 686.298828125 228 686 c 4
 341.998700003 685.3160078 399 604 399 499 c 6
 399 471 l 6
 399 410 334.12195122 307 259 307 c 5
 259 344 l 5
 282.519685039 344 362 394 362 499 c 4
 362 612 286.245671888 649 234.375 649 c 4
 189.350708502 649 108 595.7265625 108 481 c 4
 108 380 183.272 343 205 343 c 5
 205 307 l 5
 125.192771084 307 67 397 67 471 c 4xfb80
67 472 m 5
 67 482 l 4
 67 537 95.5670498084 696 300 696 c 5
 470 696 541 592 541 460 c 4
 541 320 l 5
 502 320 l 21
 502 481 l 4
 502 537 461 660 301 660 c 4
 187.25 660 107.096846847 616 105 483 c 5
 67 472 l 5
575 -137 m 4
 646 -137 822.137695312 -138 820 -14 c 4
 818.20703125 90 706 99 674 100 c 5
 674 140 l 5xf010
 761 140 860 97 860 -16 c 4
 860 -151 730 -177 575 -177 c 4
 575 -137 l 4
346 -140 m 13
 346 -180 l 5
 453 -180 521.062467932 -134.681473165 528 -59 c 4xf050
 539.372988571 65.0678271353 528 100 587 100 c 5
 620 100 l 5
 620 140 l 21
 585 140 l 5
 498 140 494.89941283 82.3109906726 489 -23 c 4
 483.3014351 -124.725634789 421 -140 346 -140 c 13
EndSplineSet
EndChar

StartChar: tml_Rra
Encoding: 29 2993 86
Width: 654
VWidth: 0
Flags: HW
HStem: -155 122<145 198 433 507> 0 21G<26 155> 483 123<154 184 237 274 398 437 488 528>
VStem: 0 122<-256 -177> 26 129<1 481> 277 122<2 481> 530 125<-13 64 460 482>
LayerCount: 3
Back
SplineSet
0 -256 m 1
 122 -256 l 1
 122 -176 151 -155 198 -155 c 2
 459 -155 l 0
 598 -153 652 -41 652 64 c 0xf6
 652 475 l 258
 652 530 601 606 488 606 c 257
 488 484 l 257
 510 484 530 481 530 460 c 258
 530 47 l 0
 530 16 531 -33 433 -33 c 0
 194 -33 l 0
 52 -33 0 -114 0 -256 c 1
31 0 m 257
 31 479 l 0xee
 31 529 72 606 184 606 c 257
 184 483 l 257
 159 483 153 471 153 458 c 258
 155 1 l 257
 31 0 l 257
237 483 m 257
 237 606 l 257
 283 606 313 597 337 576 c 257
 365 599 398 606 437 606 c 257
 437 484 l 257
 419 484 397 481 397 459 c 258
 399 2 l 257
 277 1 l 257
 275 458 l 258
 275 472 263 483 237 483 c 257
EndSplineSet
Fore
SplineSet
40 -256 m 1
 80 -256 l 1
 80 -145.109375 112.434570312 -116 165 -116 c 2
 459 -116 l 0
 570.631835938 -114.356445312 614 -22.3017578125 614 64 c 0xf6
 614 475 l 258
 614 530 574.817382812 606 488 606 c 257
 488 566 l 257
 503.2578125 566 574 560 574 460 c 258
 574 64 l 0
 574.211914062 -20.4697265625 528.25 -76 460 -76 c 0
 172 -76 l 0
 112.975585938 -76 40 -95.1494140625 40 -256 c 1
70 0 m 257
 70 479 l 0xee
 70 529 100.548828125 606 184 606 c 257
 184 566 l 257
 122.442382812 566 109.877929688 502.999023438 110 474 c 258
 112 0 l 257
 70 0 l 257
237 566 m 257
 237 606 l 257
 283 606 313 593.5859375 337 561 c 257
 365 596.689453125 398 606 437 606 c 257
 437 566 l 257
 392 566 355.58984375 542.185546875 356 450 c 258
 358 0 l 257
 318 0 l 257
 316 449 l 258
 315.584960938 542.166992188 289 566 237 566 c 257
EndSplineSet
EndChar

StartChar: tml_Sha
Encoding: 34 2998 87
Width: 1258
VWidth: 0
Flags: HW
LayerCount: 3
Back
SplineSet
302 473 m 1
 930 473 l 1
 930 595 l 1
 302 595 l 1
 302 473 l 1
764 -0 m 1
 790 -0 l 0
 897 0 930 109 930 168 c 1
 930 582 l 1
 808 582 l 17
 808 168 l 1
 808 141 790 124 764 124 c 1
 764 -0 l 1
548 168 m 0
 548 112 571 0 688 -0 c 0
 710 -0 l 1
 710 124 l 1
 683 124 670 138 670 168 c 2
 670 582 l 0
 548 582 l 25
 548 168 l 0
258 0 m 1
 284 0 l 0
 391 0 424 109 424 168 c 1
 424 582 l 1
 302 582 l 17
 302 168 l 1
 302 141 284 124 258 124 c 1
 258 0 l 1
42 168 m 0
 42 112 66 0 183 0 c 0
 204 0 l 1
 204 124 l 1
 177 124 164 138 164 168 c 2
 164 595 l 0
 42 595 l 25
 42 168 l 0
EndSplineSet
Fore
SplineSet
723 0 m 5
 726 0 l 4
 800.971571906 0 848 62.5238095238 848 128 c 5
 848 582 l 5
 808 582 l 21
 808 132 l 5
 808 73.2121212121 769.547619048 40 723 40 c 5
 723 0 l 5
547 132 m 4
 547 49 592.002832338 0 665 0 c 4
 669 0 l 5
 669 40 l 5
 613.891153304 40 587 72.21875 587 136 c 6
 587 595 l 4
 547 595 l 5
 547 132 l 4
383 555 m 5
 848 555 l 5
 848 595 l 5
 383 595 l 5
 383 555 l 5
298 0 m 5
 303 0 l 4
 390.230769231 0 423 80.25 423 126 c 5
 423 582 l 5
 383 582 l 21
 383 130 l 5
 383 70.7727272727 344.547619048 40 298 40 c 5
 298 0 l 5
120 132 m 4
 120 61.2857142857 156.710200133 0 239 0 c 4
 244 0 l 5
 244 40 l 5
 194.547290492 40 160 62.6735677294 160 136 c 6
 160 595 l 4
 120 595 l 5
 120 132 l 4
EndSplineSet
EndChar

StartChar: tml_Ssa
Encoding: 35 2999 88
Width: 1258
VWidth: 0
Flags: HW
HStem: 0 123<175 212 267 305 454 487> 237 123<174 212 267 306> 483 122<229 301 351 424 803 850 903 954>
VStem: 40 172<115 122 237 359> 40 125<130 230> 314 122<131 229> 487 121<125 146 354 419> 669 123<285 340 424 474> 962 122<413 481>
LayerCount: 3
Back
SplineSet
267 0 m 1xe780
 267 122 l 1
 299 123 314 142 314 180 c 0
 314 218 298 237 267 237 c 1
 267 359 l 0
 363 359 436 276 436 224 c 0
 436 152 l 0
 437 89 376 0 267 0 c 1xe780
40 151 m 0
 40 220 l 0xef80
 39 324 162 359 212 359 c 1xf780
 212 237 l 0xf780
 183 237 165 218 165 181 c 0xef80
 165 147 179 122 212 122 c 1
 212 0 l 0xf780
 110 0 40 91 40 151 c 0
40 226 m 1xef80
 40 305 l 1
 40 433 91 605 301 605 c 1
 301 483 l 1
 237 483 178 439 176 354 c 0
 40 226 l 1xef80
351 483 m 1
 428 483 486 424 487 354 c 1
 487 146 l 0
 487 127 461 124 454 123 c 1
 454 0 l 1
 850 0 l 1
 850 123 l 1
 608 123 l 1
 608 355 l 1
 607 466 520 605 351 605 c 1
 351 483 l 1
903 485 m 1
 942 485 962 486 962 413 c 2
 962 158 l 1
 1084 158 l 1
 1084 413 l 2
 1084 561 1006 607 903 607 c 1
 903 485 l 1
962 123 m 1
 962 -178 l 1
 1084 -178 l 1
 1084 123 l 1
 962 123 l 1
903 158 m 1
 1220 158 l 1
 1220 280 l 0
 903 280 l 9
 903 158 l 1
669 334 m 2
 669 191 746 158 850 158 c 1
 850 279 l 17
 806 279 792 287 792 340 c 0
 792 424 l 0
 792 463 805 485 850 485 c 1
 850 607 l 1
 746 607 669 570 669 433 c 0
 669 334 l 2
1120 0 m 1
 1220 0 l 1
 1220 280 l 1
 1120 280 l 1
 1120 0 l 1
903 1 m 1
 1220 0 l 1
 1220 123 l 1
 903 123 l 1
 903 1 l 1
EndSplineSet
Fore
SplineSet
247 0 m 1
 247 40 l 1
 291.44921875 40 341 88 341 182.6171875 c 0
 341 282 289.263671875 319 247 319 c 1
 247 359 l 0
 320.18359375 359 383 292 383 196 c 0
 383 173 l 0
 383.8046875 75 319.20703125 0 247 0 c 1
40 172 m 0
 40 196 l 0
 40 300 116 359 192 359 c 1
 192 319 l 0
 154.616210938 319 79 295 79 181 c 0
 79 91 141.872070312 40 192 40 c 1
 192 0 l 0
 103.627929688 0 40 88 40 172 c 0
40 204 m 1
 40 302 l 1
 40 468.760742188 125.239257812 605 263 605 c 1
 263 565 l 1
 148.520507812 565 81.6708984375 443.390625 80 306 c 0
 40 204 l 1
314 565 m 1
 431 565 489 473 490 354 c 1
 490 76 l 0
 490 40 484 40 417 40 c 1
 417 0 l 1
 802 0 l 1
 802 40 l 1
 531 40 l 1
 531 355 l 1
 530 466 476 605 314 605 c 1
 314 565 l 1
856 567 m 1
 896.425531915 567 956 557 956 413 c 2
 956 123 l 1
 996 123 l 1
 996 413 l 2
 996 561 935.668508287 607 856 607 c 1
 856 567 l 1
956 83 m 1
 956 -178 l 1
 996 -178 l 1
 996 83 l 1
 956 83 l 1
856 158 m 1
 1132 158 l 1
 1132 198 l 0
 856 198 l 1
 856 158 l 1
661 334 m 2
 661 191 721.408839779 158 803 158 c 1
 803 197 l 1
 766.829787234 197 701 201 701 317 c 0
 701 435 l 0
 701 570 770.446808511 567 803 567 c 1
 803 607 l 1
 721.408839779 607 661 570 661 433 c 0
 661 334 l 2
1092 0 m 1
 1132 0 l 1
 1132 198 l 1
 1092 198 l 1
 1092 0 l 1
856 1 m 1
 1132 0 l 1
 1132 41 l 1
 856 41 l 1
 856 1 l 1
EndSplineSet
EndChar

StartChar: tml_Sa
Encoding: 36 3000 89
Width: 1167
VWidth: 0
Flags: HW
HStem: 0 122<175 212 267 305 892 924 978 1014> 237 123<175 212 267 306> 484 121<237 299 353 416 609 653 707 751>
VStem: 41 171<115 122 237 359> 41 131<306 418> 41 124<130 225 226 228> 313 123<127 231> 762 122<128 168 402 476> 1021 122<131 168 424 465>
LayerCount: 3
Back
SplineSet
41 226 m 1xe780
 41 326 l 2
 41 427 120 605 299 605 c 1xf380
 299 484 l 1
 234 484 172 427 172 327 c 0xeb80
 172 270 47 256 41 226 c 1xe780
267 0 m 5
 267 122 l 4
 308 122 314 150 313 181 c 4
 312 208 309 237 267 237 c 5
 267 359 l 4
 363 359 436 276 436 224 c 4
 436 152 l 4
 437 89 376 0 267 0 c 5
353 484 m 1
 422 484 473 417 474 354 c 1
 475 0 l 1
 601 0 l 1
 597 355 l 1
 597 456 515 605 353 605 c 1
 353 484 l 1
41 151 m 4
 41 193 42 140 41 220 c 4xe780
 40 324 162 359 212 359 c 5xf380
 212 237 l 4xf380
 183 237 165 210 165 181 c 4xe780
 165 149 179 122 212 122 c 5
 212 0 l 4xf380
 110 0 41 91 41 151 c 4
474 325 m 1
 597 326 l 1
 597 470 604 482 653 482 c 1
 653 605 l 1
 480 605 474 440 474 325 c 1
707 483 m 1
 751 483 761 469 762 402 c 10
 762 168 l 16
 762 112 785 0 902 0 c 0
 924 0 l 1
 924 124 l 1
 897 124 884 138 884 168 c 2
 884 402 l 0
 883 501 870 606 710 606 c 2
 707 606 l 1
 707 483 l 1
971 473 m 1
 1009 473 1021 460 1021 424 c 1
 1021 168 l 17
 1021 141 1004 124 978 124 c 1
 978 0 l 1
 1004 0 l 0
 1111 0 1144 109 1144 168 c 1
 1144 426 l 1
 1144 520 1107 596 1000 596 c 0
 971 596 l 1
 971 473 l 1
EndSplineSet
Fore
SplineSet
283 0 m 5
 283 40 l 5
 327.44921875 40 377 88 377 182.6171875 c 4
 377 282 325.263671875 319 283 319 c 5
 283 359 l 4
 356.18359375 359 419 292 419 196 c 4
 419 173 l 4
 419.8046875 75 355.20703125 0 283 0 c 5
76 172 m 4
 76 196 l 4
 76 300 152 359 228 359 c 5
 228 319 l 4
 190.616210938 319 115 295 115 181 c 4
 115 91 177.872070312 40 228 40 c 5
 228 0 l 4
 139.627929688 0 76 88 76 172 c 4
76 204 m 5
 76 302 l 5
 76 468.760742188 161.239257812 605 299 605 c 5
 299 565 l 5
 184.520507812 565 117.670898438 443.390625 116 306 c 4
 76 204 l 5
707 566 m 5
 803 566 802 458.00390625 802 397 c 6
 802 107 l 6
 802 49.001953125 861 0 924 0 c 5
 924 40 l 5
 882 40 843 72 843 109 c 6
 843 405 l 6
 843 507 819 606 707 606 c 5
 707 566 l 5
971 596 m 1
 971 556 l 1
 1096 556 1104 490 1104 424 c 1
 1104 167 l 1
 1104 116 1075 40 978 40 c 1
 978 0 l 1
 1088 0 1144 82 1144 167 c 2
 1144 426 l 2
 1144 543 1091 597 971 596 c 1
352.991210938 565 m 5
 465.991210938 565 515.991210938 472 515.991210938 354 c 5
 515.991210938 0 l 5
 555.991210938 0 l 5
 555.991210938 355 l 5
 555.991210938 454 514.991210938 605 352.991210938 605 c 5
 352.991210938 565 l 5
515.991210938 325 m 5
 555.991210938 326 l 5
 555.991210938 454 568.991210938 565 652.991210938 565 c 5
 652.991210938 605 l 5
 521.991210938 605 515.991210938 440 515.991210938 325 c 5
EndSplineSet
EndChar

StartChar: tml_Ha
Encoding: 37 3001 90
Width: 1399
VWidth: 0
Flags: HW
HStem: -155 122<228 298 1139 1205> 0 123<174 211 266 304 454 487> 237 123<174 211 266 305> 474 122<231 297 354 430> 481 123<859 889 942 979 1103 1142 1193 1233>
VStem: 39 172<115 122 237 359> 39 125<130 225 226 228> 92 122<-224 -167> 312 123<127 231> 487 121<125 146 354 417> 731 129<-1 479> 982 122<0 479> 1236 122<-3 70 458 480>
LayerCount: 3
Back
SplineSet
92 -224 m 0
 92 -256 l 1
 214 -256 l 0
 214 -223 l 0
 214 -160 247 -155 272 -155 c 2
 1139 -155 l 0
 1269 -153 1332 -44 1332 70 c 2
 1332 473 l 258
 1331 528 1280 604 1167 604 c 257
 1167 482 l 257
 1189 482 1210 479 1210 458 c 258
 1210 70 l 2xe1f8
 1210 39 1210 -33 1112 -33 c 0
 1023 -33 390 -33 298 -33 c 0
 161 -33 92 -92 92 -224 c 0
709 0 m 257
 709 477 l 0
 709 527 750 604 862 604 c 257
 862 481 l 257xe8f8
 837 481 833 469 833 456 c 258
 833 0 l 257
 709 0 l 257
916 481 m 257
 916 604 l 257
 962 604 992 595 1016 574 c 257
 1044 597 1076 604 1115 604 c 257
 1115 482 l 257
 1097 482 1075 479 1075 457 c 258
 1078 0 l 257
 955 -1 l 257
 955 457 l 258
 955 471 942 481 916 481 c 257
266 0 m 1
 266 122 l 0
 307 122 313 150 312 181 c 0
 311 208 308 237 266 237 c 1
 266 359 l 0
 362 359 435 276 435 224 c 0
 435 152 l 0
 436 89 375 0 266 0 c 1
39 151 m 0
 39 193 40 140 39 220 c 0xe2f8
 38 324 161 359 211 359 c 1xe4f8
 211 237 l 0xe4f8
 182 237 164 210 164 181 c 0xe2f8
 164 149 178 122 211 122 c 1
 211 0 l 0xe4f8
 109 0 39 91 39 151 c 0
39 226 m 1xf2f8
 39 282 l 1
 39 372 93 596 303 596 c 0
 297 596 l 1xf4f8
 297 474 l 0
 293 474 l 0
 231 474 182 430 175 356 c 0
 170 299 45 256 39 226 c 1xf2f8
351 474 m 1
 354 474 l 2
 429 474 486 422 487 354 c 1
 487 146 l 0
 487 127 461 124 454 123 c 1
 454 0 l 1
 655 0 l 1
 655 123 l 1
 608 123 l 1
 608 355 l 1
 607 462 523 596 359 596 c 2
 351 596 l 1
 351 474 l 1
EndSplineSet
Fore
SplineSet
247 0 m 5
 247 40 l 5
 291.44921875 40 341 88 341 182.6171875 c 4
 341 282 289.263671875 319 247 319 c 5
 247 359 l 4
 320.18359375 359 383 292 383 196 c 4
 383 173 l 4
 383.8046875 75 319.20703125 0 247 0 c 5
40 172 m 4
 40 196 l 4
 40 300 116 359 192 359 c 5
 192 319 l 4
 154.616210938 319 79 295 79 181 c 4
 79 91 141.872070312 40 192 40 c 5
 192 0 l 4
 103.627929688 0 40 88 40 172 c 4
40 204 m 5
 40 302 l 5
 40 468.760742188 125.239257812 605 263 605 c 5
 263 565 l 5
 148.520507812 565 81.6708984375 443.390625 80 306 c 4
 40 204 l 5
314 565 m 5
 431 565 489 473 490 354 c 5
 490 76 l 4
 490 40 484 40 417 40 c 5
 417 0 l 5
 656 0 l 5
 656 40 l 5
 531 40 l 5
 531 355 l 5
 530 466 476 605 314 605 c 5
 314 565 l 5
1251 473 m 5
 1251 528 1212.43902439 604 1127 604 c 261
 1127 564 l 261
 1141.78688525 564 1209 558 1209 458 c 5
 1212.91601562 69 l 6
 1213.85114098 -23.8912947069 1165.33098824 -85 1098 -85 c 4
 1013.78494624 -85 305.053763441 -85 218 -85 c 4
 138.005859375 -85 102 -135.564376527 102 -256 c 5
 142 -256 l 5
 142 -154.654354889 166.064804923 -125 212 -125 c 6
 1099 -125 l 4
 1199.67875648 -123.275229358 1252 -35.3119266055 1252 63 c 5
 1251 473 l 5
708 0 m 261
 708 477 l 4xee
 708 527 738.549019608 604 822 604 c 261
 822 564 l 261
 760.157894737 564 746.877123546 500.998843069 747 472 c 262
 749 0 l 261
 708 0 l 261
876 564 m 261
 876 604 l 261
 922 604 952 591.862068966 976 560 c 261
 1004 594.896551724 1037 604 1076 604 c 261
 1076 564 l 261
 1040 564 994.627863482 542.033194288 995 457 c 262
 997 0 l 261
 957 0 l 261
 955 456 l 262
 954.622807041 541.999994665 918 564 876 564 c 261
EndSplineSet
EndChar

StartChar: tml_MatraI
Encoding: 39 3007 91
Width: 556
VWidth: 0
Flags: HW
LayerCount: 3
Back
SplineSet
301 678 m 1
 301 800 l 1
 483 800 516 684 516 582 c 0
 516 69 l 1
 394 69 l 1
 394 579 l 2
 394 641 367 678 301 678 c 1
40 580 m 1
 40 580 l 1
 40 684 79 800 247 800 c 0
 247 800 l 1
 247 678 l 0
 247 678 l 0
 186 678 163 641 163 580 c 0
 40 580 l 1
EndSplineSet
Fore
SplineSet
301 717 m 1
 301 757 l 5
 421 757 475 683 475 582 c 4
 475 69 l 1
 435 69 l 1
 435 579 l 2
 435 690 367 717 301 717 c 1
82 580 m 1
 82 580 l 1
 82 678 125 758 247 758 c 0
 247 758 l 1
 247 718 l 0
 247 718 l 0
 180 718 122 689 122 580 c 0
 82 580 l 1
EndSplineSet
EndChar

StartChar: tml_MatraIi
Encoding: 40 3008 92
Width: 0
VWidth: 0
Flags: HW
LayerCount: 3
Back
SplineSet
491 410 m 1
 303 564 350 918 585 918 c 0
 660 917 763 885 763 756 c 0
 763 662 686 601 620 601 c 0
 557 601 506 652 502 673 c 1
 573 756 l 0
 573 740 582 723 607 723 c 0
 630 723 641 741 641 755 c 0
 641 793 608 796 585 796 c 1
 452 785 478 547 645 423 c 1
 491 410 l 1
EndSplineSet
Fore
SplineSet
542 414 m 1
 367 557 392 880 585 880 c 0
 660.006835938 880 723 838 723 756 c 0
 723 700 679 638 613 638 c 0
 566 638 526 675 522 696 c 1
 548 727 l 0
 548 711 567 678 615 678 c 0
 657 678 683 717 683 755 c 0
 683 792 663 839 585 839 c 1
 416 828 427 543 594 419 c 1
 542 414 l 1
EndSplineSet
EndChar

StartChar: tml_MatraU
Encoding: 41 3009 93
Width: 569
VWidth: 0
Flags: HW
LayerCount: 3
Back
SplineSet
39 574 m 1
 319 574 l 2
 375 574 408 567 408 529 c 0
 408 511 397 497 374 497 c 0
 352 497 340 510 340 530 c 0
 218 530 l 1
 218 445 289 375 358 375 c 0
 387 375 l 0
 442 375 530 426 530 530 c 0
 530 540 l 0
 530 673 434 696 323 696 c 2
 39 696 l 1
 39 574 l 1
EndSplineSet
Fore
SplineSet
39 615 m 5
 319 615 l 6
 416 615 448 584 448 529 c 4
 448 511 429 457 374 457 c 4
 315 457 298 510 298 530 c 4
 258 530 l 5
 258 480 300 417 369 417 c 4
 381 417 l 4
 436 417 488 471 488 530 c 4
 488 537 l 4
 488 604 438 655 323 655 c 6
 39 655 l 5
 39 615 l 5
EndSplineSet
EndChar

StartChar: tml_MatraUu
Encoding: 42 3010 94
Width: 0
VWidth: 0
Flags: HW
LayerCount: 3
Back
SplineSet
218 692 m 4
 340 692 l 5
 340 758 409 771 447 771 c 4
 486 771 557 756 557 696 c 4
 557 372 l 4
 557 337 539 314 501 314 c 4
 442 314 l 4
 442 222 l 4
 501 222 l 4
 606 222 680 267 680 372 c 4
 680 696 l 4
 680 801 593 893 447 893 c 4
 315 893 218 802 218 692 c 4
39 574 m 5
 319 574 l 6
 375 574 408 567 408 529 c 4
 408 511 397 497 374 497 c 4
 352 497 340 510 340 530 c 4
 218 530 l 5
 218 445 289 375 358 375 c 4
 387 375 l 4
 442 375 530 426 530 530 c 4
 530 540 l 4
 530 673 434 696 323 696 c 6
 39 696 l 5
 39 574 l 5
EndSplineSet
Fore
SplineSet
39 615 m 5
 319 615 l 6
 416 615 448 584 448 529 c 4
 448 511 429 457 374 457 c 4
 315 457 298 510 298 530 c 4
 258 530 l 5
 258 480 300 417 369 417 c 4
 381 417 l 4
 436 417 488 471 488 530 c 4
 488 537 l 4
 488 604 438 655 323 655 c 6
 39 655 l 5
 39 615 l 5
255 652 m 4
 295 652 l 5
 295 754 340 812 447 812 c 4
 557 812 599 753 599 696 c 4
 599 372 l 4
 599 290 547 287 501 287 c 4
 442 287 l 4
 442 247 l 4
 501 247 l 4
 602 247 639 294 639 372 c 4
 639 696 l 4
 639 801 550 852 447 852 c 4
 332 852 255 794 255 652 c 4
EndSplineSet
EndChar

StartChar: tml_MatraE
Encoding: 43 3014 95
Width: 633
VWidth: 0
Flags: HW
LayerCount: 3
Back
SplineSet
265 0 m 1
 265 122 l 0
 306 122 312 150 311 181 c 0
 310 208 307 237 265 237 c 1
 265 359 l 0
 361 359 434 276 434 224 c 0
 434 152 l 0
 435 89 374 0 265 0 c 1
39 151 m 0
 39 193 40 140 39 220 c 0xe780
 38 324 160 359 210 359 c 1xf380
 210 237 l 0xf380
 181 237 163 210 163 181 c 0xe780
 163 149 177 122 210 122 c 1
 210 0 l 0xf380
 108 0 39 91 39 151 c 0
350 596 m 1
 350 718 l 1
 522 718 595 592 595 451 c 0
 595 -10 l 1
 473 -10 l 1
 473 451 l 2
 473 514 461 596 350 596 c 1
39 214 m 1
 39 268 l 1
 39 451 l 0
 39 591 116 718 296 718 c 0
 296 718 l 1
 296 596 l 0
 296 596 l 0
 200 596 162 543 162 451 c 0
 162 315 l 0
 163 258 45 244 39 214 c 1
EndSplineSet
Fore
SplineSet
283 0 m 1
 283 40 l 1
 327.44921875 40 377 88 377 182.6171875 c 0
 377 282 325.263671875 319 283 319 c 1
 283 359 l 0
 356.18359375 359 419 292 419 196 c 0
 419 173 l 0
 419.8046875 75 355.20703125 0 283 0 c 1
76 172 m 0
 76 196 l 0
 76 300 152 359 228 359 c 1
 228 319 l 0
 190.616210938 319 115 295 115 181 c 0
 115 91 177.872070312 40 228 40 c 1
 228 0 l 0
 139.627929688 0 76 88 76 172 c 0
350 637 m 1
 350 677 l 1
 493.918367347 677 555 570.348314607 555 451 c 4
 555 -10 l 5
 515 -10 l 5
 515 451 l 6
 515 508.356828194 494.073170732 637 350 637 c 1
76 194 m 1
 76 248 l 1
 76 451 l 0
 76 569.501872659 141.914396887 677 296 677 c 0
 296 677 l 1
 296 637 l 0
 296 637 l 0
 150.00921659 637 116 524.744493392 116 451 c 0
 116 303 l 0
 117 246 82 224 76 194 c 1
EndSplineSet
EndChar

StartChar: tml_MatraEe
Encoding: 44 3015 96
Width: 621
VWidth: 0
Flags: HW
HStem: -42 121<306 356 357 358 413 452> 194 123<321 358 413 452> 346 122<322 358 413 452> 582 123<299 354 356 358 413 452>
VStem: 39 121<120 548> 187 125<100 183 476 568> 459 123<85 189 473 577>
LayerCount: 3
Back
SplineSet
413 346 m 1
 413 468 l 0
 454 468 460 495 459 526 c 0
 458 553 455 582 413 582 c 1
 413 705 l 0
 509 705 582 621 582 569 c 0
 582 498 l 0
 583 435 522 346 413 346 c 1
187 497 m 0
 187 539 188 486 187 566 c 0
 186 670 308 705 358 705 c 1
 358 582 l 0
 329 582 311 555 311 526 c 0
 311 494 325 468 358 468 c 1
 358 346 l 0
 256 346 187 437 187 497 c 0
413 -42 m 1
 413 80 l 0
 454 80 460 107 459 138 c 0
 458 165 455 194 413 194 c 1
 413 317 l 0
 509 317 582 233 582 181 c 0
 582 110 l 0
 583 47 522 -42 413 -42 c 1
187 109 m 0
 187 151 188 98 187 178 c 0
 186 282 308 317 358 317 c 1
 358 194 l 0
 329 194 311 167 311 138 c 0
 311 106 325 80 358 80 c 1
 358 -42 l 0
 256 -42 187 49 187 109 c 0
39 195 m 1
 39 466 l 1
 39 676 281 705 354 705 c 0
 354 584 l 1
 299 582 160 571 160 462 c 2
 160 208 l 2
 160 113 306 79 356 79 c 1
 356 -42 l 0
 351 -42 l 0
 255 -42 39 -5 39 195 c 1
EndSplineSet
Fore
SplineSet
413.008789062 346 m 1
 413.008789062 386 l 1
 457.458007812 386 507.008789062 434 507.008789062 528.6171875 c 0
 507.008789062 628 455.272460938 665 413.008789062 665 c 1
 413.008789062 705 l 0
 486.192382812 705 549.008789062 638 549.008789062 542 c 0
 549.008789062 519 l 0
 549.813476562 421 485.215820312 346 413.008789062 346 c 1
206.008789062 518 m 0
 206.008789062 542 l 0
 206.008789062 646 282.008789062 705 358.008789062 705 c 1
 358.008789062 665 l 0
 320.625 665 245.008789062 641 245.008789062 527 c 0
 245.008789062 437 307.880859375 386 358.008789062 386 c 1
 358.008789062 346 l 0
 269.63671875 346 206.008789062 434 206.008789062 518 c 0
413 -42 m 1
 413 -2 l 1
 457.44921875 -2 507 46 507 140.6171875 c 0
 507 240 455.263671875 277 413 277 c 1
 413 317 l 0
 486.18359375 317 549 250 549 154 c 0
 549 131 l 0
 549.8046875 33 485.20703125 -42 413 -42 c 1
206 130 m 0
 206 154 l 0
 206 258 282 317 358 317 c 1
 358 277 l 0
 320.616210938 277 245 253 245 139 c 0
 245 49 307.872070312 -2 358 -2 c 1
 358 -42 l 0
 269.627929688 -42 206 46 206 130 c 0
81 195 m 1
 81 466 l 1
 81 676 290.733333333 705 354 705 c 0
 354 666 l 1
 307.309352518 664 118 646 118 462 c 2
 118 208 l 2
 118 4 320.3 -2 356 -2 c 1
 356 -42 l 0
 351 -42 l 0
 267.923076923 -42 81 -5 81 195 c 1
EndSplineSet
EndChar

StartChar: tml_MatraAi
Encoding: 45 3016 97
Width: 1043
VWidth: 0
Flags: HW
LayerCount: 3
Back
SplineSet
423 157 m 1
 423 288 l 2
 423 591 689 606 748 606 c 1
 748 484 l 1x0f80
 667 484 545 477 545 290 c 2
 545 158 l 0
 545 146 543 112 568 112 c 1
 568 -11 l 0
 473 -11 423 72 423 157 c 1
389 483 m 1
 389 605 l 1x1f80
 531 605 768 586 768 301 c 2
 768 157 l 0
 768 65 719 -11 622 -11 c 1
 622 112 l 0
 650 112 646 146 646 157 c 0
 646 290 l 2
 646 476 522 482 389 483 c 1
40 156 m 1
 40 71 91 -11 186 -11 c 0
 186 111 l 1x9f80
 161 111 162 145 162 157 c 0
 162 290 l 2
 162 476 255 483 335 483 c 1
 335 605 l 1
 266 605 40 596 40 290 c 2
 40 156 l 1
210 342 m 1
 207 376 238 432 295 437 c 1
 362 437 385 378 385 290 c 2
 385 156 l 0
 385 64 336 -11 239 -11 c 1
 239 112 l 0
 267 112 263 145 263 156 c 0
 263 290 l 2
 263 342 231 342 210 342 c 1
802 474 m 1
 841 453 872 395 872 303 c 2
 872 162 l 0
 872 151 877 117 841 117 c 0
 841 -5 l 1
 945 -5 995 70 995 162 c 0
 995 303 l 2
 995 483 898 590 802 596 c 1
 802 474 l 1
EndSplineSet
Fore
SplineSet
423 158 m 1
 423 288 l 2
 423 584 683 605.95703125 748 605 c 1
 748 565 l 1
 572 565 463 477 463 290 c 2
 463 159 l 0
 463 78 507 30 568 30 c 1
 568 -10 l 0x8fe0
 472 -10 423 73 423 158 c 1
389 565 m 1
 389 605 l 1xafe0
 465 605 768 594 768 301 c 2
 768 158 l 0
 768 66 722 -10 622 -10 c 1
 622 30 l 0
 690 30 728 76 728 158 c 0
 728 306 l 2
 728 440 649 565 389 565 c 1
40 157 m 1
 40 72 89 -11 186 -11 c 0
 186 29 l 1
 138 29 80 63 81 158 c 0
 80 290 l 2
 79.220703125 402.994140625 121 564 335 565 c 1
 335 605 l 1
 248 604.95703125 40 569.7265625 40 290 c 2
 40 157 l 1
257 408 m 1
 254 421 276 437 295 437 c 1
 364 437 385 362 385 284 c 2
 385 157 l 0
 385 61 334 -11 239 -11 c 1
 239 29 l 0
 293 29 345 63 345 157 c 0
 345 284 l 2
 345 340 344 408 257 408 c 1
802 556 m 1
 864 554 955 471 955 303 c 2
 955 162 l 4
 954.89453125 86 914 35 841 35 c 4
 841 -5 l 1
 941 -5 995 70 995 162 c 0
 995 303 l 2
 995 483 898 590 802 596 c 1
 802 556 l 1
EndSplineSet
EndChar

StartChar: tml_AuLengthmark
Encoding: 51 3031 103
Width: 0
VWidth: 0
Flags: HW
LayerCount: 3
Back
SplineSet
41 226 m 1xe6
 41 326 l 2
 41 427 120 605 299 605 c 1xf2
 299 484 l 1
 234 484 172 427 172 327 c 0xea
 172 270 47 256 41 226 c 1xe6
267 0 m 1
 267 122 l 0
 308 122 314 150 313 181 c 0
 312 208 309 237 267 237 c 1
 267 359 l 0
 363 359 436 276 436 224 c 0
 436 152 l 0
 437 89 376 0 267 0 c 1
353 484 m 1
 422 484 473 417 474 354 c 1
 475 0 l 1
 601 0 l 1
 597 355 l 1
 597 454 515 605 353 605 c 1
 353 484 l 1
41 151 m 0
 41 193 42 140 41 220 c 0xe6
 40 324 162 359 212 359 c 1xf2
 212 237 l 0xf2
 183 237 165 210 165 181 c 0xe6
 165 149 179 122 212 122 c 1
 212 0 l 0xf2
 110 0 41 91 41 151 c 0
742 0 m 1
 864 0 l 1
 864 574 l 1
 742 574 l 1
 742 0 l 1
714 482 m 1
 938 482 l 1
 938 605 l 1
 714 605 l 1
 714 482 l 1
474 325 m 1
 597 326 l 1
 597 454 619 482 660 482 c 1
 660 605 l 1
 487 605 474 440 474 325 c 1
EndSplineSet
Fore
Refer: 14 2995 N 1 0 0 1 0 0 2
EndChar

StartChar: tml_One
Encoding: 53 3047 105
Width: 0
VWidth: 0
Flags: HW
LayerCount: 3
Back
SplineSet
331 -11 m 9x8660
 331 112 l 1
 397 112 428 141 428 187 c 0
 428 541 l 1
 550 541 l 1
 550 191 l 2
 550 95 498 -11 331 -11 c 9x8660
173 348 m 17x12e0
 173 539 l 1x1360
 296 539 l 1
 295 348 l 1
 173 348 l 17x12e0
389 470 m 1
 389 595 l 1x0a60
 682 595 l 1
 682 470 l 1
 389 470 l 1
173 470 m 1x0760
 173 595 l 1x0b60
 335 595 l 1
 335 470 l 1x0b60
 173 470 l 1x0760
48 157 m 0
 48 240 l 0
 48 347 140 371 226 371 c 0
 603 371 l 0
 709 371 786 350 786 236 c 2
 786 156 l 0
 786 60 703 2 569 2 c 1
 571 126 l 0
 647 126 664 129 664 185 c 0
 664 239 652 249 611 249 c 2
 229 249 l 2x6260
 181 249 169 239 169 188 c 0
 169 127 188 112 277 112 c 1
 277 -11 l 1xa260
 120 -11 48 68 48 157 c 0
EndSplineSet
Fore
Refer: 23 2965 N 1 0 0 1 0 0 2
EndChar

StartChar: tml_Two
Encoding: 54 3048 106
Width: 900
VWidth: 0
Flags: HW
LayerCount: 3
Back
SplineSet
-31 472 m 0
 -31 593 67 696 232 696 c 0
 415 696 524 593 524 430 c 1
 401 430 l 17
 401 538 332 574 232 574 c 0
 140 574 90 521 91 469 c 0
 92 424 130 407 156 407 c 0
 205 407 232 459 217 504 c 1
 339 504 l 1
 364 388 268 285 157 285 c 0
 65 285 -31 345 -31 472 c 0
115 0 m 1
 115 122 l 1
 909 122 l 1
 909 0 l 1
 115 0 l 1
32 0 m 1
 32 122 l 1
 284 121 401 256 401 376 c 9
 524 376 l 1
 524 161 254 0 161 0 c 1
 32 0 l 1
524 457 m 1049
EndSplineSet
Fore
SplineSet
40 472 m 0
 40 593 124.5859375 696 267 696 c 0
 412.22265625 696 524 598 524 457 c 0
 524 430 l 1
 484 430 l 17
 484 457 l 0
 484 592 362.583007812 656 267 656 c 0
 146.247070312 656 80 570.009765625 80 473 c 0
 80 391 132 325 227 325 c 0
 312.986328125 325 353.267578125 434 337 504 c 1
 378 504 l 1
 397.780273438 388 319.483398438 285 228 285 c 0
 136 285 40 345 40 472 c 0
524 457 m 1049
85 0 m 1
 85 40 l 1
 860 40 l 1
 860 0 l 1
 85 0 l 1
77 0 m 1
 77 40 l 1
 310.21484375 39 484 231 484 376 c 9
 524 376 l 1
 524 161.553710938 272.17578125 -0.15625 107 0 c 1
 77 0 l 1
524 457 m 1049
EndSplineSet
EndChar

StartChar: tml_Visarga
Encoding: 2 2947 108
Width: 654
VWidth: 0
Flags: HW
LayerCount: 3
Back
SplineSet
-39.96484375 117 m 0xe8
 -39.96484375 184 14.03515625 238 81.03515625 238 c 0
 148.03515625 238 202.03515625 184 202.03515625 117 c 0
 202.03515625 50 148.03515625 -4 81.03515625 -4 c 0
 14.03515625 -4 -39.96484375 50 -39.96484375 117 c 0xe8
446.03515625 121 m 0
 446.03515625 188 500.03515625 242 567.03515625 242 c 0
 634.03515625 242 688.03515625 188 688.03515625 121 c 0
 688.03515625 54 634.03515625 0 567.03515625 0 c 0
 500.03515625 0 446.03515625 54 446.03515625 121 c 0
202.03515625 489 m 0xd8
 202.03515625 556 256.03515625 610 323.03515625 610 c 0
 390.03515625 610 443.03515625 556 443.03515625 489 c 0
 443.03515625 422 390.03515625 368 323.03515625 368 c 0
 256.03515625 368 202.03515625 422 202.03515625 489 c 0xd8
EndSplineSet
Fore
SplineSet
475.490234375 121 m 0xe8
 475.490234375 159.357421875 506.405273438 190.272460938 544.762695312 190.272460938 c 0
 583.120117188 190.272460938 614.03515625 159.357421875 614.03515625 121 c 0
 614.03515625 82.642578125 583.120117188 51.7275390625 544.762695312 51.7275390625 c 0
 506.405273438 51.7275390625 475.490234375 82.642578125 475.490234375 121 c 0xe8
255.762695312 509.727539062 m 0xe8
 255.762695312 548.084960938 286.677734375 579 325.03515625 579 c 0
 363.392578125 579 394.307617188 548.084960938 394.307617188 509.727539062 c 0
 394.307617188 471.370117188 363.392578125 440.455078125 325.03515625 440.455078125 c 0
 286.677734375 440.455078125 255.762695312 471.370117188 255.762695312 509.727539062 c 0xe8
40 117.512695312 m 0xe8
 40 155.870117188 70.9150390625 186.78515625 109.272460938 186.78515625 c 0
 147.629882812 186.78515625 178.544921875 155.870117188 178.544921875 117.512695312 c 0
 178.544921875 79.1552734375 147.629882812 48.240234375 109.272460938 48.240234375 c 0
 70.9150390625 48.240234375 40 79.1552734375 40 117.512695312 c 0xe8
EndSplineSet
EndChar

StartChar: tml_U
Encoding: 7 2953 109
Width: 1003
VWidth: 0
Flags: HW
HStem: 0 122<50 81 144 170 224 998> 141 122<144 421> 545 159<144 348> 583 84<193 307>
VStem: 4 122<423 543> 22 148<12 122> 266 122<423 523> 436 123<277 376 430 525>
LayerCount: 3
Back
SplineSet
4 472 m 0
 4 593 102 696 267 696 c 0
 432 696 559 598 559 457 c 0
 559 430 l 1
 436 430 l 17
 436 457 l 0
 436 543 347 574 267 574 c 0
 175 574 125 521 126 469 c 0
 127 424 165 407 191 407 c 0
 240 407 267 459 252 504 c 1
 374 504 l 1
 399 388 303 285 192 285 c 0
 100 285 4 345 4 472 c 0
224 0 m 1
 224 122 l 17
 998 122 l 1
 998 0 l 1
 224 0 l 1
22 122 m 1
 170 122 l 1
 170 0 l 1
 81 0 l 0
 13 0 22 71 22 122 c 1
22 110 m 0
 22 164 l 0
 23 226 40 264 103 264 c 2
 303 264 l 0
 420 265 436 268 436 339 c 0
 436 376 l 9
 559 376 l 1
 559 339 l 2
 560 245 529 142 335 142 c 0
 284 142 154 141 144 141 c 1
 144 128 144 110 144 110 c 0
 22 110 l 0
559 457 m 1049
EndSplineSet
Fore
SplineSet
40 472 m 4
 40 593 124.5859375 696 267 696 c 4
 412.22265625 696 524 598 524 457 c 4
 524 430 l 5
 484 430 l 21
 484 457 l 4
 484 592 362.583007812 656 267 656 c 4
 146.247070312 656 80 570.009765625 80 473 c 4
 80 391 132 325 227 325 c 4
 312.986328125 325 353.267578125 434 337 504 c 5
 378 504 l 5
 397.780273438 388 319.483398438 285 228 285 c 4
 136 285 40 345 40 472 c 4
260 0 m 1
 260 38 l 17
 963 38 l 1
 963 0 l 1
 260 0 l 1
58 38 m 1
 206 38 l 1
 206 0 l 1
 117 0 l 0
 67 0 58 5 58 38 c 1
58 33 m 0
 58 137 l 0
 58 178 72 183 112 183 c 2
 337 183 l 0
 450.884765625 184 484 237 484 339 c 0
 484 376 l 9
 524 376 l 1
 524 339 l 2
 524.84375 245 498.6875 142 335 142 c 0
 101 141 l 1
 101 128 101 33 101 33 c 0
 58 33 l 0
524 457 m 1049
EndSplineSet
Layer: 2
SplineSet
223.7890625 282.2265625 m 5xdb
 223.7890625 407.2265625 l 5
 244.296875 413.0859375 266.165039062 442.361328125 266.165039062 474.712890625 c 4
 266.165039062 513.919921875 235.1640625 544.921875 195.95703125 544.921875 c 4xeb
 156.750976562 544.921875 125.748046875 513.919921875 125.748046875 474.712890625 c 4
 125.748046875 442.124023438 146.19140625 415.205078125 169.1015625 407.045898438 c 5
 169.1015625 282.2265625 l 5
 81.2109375 282.2265625 4.0625 376.953125 4.0625 446.2890625 c 4
 4.0625 492.1875 l 6
 4.0625 571.784179688 101.509765625 666.172851562 193.02734375 666.9921875 c 4
 306.779296875 668.010742188 388.33984375 586.990234375 388.33984375 498.046875 c 6
 388.33984375 448.2421875 l 6
 388.33984375 386.71875 308.75 282.2265625 223.7890625 282.2265625 c 5xdb
435.703125 429.6875 m 21
 435.703125 457.03125 l 4
 435.703125 542.96875 365.620117188 583.0078125 285.3125 583.0078125 c 4xdb
 192.5390625 583.0078125 122.71484375 542.96875 122.71484375 458.984375 c 5
 4.0625 458.984375 l 5
 4.0625 484.375 l 4
 4.0625 608.3984375 130.5234375 704.081054688 285.3125 704.1015625 c 5
 450.720703125 704.1015625 558.75 612.09765625 558.75 457.03125 c 4
 558.75 429.6875 l 5
 435.703125 429.6875 l 21
223.7890625 122.0703125 m 21
 997.71484375 122.0703125 l 5
 997.71484375 0 l 5
 223.7890625 0 l 5
 223.7890625 122.0703125 l 21
170.078125 0 m 5xc7
 80.72265625 0 l 4
 12.974609375 0 21.640625 70.6376953125 21.640625 122.0703125 c 5
 170.078125 122.0703125 l 5
 170.078125 0 l 5xc7
435.703125 375.9765625 m 13
 558.75 375.9765625 l 5
 558.75 338.8671875 l 6
 559.529296875 244.55078125 528.638671875 141.6015625 334.62890625 141.6015625 c 4
 283.646484375 141.6015625 153.982421875 141.408203125 144.19921875 141.204101562 c 5
 144.19921875 128.040039062 144.19921875 107.421875 144.19921875 107.421875 c 4
 144.299804688 63.4765625 21.66015625 68.359375 21.640625 113.28125 c 4
 21.640625 164.0625 l 4
 22.1767578125 225.739257812 40.2197265625 263.671875 103.18359375 263.671875 c 6
 303.37890625 263.671875 l 4
 420.56640625 264.213867188 435.703125 267.514648438 435.703125 338.8671875 c 4
 435.703125 375.9765625 l 13
558.75 457.03125 m 1053
EndSplineSet
EndChar

StartChar: tml_Uu
Encoding: 8 2954 110
Width: 1383
VWidth: 0
Flags: HW
HStem: 0 122<85 116 179 205 259 1381> 141 122<179 456> 149 101<768 799 846 875> 343 101<768 799 847 877> 537 101<807 870 918 976 1131 1167> 545 159<179 323> 583 84<228 342>
VStem: 39 122<442 543> 57 148<12 122> 301 122<442 514> 471 123<277 376 430 543> 659 103<255 339 398 484> 659 140<231 249 343 444> 883 101<254 337>
LayerCount: 3
Back
SplineSet
259 0 m 1
 259 122 l 17
 1381 122 l 1
 1381 0 l 1
 259 0 l 1
57 122 m 1
 205 122 l 1
 205 0 l 1x90e4
 116 0 l 0
 48 0 57 71 57 122 c 1
659 334 m 1
 659 415 l 1x906c
 659 498 724 637 869 637 c 0
 871 637 l 1
 870 537 l 0
 867 537 l 0
 817 537 767 498 767 418 c 0
 767 371 664 359 659 334 c 1
846 149 m 1xb064
 846 249 l 0
 872 249 884 272 883 297 c 0
 882 319 869 342 847 343 c 1
 847 444 l 0
 933 444 983 382 983 333 c 0
 983 298 983 326 984 261 c 0
 985 209 926 150 846 149 c 1xb064
917 538 m 1
 919 538 l 2
 963 538 1014 491 1015 440 c 1
 1016 149 l 1
 1120 149 l 1
 1116 441 l 1
 1115 522 1055 638 918 638 c 2
 917 638 l 1xb864
 917 538 l 1
659 330 m 0xb074
 658 415 759 444 799 444 c 1xb06c
 799 343 l 0xb06c
 776 342 761 321 761 297 c 0xb074
 761 271 773 249 799 249 c 1
 799 149 l 0xb06c
 712 149 660 210 660 259 c 0
 660 294 659 264 659 330 c 0xb074
1236 149 m 1
 1336 149 l 1
 1336 621 l 1
 1236 621 l 1
 1236 149 l 1
1215 537 m 1
 1396 537 l 1
 1396 638 l 1
 1215 638 l 1x9864
 1215 537 l 1
1015 429 m 1
 1116 429 l 1
 1116 482 1123 537 1167 537 c 1
 1167 638 l 1
 1148 638 l 0
 1026 638 1015 498 1015 429 c 1
EndSplineSet
Refer: 109 2953 N 1 0 0 1 0 0 2
Fore
SplineSet
259 0 m 1
 259 38 l 17
 1328 38 l 1
 1328 0 l 1
 259 0 l 1
606 316 m 1
 606 415 l 1x906c
 606 498 671 637 816 637 c 0
 818 637 l 1
 818 597 l 0
 814 597 l 0
 709 597 645 497 645 399 c 0
 645 352 611 341 606 316 c 1
793 149 m 1xb064
 793 189.6171875 l 0
 832 189.6171875 890.590820312 213 890 297 c 0
 889.324096433 393.096729276 829 403 794 404 c 1
 794 444 l 0
 880 444 930 387 930 305 c 0
 931 286 l 0
 932 228 887 150 793 149 c 1xb064
864 598 m 1
 866 598 l 2
 931 598 992 562 993 440 c 1
 994 149 l 1
 1035 149 l 1
 1031 441 l 1
 1030 522 1002 638 865 638 c 2
 864 638 l 1xb864
 864 598 l 1
606 312 m 0xb074
 605 413 706 444 746 444 c 1xb06c
 746 404 l 0xb06c
 714 403 646 383 646 297 c 0xb074
 646 216 697 189.6171875 746 189.6171875 c 1
 746 149 l 0xb06c
 659 149 606 213 606 285 c 0
 606 312 l 0xb074
1242 149 m 1
 1283 149 l 1
 1283 621 l 1
 1242 621 l 1
 1242 291 l 0
 1242 149 l 1
1162 598 m 1
 1343 598 l 1
 1343 638 l 1
 1162 638 l 1x9864
 1162 598 l 1
993 429 m 1
 1031 429 l 1
 1031 482 1028 598 1114 598 c 1
 1114 638 l 1
 1108 638 l 0
 994 638 993 498 993 429 c 1
EndSplineSet
Refer: 109 2953 N 1 0 0 1 0 0 2
EndChar

StartChar: tml_Ee
Encoding: 10 2959 111
Width: 666
VWidth: 0
Flags: HW
HStem: 1 122<142.991 172.991 227.991 260.991> 238 123<143.991 172.991 227.991 266.991> 472 105<446.991 568.991> 472 123<197.991 266.991 321.991 446.991 568.991 669.991>
VStem: 1.99121 124<145 217> 1.99121 131<310 405> 1.99121 171<116 123 238 360> 279.991 123<146 215> 446.991 123<0 577> 446.991 123<32 577>
LayerCount: 3
Back
SplineSet
315 -176 m 1
 484 32 l 1
 484 577 l 1
 609 577 l 1xe140
 607 1 l 2
 459 -176 l 1
 315 -176 l 1
EndSplineSet
Refer: 4 2958 N 1 0 0 1 0 0 2
Fore
SplineSet
326.991210938 -176 m 5
 485.991210938 15 l 5
 485.991210938 577 l 5
 525.991210938 577 l 5xe140
 525.991210938 0 l 6
 377.991210938 -176 l 5
 326.991210938 -176 l 5
EndSplineSet
Refer: 4 2958 N 1 0 0 1 0 0 2
EndChar

StartChar: tml_Ai
Encoding: 11 2960 112
Width: 879
VWidth: 0
Flags: HW
HStem: -180 122<186 258 312 422 566 636 690 743> 158 122<180 234 690 739> 307 125<150 178 232 259> 569 127<105 328 588 636 690 732>
VStem: 12 122<447 582> 27 122<-22 125> 274 122<446 542> 433 122<-45 118 320 612> 756 122<-43 -3 297 549>
LayerCount: 3
Back
SplineSet
690 158 m 1
 690 281 l 17xf380
 694 281 l 0
 765 281 758 362 758 419 c 1
 758 461 l 1
 758 525 737 567 690 574 c 1
 690 696 l 1
 792 688 882 610 882 461 c 1
 882 387 l 0
 880 218 788 158 708 158 c 0
 690 158 l 1
27 11 m 2
 27 -92 136 -180 258 -180 c 1
 258 -58 l 17
 182 -58 149 -19 149 46 c 0xf780
 149 93 168 157 227 157 c 0
 636 158 l 1
 636 280 l 0
 234 280 l 0
 97 280 27 164 27 83 c 0
 27 11 l 2
433 371 m 1
 433 480 l 0
 433 613 543 687 636 696 c 1
 636 573 l 1
 596 565 555 530 555 464 c 0
 555 371 l 1
 433 371 l 1
12 471 m 0xfb80
 13 496 l 2
 13 581 108 674 201 686 c 0
 314 700 396 588 396 499 c 2
 396 471 l 2
 396 410 314 307 232 307 c 1
 232 432 l 1
 254 440 274 467 274 499 c 0
 274 538 243 569 204 569 c 0
 165 569 134 538 134 499 c 0
 134 466 155 439 178 431 c 1
 178 307 l 1
 91 307 12 402 12 471 c 0xfb80
12 472 m 1
 12 482 l 0
 12 537 44 696 273 696 c 1
 430 696 555 612 555 408 c 0
 555 320 l 1
 433 320 l 17
 433 408 l 0
 433 543 324 582 276 582 c 0
 235 582 131 587 131 483 c 1
 12 472 l 1
690 -57 m 9
 690 -180 l 1
 812 -180 878 -87 878 -3 c 2
 878 118 l 1
 756 118 l 1
 756 -3 l 2
 756 -40 729 -57 690 -57 c 9
312 -58 m 1
 380 -58 433 -59 433 -4 c 2
 433 118 l 0
 555 118 l 0
 555 -4 l 2
 555 -47 586 -57 636 -57 c 1
 636 -180 l 1
 584 -180 513 -174 499 -130 c 1
 476 -180 388 -180 312 -180 c 1
 312 -58 l 1
EndSplineSet
Fore
SplineSet
648 196 m 1
 665 196 l 0
 745 196 837 218 839 387 c 0
 839 502 l 1
 839 617.395507812 761.270507812 677.8046875 675 684 c 1
 675 644 l 1
 711.7109375 638.90234375 799 617.784179688 799 502 c 1
 799 419 l 1
 794.868164062 291 785 236 651 236 c 0
 648 236 l 0
 234 236 l 0
 109.903320312 236 65 138 65 64 c 0
 65 25 l 2
 65 -57 131.83984375 -180 258 -180 c 1
 258 -140 l 1
 185.905273438 -140 105 -78 105 46 c 0xf780
 105 172 182.012695312 196 227 196 c 0
 648 196 l 1
475 371 m 1
 475 480 l 0
 475 605.611328125 533.037109375 675.5 621 684 c 1
 621 644 l 1
 585.91796875 636.5 514 619.625 514 464 c 0
 514 371 l 1
 475 371 l 1
40 471 m 0xfb80
 41 496 l 2
 44.39453125 580.864257812 144.1953125 686.290039062 201 686 c 0
 314.999023438 685.41796875 372 604 372 499 c 2
 372 471 l 2
 372 410 307.122070312 307 232 307 c 1
 232 344 l 1
 255.51953125 344 335 394 335 499 c 0
 335 612 259.24609375 649 207.375 649 c 0
 162.350585938 649 81 595.7265625 81 481 c 0
 81 380 156.272460938 343 178 343 c 1
 178 307 l 1
 98.1923828125 307 40 397 40 471 c 0xfb80
40 472 m 1
 40 482 l 0
 40 537 68.5673828125 696 273 696 c 1
 443 696 514 592 514 460 c 0
 514 320 l 1
 475 320 l 1
 475 481 l 0
 475 537 434 660 274 660 c 0
 160.25 660 80.0966796875 616 78 483 c 1
 40 472 l 1
670 -140 m 1
 670 -180 l 1
 769.936523438 -180 824 -87 824 -3 c 2
 824 118 l 1
 784 118 l 1
 784 -3 l 2
 784 -85 731.622070312 -140 670 -140 c 1
312 -140 m 1
 383 -140 474 -129.146484375 474 8 c 2
 474 117 l 0
 513 118 l 0
 513 9 l 2
 513 -113.916015625 572.455078125 -140 616 -140 c 1
 616 -180 l 1
 568.5546875 -180 518 -161.60546875 491 -105 c 1
 453 -170.1640625 368.892578125 -180 312 -180 c 1
 312 -140 l 1
EndSplineSet
EndChar

StartChar: tml_KI
Encoding: 77 -1 115
Width: 873
VWidth: 0
Flags: HWO
LayerCount: 3
Fore
SplineSet
649 727 m 1
 649 767 l 1
 794 767 833 691 833 590 c 0
 833 77 l 1
 793 77 l 1
 793 587 l 2
 793 652 785 727 649 727 c 1
422 588 m 1
 462 588 l 0
 462 649 467 727 594 727 c 0
 594 727 l 0
 594 767 l 1
 594 767 l 0
 460 767 422 692 422 588 c 1
 422 588 l 1
EndSplineSet
Refer: 23 2965 N 1 0 0 1 -48 -3 2
Layer: 2
SplineSet
669 727.099609375 m 5
 669 808 l 5
 856 808 916 691 916 590 c 4
 916 77 l 5
 794 77 l 5
 794 587 l 6
 794 649 751 727.099609375 669 727.099609375 c 5
422 588 m 5
 462 588 l 4
 462 649 486 727 614 727 c 4
 614 727 l 4
 614 767 l 5
 614 767 l 4
 469 767 422 692 422 588 c 5
 422 588 l 5
EndSplineSet
Colour: ff0000
EndChar

StartChar: tml_NgI
Encoding: 78 -1 116
Width: 1015
VWidth: 0
Flags: HW
LayerCount: 3
Back
SplineSet
821 681 m 1
 821 803 l 1
 968 803 1016 686 1016 585 c 0
 1016 68 l 1
 894 68 l 1
 894 582 l 2
 894 644 868 681 821 681 c 1
694 548 m 5
 694 583 l 0
 694 648 719 681 767 681 c 0
 767 681 l 0
 767 803 l 1
 767 803 l 1
 525 803 609 548 694 548 c 5
EndSplineSet
Refer: 12 2969 N 1 0 0 1 -41 0 2
Fore
SplineSet
822 727 m 1
 822 767 l 1
 952 767 975 680 975 585 c 0
 975 68 l 1
 934 68 l 1
 934 582 l 2
 934 643 932 727 822 727 c 1
735 548 m 1
 735 583 l 0
 660 583 660 728.099609375 768 728 c 0
 768 728 l 0
 768 767 l 1
 768 767 l 1
 607.654296875 766.518554688 606.950195312 547.965820312 735 548 c 1
EndSplineSet
Refer: 12 2969 N 1 0 0 1 -41 0 2
Colour: ff0000
EndChar

StartChar: tml_CI
Encoding: 79 -1 117
Width: 778
VWidth: 0
Flags: HW
LayerCount: 3
Fore
SplineSet
608 718.95703125 m 1
 608 758.95703125 l 1
 705 758.95703125 738 694.95703125 738 592.95703125 c 0
 738 63.95703125 l 1
 698 63.95703125 l 1
 698 589.95703125 l 2
 698 651.95703125 694 718.95703125 608 718.95703125 c 1
423 590.95703125 m 1
 423 590.95703125 l 1
 423 694.95703125 460 758.95703125 554 758.95703125 c 0
 554 758.95703125 l 1
 554 718.95703125 l 0
 554 718.95703125 l 0
 474 718.95703125 463 651.95703125 463 590.95703125 c 0
 423 590.95703125 l 1
EndSplineSet
Refer: 24 2970 N 1 0 0 1 0 0 2
Colour: ff0000
EndChar

